<svg width="412" height="146" viewBox="0 0 412 146" fill="none" xmlns="http://www.w3.org/2000/svg">
<path d="M0.823242 116V90.2L63.6232 2.8H104.623L43.6232 90.2L24.8232 84.6H134.223V116H0.823242ZM74.8232 142.8V116L76.0232 84.6V60.8H113.423V142.8H74.8232Z" fill="#A5340F"/>
<path d="M204.062 145.6C192.062 145.6 181.396 142.733 172.062 137C162.862 131.267 155.596 123 150.262 112.2C144.929 101.4 142.262 88.2667 142.262 72.8C142.262 57.3333 144.929 44.2 150.262 33.4C155.596 22.6 162.862 14.3333 172.062 8.60001C181.396 2.86667 192.062 0 204.062 0C215.929 0 226.462 2.86667 235.662 8.60001C244.996 14.3333 252.329 22.6 257.662 33.4C262.996 44.2 265.662 57.3333 265.662 72.8C265.662 88.2667 262.996 101.4 257.662 112.2C252.329 123 244.996 131.267 235.662 137C226.462 142.733 215.929 145.6 204.062 145.6ZM204.062 113.2C208.329 113.2 212.062 111.867 215.262 109.2C218.596 106.533 221.196 102.267 223.062 96.4C224.929 90.4 225.862 82.5333 225.862 72.8C225.862 62.9333 224.929 55.0667 223.062 49.2C221.196 43.3333 218.596 39.0667 215.262 36.4C212.062 33.7333 208.329 32.4 204.062 32.4C199.796 32.4 195.996 33.7333 192.662 36.4C189.462 39.0667 186.862 43.3333 184.862 49.2C182.996 55.0667 182.062 62.9333 182.062 72.8C182.062 82.5333 182.996 90.4 184.862 96.4C186.862 102.267 189.462 106.533 192.662 109.2C195.996 111.867 199.796 113.2 204.062 113.2Z" fill="#A5340F"/>
<path d="M277.776 116V90.2L340.576 2.8H381.576L320.576 90.2L301.776 84.6H411.176V116H277.776ZM351.776 142.8V116L352.976 84.6V60.8H390.376V142.8H351.776Z" fill="#A5340F"/>
</svg>
