<svg width="1149" height="1148" viewBox="0 0 1149 1148" fill="none" xmlns="http://www.w3.org/2000/svg">
<g clip-path="url(#clip0_402_6881)">
<path d="M665.036 724.743C650.4 724.133 637.976 718.235 628.134 710.367C612.756 698.074 604.263 682.212 603.525 680.614L603.401 679.507L602.171 678.523C600.941 677.54 566.615 646.068 575.824 608.061C582.701 579.279 611.594 557.007 624.628 548.27L626.093 521.212C626.46 514.448 632.115 509.895 638.88 510.261C645.644 510.628 650.197 516.283 649.831 523.048L648.365 550.106C650.949 553.179 654.763 557.237 658.824 563.507C658.578 561.294 659.438 558.957 659.682 556.128C665.33 531.405 689.06 513.071 701.11 505.564L703.191 478.998C703.557 472.233 709.213 467.68 715.977 468.047C722.742 468.413 727.295 474.069 726.928 480.833L724.848 507.399C726.693 508.875 728.662 511.457 731.246 514.53C730.752 510.103 731.365 505.552 732.594 501.493C738.118 475.663 764.061 457.082 775.005 449.699L784.343 427.926C787.047 422.022 793.441 419.068 799.837 421.156C805.742 423.859 808.696 430.254 806.608 436.65L800.096 453.625C808.463 463.338 823.721 484.609 818.073 509.331C817.337 512.775 815.985 515.728 814.633 518.68C817.954 518.31 821.274 517.939 824.103 518.184C848.824 518.79 865.558 538.215 872.941 549.159L891.143 546.569C897.784 545.828 903.32 550.254 904.06 556.895C904.801 563.536 900.376 569.072 893.734 569.813L872.213 572.773C863.607 581.016 837.418 602.426 809.869 601.576C804.826 601.578 800.767 600.349 796.708 599.121C798.677 601.703 800.646 604.285 801.999 606.375L827.829 611.9C834.102 612.881 838.163 619.152 837.181 625.425C836.2 631.698 829.929 635.759 823.656 634.777L798.442 629.745C788.237 638.727 764.016 657.676 738.188 657.194C735.974 657.441 733.637 656.581 730.808 656.336C735.238 660.885 738.56 665.557 740.037 668.754L766.358 673.664C772.631 674.645 776.692 680.916 775.711 687.189C774.729 693.462 768.458 697.523 762.186 696.541L736.971 691.508C724.165 702.461 694.288 725.964 665.016 724.745L665.036 724.743ZM691.689 632.122C685.906 625.483 683.567 619.581 682.951 619.089L681.721 618.105C681.106 617.614 676.677 613.065 672.001 606.302C671.879 610.238 671.143 613.682 671.021 617.618C669.916 622.784 668.196 627.458 665.369 632.255C670.288 631.147 675.823 630.53 680.865 630.528C684.801 630.649 688.245 631.386 691.689 632.122V632.122ZM755.247 563.962C755.165 563.225 755.165 563.225 755.247 563.962L754.017 562.979C753.402 562.487 749.588 558.43 744.42 552.283C744.914 556.71 744.3 561.261 743.072 565.32C742.335 568.764 740.984 571.716 739.632 574.668C742.953 574.298 746.273 573.928 749.102 574.173C754.144 574.171 758.204 575.399 762.263 576.628C758.693 569.742 755.874 564.463 755.247 563.962V563.962ZM682.192 562.023C679.122 574.692 686.629 586.742 691.92 593.996C702.248 586.121 717.125 573.816 720.071 560.04C723.141 547.371 715.634 535.321 710.343 528.067C699.891 534.835 685.63 547.632 682.192 562.023ZM598.334 613.956C594.035 630.684 604.741 646.299 611.878 655.029C624.911 646.292 643.23 629.681 648.02 612.338C652.318 595.61 641.612 579.995 634.476 571.265C621.442 580.002 602.508 596.121 598.334 613.956ZM792.859 504.299C795.929 491.63 788.422 479.58 783.131 472.325C772.803 480.201 757.926 492.505 754.979 506.281C751.909 518.95 759.416 531 764.708 538.254C775.159 531.486 789.912 518.074 792.859 504.299V504.299ZM850.07 560.113C844.779 552.859 834.69 542.778 821.161 542.045C807.14 541.928 790.909 552.142 780.581 560.017C785.873 567.271 795.962 577.352 809.491 578.085C823.635 579.31 840.357 568.48 850.07 560.113V560.113ZM777.774 615.24C772.483 607.986 762.394 597.904 749.48 597.663C735.459 597.546 719.229 607.76 708.901 615.635C714.192 622.89 724.281 632.971 737.195 633.212C751.339 634.436 768.061 623.607 777.774 615.24ZM680.136 654.142C662.18 653.903 641.277 667.439 629.474 677.16C636.119 686.504 648.915 700.766 665.765 701.129C683.721 701.368 704.624 687.831 716.427 678.11C709.782 668.766 696.986 654.504 680.136 654.142V654.142Z" fill="#2D2D2D"/>
<path d="M898.383 505.98C870.473 527.022 830.867 518.551 829.145 518.182C827.423 517.814 825.701 517.446 823.856 515.971C820.78 513.512 819.303 510.315 819.425 506.379C819.793 504.657 822.483 463.455 849.901 443.029C872.648 425.924 903.765 428.618 915.08 429.598L932.662 416.431C937.826 412.494 945.206 413.352 949.143 418.516C953.081 423.68 952.223 431.059 947.059 434.997L929.477 448.164C928.985 448.779 928.37 448.287 927.878 448.902C926.53 461.939 919.531 489.614 898.383 505.98V505.98ZM864.79 460.979C852.863 469.593 847.335 485.338 845.125 495.669C855.825 496.157 872.551 495.413 883.863 486.307C895.789 477.694 901.318 461.949 903.527 451.617C892.827 451.129 876.716 452.365 864.79 460.979V460.979Z" fill="#2D2D2D"/>
<path d="M832.418 391.749C828.36 395.563 821.104 395.812 816.798 392.37L815.568 391.387C811.139 386.838 811.382 378.967 815.931 374.537L832.159 359.28C837.323 355.343 845.195 355.586 849.624 360.135C854.053 364.684 853.81 372.555 849.261 376.984L832.418 391.749V391.749Z" fill="#2D2D2D"/>
<path d="M703.614 301.894L702.384 300.911C698.078 297.469 696.231 290.951 699.549 285.538L710.857 266.348C714.175 260.935 720.693 259.088 726.598 261.791C732.01 265.11 734.473 272.119 730.663 278.147L719.355 297.338C716.652 303.242 709.642 305.705 703.614 301.894V301.894Z" fill="#2D2D2D"/>
<path d="M943.049 559.832C939.728 560.202 936.776 558.85 934.931 557.375C932.47 555.408 930.993 552.211 930.623 548.89C929.882 542.249 934.308 536.713 940.949 535.973L963.086 533.504C969.727 532.764 975.263 537.189 976.004 543.831C976.744 550.472 972.319 556.008 965.678 556.748L943.049 559.832V559.832Z" fill="#2D2D2D"/>
<path d="M575.344 317.317C574.114 316.334 572.76 314.243 572.021 312.645C571.283 311.046 554.296 274.279 568.674 242.42C579.979 218.187 605.433 205.263 617.238 200.585C617.73 199.97 617.115 199.478 617.606 198.863L626.577 178.813C629.28 172.908 636.29 170.446 642.194 173.149C648.098 175.853 650.561 182.862 647.857 188.767L638.887 208.817C642.827 219.024 652.308 248.783 640.142 275.353C625.765 307.213 586.167 318.912 585.061 319.035C582.355 319.897 578.419 319.776 575.344 317.317V317.317ZM619.969 265.276C625.744 251.745 623.401 235.757 620.568 225.428C610.977 229.859 596.837 238.719 591.061 252.25C585.286 265.781 587.629 281.769 590.462 292.099C600.053 287.667 614.193 278.807 619.969 265.276V265.276Z" fill="#2D2D2D"/>
<path d="M685.344 444.568C682.516 444.323 680.179 443.463 677.718 441.496C675.258 439.529 673.904 437.439 673.534 434.118C672.795 432.52 666.63 392.305 688.881 365.731C706.214 345.308 734.13 339.394 746.921 338.528L761.672 320.074C765.606 315.153 773.354 314.289 778.275 318.223C783.196 322.157 784.06 329.905 780.126 334.826L766.358 352.049C767.592 363.118 768.834 394.356 750.026 416.625C728.39 443.69 687.569 444.33 685.344 444.568V444.568ZM707.95 380.974C698.607 392.662 697.015 408.528 697.142 419.72C707.595 417.994 723.828 412.822 732.679 401.75C742.021 390.062 743.614 374.196 743.487 363.004C733.033 364.73 716.801 369.902 707.95 380.974Z" fill="#2D2D2D"/>
<path d="M481.018 335.679L492.096 359.657C494.434 360.517 496.771 361.377 500.338 363.221C498.246 359.532 496.645 355.228 495.045 350.924C488.147 324.238 503.387 295.084 509.409 283.767L507.556 262.121C506.815 255.48 511.241 249.944 517.882 249.204C524.523 248.463 530.059 252.889 530.799 259.53L532.282 277.854C544.583 282.646 567.217 294.69 573.253 318.671C573.623 321.991 574.485 324.697 574.855 328.017C577.437 326.048 580.019 324.08 583.217 322.603C606.088 311.648 630.198 321.847 641.515 327.869L656.639 317.778C661.803 313.84 669.797 315.19 673.243 320.969C677.181 326.133 675.831 334.128 670.052 337.574L650.871 351.479C646.079 363.779 633.669 393.178 609.69 404.257C605.386 405.857 601.082 407.458 597.27 408.443C600.838 410.286 603.79 411.638 605.635 413.113L631.091 405.232C637.608 403.385 643.636 407.195 645.975 413.098C647.823 419.615 644.012 425.643 638.11 427.982L612.654 435.863C607.371 448.779 595.328 476.456 572.457 487.411C570.367 488.765 568.153 489.011 565.448 489.873C571.844 491.962 577.256 495.28 580.824 497.124L606.894 489.734C613.412 487.887 619.44 491.697 621.779 497.6C623.626 504.118 619.816 510.146 613.914 512.485L587.843 519.874C582.191 534.512 567.445 568.093 540.27 580.648C505.225 598.003 466.965 571.452 465.735 570.469L464.505 569.486L463.398 569.609C462.291 569.732 444.948 564.943 428.954 552.158C419.112 544.29 410.622 533.471 406.804 519.329C399.044 489.937 415.512 456.724 423.009 443.562L412.546 420.075C410.207 414.172 412.787 407.161 418.69 404.822C424.592 402.483 431.604 405.063 433.943 410.965L444.529 435.559C448.588 436.787 453.262 438.507 458.675 441.826C457.322 439.736 457.075 437.522 456.213 434.817C449.562 410.345 463.203 381.929 469.717 369.997L459.254 346.51C456.915 340.607 459.495 333.596 465.397 331.257C471.677 327.185 478.688 329.765 481.027 335.668L481.018 335.679ZM495.095 482.029C496.204 486.948 496.821 492.483 496.823 497.525C500.388 494.326 505.061 491.003 509.856 488.788C513.054 487.311 516.866 486.325 520.678 485.34C512.436 481.777 507.515 477.843 507.024 478.458L505.793 477.474C505.178 476.983 498.906 476.001 491.156 471.823C492.633 475.02 494.11 478.217 495.095 482.029V482.029ZM589.038 430.092C580.797 426.529 567.389 421.86 555.708 427.645C542.919 433.553 533.087 450.899 528.787 462.584C537.028 466.148 550.436 470.816 562.117 465.031C574.414 459.738 584.246 442.393 589.038 430.092ZM537.13 411.787C539.712 409.818 542.294 407.849 545.491 406.372C549.795 404.772 554.099 403.171 557.912 402.186C550.285 399.114 545.364 395.18 545.364 395.18L544.134 394.197C543.519 393.705 537.738 392.108 530.111 389.037C532.203 392.725 533.804 397.029 535.404 401.333C536.39 405.146 536.76 408.466 537.13 411.787V411.787ZM550.503 325.69C547.423 313.146 535.368 305.526 526.511 301.47C520.489 312.788 513.609 331.484 517.918 345.011C520.998 357.555 533.054 365.176 541.91 369.231C547.317 357.422 554.197 338.725 550.503 325.69ZM593.556 344.982C580.768 350.891 570.935 368.236 566.635 379.921C574.877 383.485 588.284 388.153 599.966 382.368C612.754 376.46 622.587 359.115 626.887 347.429C618.645 343.866 605.238 339.198 593.556 344.982V344.982ZM529.438 558.884C545.916 550.883 557.468 528.864 563.12 514.226C553.033 509.187 534.951 502.799 520.073 510.061C504.087 517.446 492.043 540.081 486.391 554.719C496.478 559.757 514.56 566.146 529.438 558.884ZM429.554 512.309C433.619 528.665 450.349 538.006 460.928 542.43C467.81 528.775 477.517 505.281 472.222 487.941C468.157 471.586 451.427 462.245 440.848 457.821C433.966 471.476 424.874 495.462 429.554 512.309ZM479.455 427.182C482.534 439.726 494.59 447.347 503.447 451.402C509.469 440.085 516.349 421.388 512.039 407.861C508.96 395.317 496.904 387.696 488.047 383.641C482.64 395.45 475.76 414.147 479.455 427.182Z" fill="#2D2D2D"/>
<path d="M394.15 234.985C400.3 234.859 405.959 240.392 406.085 246.541L405.846 264.497C417.163 270.519 438.937 284.901 442.759 309.128C447.937 340.488 422.491 373.581 420.156 377.764C417.205 381.455 411.795 383.179 407.12 381.459C406.505 380.967 395.435 377.158 384.362 368.308C374.52 360.44 365.415 349.129 361.965 333.265C357.281 306.332 375.473 278.53 382.725 268.196L383.086 246.304C381.853 240.278 387.386 234.618 394.15 234.985V234.985ZM385.085 329.566C387.058 342.233 398.622 350.469 406.496 355.754C413.133 344.929 421.858 327.707 419.147 313.441C417.174 300.774 405.61 292.539 397.737 287.253C391.715 298.57 382.989 315.792 385.085 329.566Z" fill="#2D2D2D"/>
<path d="M861.047 643.495C886.137 642.379 904.346 659.959 912.713 669.672L930.79 665.975C936.816 664.743 943.951 668.43 944.692 675.071C945.432 681.712 942.237 688.232 935.596 688.972L914.321 694.146C906.33 702.881 882.11 726.873 855.423 728.728C839.312 729.964 826.149 722.467 816.307 714.6C805.235 705.749 799.081 695.789 798.466 695.297C795.759 691.117 796.249 685.459 799.199 681.768C802.149 678.078 829.317 645.352 861.047 643.495V643.495ZM853.814 704.254C867.712 703.265 883.204 691.452 892.301 682.593C885.903 675.463 874.831 666.612 862.04 667.478C848.143 668.467 832.651 680.28 823.553 689.138C829.952 696.269 841.024 705.12 853.814 704.254V704.254Z" fill="#2D2D2D"/>
<path d="M220.63 686.465C295.547 730.22 355.074 731.427 397.98 689.103C396.503 685.906 395.026 682.709 394.532 678.281C393.669 670.533 395.634 663.03 400.551 656.879C407.435 648.267 418.256 644.819 427.973 646.538C438.05 626.364 441.857 610.251 441.857 610.251C442.838 603.978 449.724 600.409 455.997 601.39C462.27 602.372 465.839 609.258 464.858 615.53C464.981 616.637 460.315 635.087 448.886 658.213L455.652 663.622C469.54 637.42 475.805 618.232 475.19 617.74C477.278 611.344 483.672 608.39 489.945 609.371C496.341 611.46 499.295 617.854 498.314 624.127C498.437 625.233 490.944 648.481 474.106 678.374L486.409 688.208C511.858 665.2 533.5 653.261 533.991 652.646C539.77 649.2 546.782 651.78 550.228 657.56C553.674 663.339 551.093 670.35 545.314 673.796C545.314 673.796 526.87 684.257 504.862 702.96L511.629 708.368C531.67 692.126 548.639 683.511 549.746 683.387C555.648 681.048 563.151 683.013 565.49 688.916C567.829 694.818 565.864 702.321 559.962 704.66C559.962 704.66 543.484 712.661 525.534 727.549C525.657 728.656 526.396 730.255 526.519 731.362C527.383 739.11 525.418 746.613 520.501 752.764C514.109 760.761 503.902 764.7 493.694 763.597C460.753 814.896 474.55 873.31 534.347 937.241C538.776 941.79 538.533 949.661 533.984 954.09C529.927 957.905 523.286 958.645 518.365 954.711L517.135 953.728C433.837 864.962 445.249 796.454 472.29 752.536L464.293 746.144C428.644 793.262 414.766 844.677 422.044 899.896C422.784 906.537 418.359 912.073 412.333 913.305C409.013 913.675 405.569 912.939 403.108 910.972C400.648 909.005 399.294 906.915 398.924 903.594C389.922 842.964 406.257 783.432 445.839 731.393L439.688 726.475C397.645 776.548 343.664 804.979 282.049 810.168C278.728 810.538 275.776 809.186 273.931 807.711C271.47 805.744 269.993 802.547 269.623 799.227C268.882 792.586 274.415 786.926 280.564 786.801C336.153 782.844 383.74 757.367 421.234 711.724L413.237 705.332C375.863 741.996 312.042 767.602 207.109 705.903L205.879 704.919C201.573 701.477 199.725 694.96 203.044 689.547C208.085 684.502 214.602 682.655 220.63 686.465V686.465ZM494.299 738.876C494.709 739.204 494.709 739.204 494.299 738.876C496.76 740.843 500.08 740.473 502.047 738.012C503.031 736.782 503.399 735.06 503.275 733.953C503.152 732.846 502.537 732.355 502.414 731.248L427.368 671.258C424.907 669.292 421.587 669.662 419.62 672.122C418.636 673.353 418.268 675.075 418.391 676.181C418.515 677.288 419.253 678.887 420.484 679.87L494.299 738.876V738.876Z" fill="#2D2D2D"/>
<path d="M930.526 618.379L909.124 612.361C907.402 611.992 906.172 611.009 904.942 610.025C901.251 607.075 899.65 602.771 900.755 597.605C902.844 591.209 909.238 588.255 915.511 589.236L936.913 595.255C943.309 597.343 946.755 603.122 945.282 610.01C943.193 616.406 936.923 620.467 930.526 618.379Z" fill="#2D2D2D"/>
<path d="M512.336 219.566C509.876 217.599 507.907 215.017 508.152 212.188L505.684 190.051C504.943 183.41 509.369 177.874 516.01 177.133C522.651 176.393 528.187 180.818 528.928 187.459L531.396 209.596C532.136 216.237 527.711 221.773 521.07 222.514C518.241 222.269 514.797 221.533 512.336 219.566V219.566Z" fill="#2D2D2D"/>
<path d="M485.535 245.526C488.981 251.306 486.401 258.317 480.622 261.763C476.441 264.47 471.275 263.365 467.584 260.415C466.354 259.431 465.124 258.448 464.385 256.849L453.801 237.298C450.355 231.519 452.935 224.508 458.714 221.062C464.493 217.616 471.505 220.196 474.95 225.975L485.535 245.526Z" fill="#2D2D2D"/>
</g>
<defs>
<clipPath id="clip0_402_6881">
<rect width="713.933" height="711.472" fill="white" transform="matrix(-0.781109 -0.624395 -0.624395 0.781109 1075.23 518.859)"/>
</clipPath>
</defs>
</svg>
