<svg width="20" height="20" viewBox="0 0 20 20" fill="none" xmlns="http://www.w3.org/2000/svg">
<g clip-path="url(#clip0_3106_79235)">
<path d="M12.4999 10.8342C12.0391 10.8342 11.6666 11.2075 11.6666 11.6674V15.0008C11.6666 15.46 11.2932 15.8341 10.8332 15.8341H8.33319V3.33423C8.33319 2.62256 7.87986 1.98674 7.19826 1.75007L6.95153 1.66753H10.8332C11.2932 1.66753 11.6666 2.04167 11.6666 2.50095V5.00093C11.6666 5.46082 12.0391 5.8342 12.4999 5.8342C12.9607 5.8342 13.3331 5.46082 13.3331 5.00093V2.50095C13.3331 1.12264 12.2115 0.000976562 10.8332 0.000976562H1.87498C1.84324 0.000976562 1.81669 0.0151671 1.78587 0.0192869C1.74574 0.01593 1.70744 0.000976562 1.6667 0.000976562C0.74752 0.000976562 0 0.748345 0 1.66753V16.6674C0 17.379 0.453334 18.0149 1.13494 18.2515L6.14999 19.9233C6.31997 19.9758 6.48904 20.0008 6.66665 20.0008C7.58583 20.0008 8.33319 19.2533 8.33319 18.3341V17.5008H10.8332C12.2115 17.5008 13.3331 16.3791 13.3331 15.0008V11.6674C13.3331 11.2075 12.9607 10.8342 12.4999 10.8342Z" fill="#A5340F"/>
<path d="M19.7555 7.74439L16.4221 4.41114C16.1839 4.1728 15.8255 4.10108 15.5139 4.23017C15.2031 4.35941 14.9997 4.66352 14.9997 5.00027V7.50025H11.6664C11.2064 7.50025 10.833 7.87347 10.833 8.33352C10.833 8.79357 11.2064 9.1668 11.6664 9.1668H14.9997V11.6668C14.9997 12.0035 15.2031 12.3076 15.5139 12.4369C15.8255 12.566 16.1839 12.4942 16.4221 12.2561L19.7555 8.92266C20.0813 8.59689 20.0813 8.07016 19.7555 7.74439Z" fill="#A5340F"/>
</g>
<defs>
<clipPath id="clip0_3106_79235">
<rect width="20" height="20" fill="#A5340F"/>
</clipPath>
</defs>
</svg>
