<svg width="130" height="128" viewBox="0 0 130 128" fill="none" xmlns="http://www.w3.org/2000/svg">
<path fill-rule="evenodd" clip-rule="evenodd" d="M109.663 102.34C110.431 102.425 110.857 103.026 110.942 103.798L110.944 103.797C110.858 104.484 110.262 104.913 109.664 104.913H109.493C103.578 104.058 99.5904 102.249 96.9343 99.9999H92.9007C94.0378 102.545 95.6751 104.823 97.8059 106.802C98.3179 107.232 98.403 108.091 97.891 108.606C97.6357 108.864 97.2939 109.036 96.9528 109.036C96.6969 109.036 96.3558 108.95 96.0998 108.692C93.4822 106.196 91.5082 103.276 90.2165 100.001H85.2513L85.2514 100.013L85.252 100.031C85.2524 100.041 85.2528 100.051 85.2528 100.061V101.098C85.2528 104.428 82.5612 107.137 79.2525 107.137H53.1985C49.8899 107.137 47.1983 104.428 47.1983 101.098V100.061C47.1983 100.051 47.1987 100.041 47.199 100.031C47.1994 100.021 47.1998 100.011 47.1998 100.001H41.9505C40.6602 102.996 38.7832 105.68 36.3513 107.999C36.096 108.257 35.7542 108.342 35.4982 108.342C35.1572 108.342 34.8161 108.17 34.5601 107.913C34.0481 107.397 34.1332 106.539 34.6452 106.109C36.5806 104.312 38.1099 102.267 39.2264 100.001H34.6348C32.0017 101.925 28.2521 103.454 22.9584 104.22H22.7875C22.1904 104.22 21.5934 103.791 21.5083 103.104C21.5934 102.332 22.0195 101.73 22.7875 101.645C25.9386 101.179 28.6087 100.418 30.7935 99.3602C27.874 98.0704 25.9119 95.3188 25.9119 92.2344V69.0564H26.2633C25.6507 67.5715 25.3592 66.1149 25.2276 65.2741L22.7542 63.9866C22.1564 63.6433 21.9004 62.8703 22.2422 62.2694C22.5833 61.6677 23.3513 61.41 23.9483 61.7541L26.5075 63.128C26.9344 62.956 27.4456 62.7847 28.1285 62.6983C27.9487 62.6381 27.8108 62.5353 27.656 62.4199C27.5904 62.371 27.5218 62.3198 27.4456 62.2686C25.2276 60.637 24.4596 57.2882 24.2036 55.8287L21.7303 54.5411C21.1325 54.1978 20.8765 53.4249 21.2183 52.8239C21.4743 52.0494 22.2415 51.7918 22.8386 52.1351L25.3977 53.4226L25.4043 53.4204L25.4044 53.4204C25.6575 53.3355 25.9127 53.2498 26.3359 53.165C25.9097 52.9929 25.4828 52.7353 25.0566 52.4776C22.6677 50.674 21.9855 47.1539 21.7295 45.78L20.1085 44.0628C19.5965 43.5475 19.5965 42.7752 20.1085 42.2592C20.6205 41.7439 21.3877 41.7439 21.9004 42.2592L23.2647 43.7195C24.6297 43.2906 27.3591 42.7752 29.4921 44.4068C29.6201 44.5357 29.7481 44.6431 29.8761 44.7505C30.0041 44.8579 30.1321 44.9653 30.26 45.0942C30.3451 44.7516 30.431 44.4076 30.6011 44.0643C31.796 41.5741 34.5261 40.8011 35.8903 40.5435L36.4882 38.6542C36.6591 37.9676 37.4263 37.5379 38.1092 37.7956C38.7913 37.9676 39.2182 38.7398 38.9622 39.4272L38.2793 41.9166C38.7062 43.2906 39.6444 46.6394 38.3644 49.2152L38.3579 49.2261C38.1041 49.6514 37.8503 50.0767 37.5965 50.4171C37.6875 50.3988 37.7747 50.3805 37.858 50.363L37.8583 50.3629C38.1647 50.2985 38.4185 50.2451 38.6197 50.2451L40.2407 47.8413C40.6676 47.2396 41.4348 47.1539 42.0326 47.498C42.6304 47.9277 42.7155 48.6999 42.3737 49.3016L40.7527 51.7061C41.1796 53.1657 42.0319 56.3425 40.8378 58.8327C40.778 59.0137 40.6759 59.1524 40.5611 59.3083C40.5126 59.3743 40.4617 59.4434 40.4109 59.52C40.9483 59.3172 41.4854 59.221 41.8978 59.1471L41.898 59.1471C42.0095 59.1271 42.1119 59.1087 42.2028 59.0903L43.9089 56.6865C44.3358 56.0848 45.103 55.9992 45.7008 56.3432C46.2986 56.7729 46.3837 57.5451 46.0419 58.1468L44.3358 60.5514C44.5385 61.2 44.8226 62.2009 45.0002 63.3544H49.7841C49.7937 62.011 49.7982 60.6341 49.7982 59.2222V58.8528C49.7982 55.0143 48.2691 51.697 46.4988 47.8563L46.4988 47.8563L46.4987 47.8562L46.4984 47.8554C43.1158 40.5181 38.9067 31.3862 43.6322 14.1402C43.6514 14.068 43.6773 13.9987 43.7069 13.9317V13.6398C43.7069 13.4536 43.7432 13.269 43.8142 13.0969L44.7161 10.9106C45.9916 7.81793 48.1283 5.20114 50.8954 3.34168C53.6624 1.48297 56.883 0.5 60.2101 0.5H72.0589C75.4475 0.5 78.7176 1.51648 81.518 3.437C84.3161 5.35975 86.4484 8.05474 87.6832 11.2308L88.6953 13.8342C88.7456 13.9295 88.7878 14.0308 88.8174 14.1387C93.5426 31.383 89.3335 40.5149 85.9518 47.852L85.9512 47.8532C84.18 51.695 82.6507 55.0125 82.6507 58.8513L82.6492 59.2192C82.6485 60.6311 82.6537 62.0087 82.6633 63.3529H87.5707C87.7402 62.4943 87.9525 61.7585 88.1138 61.244L86.4077 58.8394C86.0659 58.2377 86.1509 57.4655 86.7487 57.0358C87.3466 56.6917 88.1138 56.7781 88.5407 57.3791L90.2468 59.7836C90.3376 59.802 90.44 59.8204 90.5515 59.8404L90.5516 59.8404L90.5517 59.8404L90.5518 59.8404C90.9643 59.9143 91.5013 60.0105 92.0387 60.2133C91.9879 60.1367 91.9371 60.0677 91.8886 60.0018L91.8884 60.0016C91.7737 59.8457 91.6716 59.707 91.6118 59.526C90.4177 57.0358 91.27 53.859 91.6969 52.3994L90.0759 49.9956C89.7341 49.3939 89.8191 48.6217 90.417 48.192C91.0148 47.848 91.782 47.9336 92.2089 48.5353L93.8299 50.9399C94.0302 50.9399 94.2832 50.993 94.5892 51.0573C94.6732 51.075 94.7612 51.0934 94.8531 51.1119C94.5971 50.7686 94.3411 50.3397 94.0852 49.91C92.8052 47.3342 93.7433 43.9853 94.1702 42.6114L93.4874 40.122C93.2314 39.4346 93.6575 38.6624 94.3404 38.4904C95.0233 38.2327 95.7905 38.6617 95.9614 39.349L96.5592 41.2382C97.9243 41.4959 100.654 42.2696 101.848 44.7591C102.019 45.1016 102.104 45.4457 102.19 45.7889C102.318 45.6601 102.446 45.5527 102.574 45.4453C102.702 45.3379 102.83 45.2304 102.958 45.1016C105.091 43.47 107.82 43.9846 109.185 44.4143L110.549 42.954C111.062 42.4387 111.829 42.4387 112.341 42.954C112.853 43.47 112.853 44.2423 112.341 44.7576L110.72 46.4748C110.464 47.8487 109.781 51.3688 107.393 53.1724C106.967 53.4301 106.541 53.6877 106.114 53.8597C106.534 53.9443 106.789 54.0296 107.042 54.1141L107.052 54.1174L109.611 52.8299C110.208 52.4866 110.975 52.7442 111.231 53.5187C111.572 54.1196 111.316 54.8926 110.719 55.2359L108.246 56.5235C107.99 57.983 107.222 61.3318 105.004 62.9634C104.928 63.0146 104.859 63.0658 104.794 63.1147C104.639 63.2301 104.501 63.3329 104.321 63.3931C105.004 63.4795 105.515 63.6507 105.942 63.8228L108.501 62.4488C109.098 62.1055 109.866 62.3625 110.207 62.9642C110.548 63.5651 110.293 64.3381 109.695 64.6814L107.222 65.9689C107.111 66.6778 106.887 67.8247 106.452 69.0571H106.538V92.2351C106.538 95.5177 104.317 98.4226 101.083 99.591C102.761 100.575 104.654 101.053 107.025 101.651C107.844 101.857 108.719 102.078 109.663 102.34ZM108.075 46.8196C107.051 46.5619 105.516 46.3907 104.407 47.2493C103.212 48.1071 102.53 50.1684 102.189 51.5423C103.213 51.8 104.748 51.9712 105.857 51.1126C107.137 50.254 107.819 48.1935 108.075 46.8196ZM105.772 56.4356C104.748 56.1779 103.213 56.0066 102.104 56.8653C100.824 57.7239 100.142 59.7844 99.8856 61.1583C100.91 61.416 102.445 61.5872 103.554 60.7286C104.749 59.8708 105.431 57.8095 105.772 56.4356ZM100.312 53.5165H100.227V53.5172H100.142C100.142 53.5172 99.4595 53.5172 98.6064 53.2595C98.8624 53.6028 99.1184 54.0318 99.3744 54.4614C99.5446 54.804 99.6304 55.148 99.7155 55.4913C99.9707 55.2344 100.227 54.9768 100.568 54.7191L100.568 54.719C100.994 54.4614 101.42 54.2038 101.847 54.0318C101.365 53.8861 100.965 53.7405 100.692 53.6414L100.692 53.6413L100.692 53.6412C100.483 53.5651 100.349 53.5165 100.312 53.5165ZM99.5435 63.734C98.8739 63.6111 98.3779 63.401 98.118 63.2909L98.118 63.2909C98.014 63.2468 97.9478 63.2188 97.9235 63.2188H97.7534C97.7534 63.1795 97.6095 63.1583 97.3631 63.1218C97.0727 63.0789 96.6399 63.0149 96.1323 62.8755C96.3883 63.2181 96.6443 63.5621 96.8152 63.9054C97.0712 64.4207 97.2421 65.0217 97.3272 65.537C97.6683 65.1081 98.0944 64.6784 98.5213 64.3351C98.8602 64.0785 99.2006 63.9069 99.5402 63.7356L99.5435 63.734ZM99.4595 45.9595C98.8617 44.6719 97.4115 44.1574 96.4734 43.899C96.0473 45.1865 95.7055 47.3334 96.3883 48.7073C96.9861 49.9949 98.4363 50.5102 99.3744 50.7679C99.8005 49.4803 100.142 47.3334 99.4595 45.9595ZM97.0712 55.5762C96.4734 54.2887 95.0233 53.7734 94.0852 53.5157C93.6583 54.8896 93.3172 57.0365 94.0001 58.3241C94.5971 59.6116 96.048 60.1269 96.9861 60.3846C97.4123 59.097 97.7541 56.9501 97.0712 55.5762ZM94.512 65.021C93.7441 63.3894 91.782 62.7028 90.5879 62.4451C90.0759 64.0767 89.5639 66.7382 90.417 68.5418C91.1842 70.1734 93.1463 70.86 94.3411 71.1176C94.8531 69.486 95.3651 66.7382 94.512 65.021ZM87.2866 66.3331H82.6951C82.7232 68.4494 82.7654 70.472 82.8209 72.3992H90.4917C89.5151 71.7789 88.6043 70.9009 88.0287 69.6595C87.5131 68.6224 87.3111 67.4662 87.2866 66.3331ZM52.4565 5.6956C50.1525 7.24304 48.3739 9.42196 47.3122 11.9963V11.9956L46.8484 13.12H50.8473C51.2497 13.12 51.6337 13.2935 51.9001 13.5974C52.1664 13.9012 52.2915 14.3048 52.2426 14.7069C52.2315 14.8015 52.2256 14.8879 52.2256 14.9713V21.928C52.2256 23.1076 53.1786 24.0668 54.3505 24.0668C55.5224 24.0668 56.4753 23.1076 56.4753 21.928V14.9713C56.4753 14.8879 56.4694 14.8015 56.4583 14.7077C56.4095 14.3055 56.5338 13.9019 56.8009 13.5981C57.068 13.2943 57.4512 13.1208 57.8537 13.1208H59.0034C59.1455 13.0753 59.2964 13.05 59.4533 13.05H85.3697L85.0641 12.2636C84.0364 9.62004 82.2615 7.37634 79.9317 5.77603C77.6019 4.17572 74.8792 3.32977 72.0589 3.32977H60.2101C57.4409 3.32977 54.7596 4.14817 52.4565 5.6956ZM46.2069 15.9513C45.2214 19.7663 44.6643 23.2573 44.5097 26.5905H44.5082L44.4963 26.8489L44.6917 27.0164C46.6123 28.6666 49.3742 29.4686 53.1371 29.4686C58.1006 29.4686 63.8992 28.0952 69.507 26.7669L69.5101 26.7662C74.7143 25.533 79.6291 24.3691 83.5311 24.3691C84.9035 24.3691 86.0718 24.5083 87.1024 24.795L87.8415 25.0006L87.7638 24.2328C87.5152 21.7724 87.0432 19.1444 86.3611 16.4212L86.2612 16.022H59.4533C59.397 16.022 59.3415 16.0176 59.2868 16.0116V21.9288C59.2868 24.6685 57.0724 26.8973 54.3505 26.8973C51.6286 26.8973 49.4142 24.6685 49.4142 21.9288V15.9513H46.2069ZM44.5903 31.4592C45.1171 37.7986 47.2738 42.4774 49.1767 46.6051V46.6059L49.1773 46.6073C51.0149 50.5937 52.7509 54.36 52.7509 58.8535V59.2222C52.7524 64.1236 52.7176 68.5455 52.6496 72.4014H79.8511C79.7519 68.6095 79.6964 64.2457 79.6979 59.2236V58.8543C79.6979 54.3615 81.4339 50.5953 83.2715 46.6088L83.2722 46.6073L82.3111 46.1859L83.2722 46.6066C85.4496 41.8831 87.9162 36.5304 87.9814 28.7575L87.9836 28.4775L87.755 28.3189C86.8294 27.6747 85.397 27.3485 83.4978 27.3485C82.9215 27.3485 82.2911 27.3783 81.6245 27.4372C78.3388 27.7268 74.3831 28.664 70.1943 29.6564L70.1915 29.657L70.1819 29.6593L70.1758 29.6607C65.0461 30.8756 59.7421 32.1317 54.9017 32.3952C54.3009 32.4272 53.7157 32.4436 53.1608 32.4436C50.0245 32.4436 47.4654 31.9514 45.3368 30.9379L44.5141 30.5462L44.5903 31.4592ZM71.035 92.5017H74.8445L69.1106 79.4699H65.5038L59.7884 92.5017H63.5247L64.542 89.9512H70.0177L71.035 92.5017ZM42.0319 67.85C42.8849 66.0464 42.373 63.3849 41.861 61.7533C40.6669 62.011 38.7048 62.6976 37.9368 64.3291C37.0837 66.0464 37.5957 68.7942 38.1077 70.4258C39.3026 70.1682 41.2639 69.4816 42.0319 67.85ZM38.4488 57.6323C39.1317 56.3447 38.7906 54.1978 38.3637 52.8239C37.4255 53.0808 35.9754 53.5961 35.3776 54.8844C34.6947 56.2583 35.0366 58.4053 35.4627 59.6928C36.4008 59.4359 37.851 58.9206 38.4488 57.6323ZM35.6329 63.2129C35.8038 62.8703 36.0598 62.5263 36.3158 62.183V62.1822C35.8082 62.3216 35.3754 62.3856 35.085 62.4286L35.0849 62.4286C34.8386 62.465 34.6947 62.4862 34.6947 62.5255H34.5246C34.5003 62.5255 34.4341 62.5536 34.3301 62.5976C34.0702 62.7077 33.5737 62.918 32.9036 63.0409L32.9124 63.0453C33.2498 63.2159 33.5887 63.3871 33.9268 63.6426C34.3529 63.9858 34.7798 64.4148 35.1209 64.8445C35.206 64.3291 35.3769 63.7282 35.6329 63.2129ZM35.9747 43.2072C35.0366 43.4648 33.5864 43.9801 32.9886 45.2677C32.3057 46.6416 32.6476 48.7885 33.0737 50.076C34.0119 49.8191 35.462 49.3038 36.0598 48.0155C36.7427 46.6416 36.4008 44.4947 35.9747 43.2072ZM32.3065 52.8239H32.1363V52.8224C32.0994 52.8224 31.9662 52.8709 31.7574 52.9468C31.485 53.046 31.0841 53.1918 30.6011 53.3377C31.0273 53.5097 31.4542 53.7674 31.8803 54.0251C32.2207 54.2827 32.4767 54.5404 32.7326 54.798C32.8177 54.4555 32.9036 54.1115 33.0737 53.7682L33.0802 53.7572C33.3341 53.3319 33.5879 52.9066 33.8417 52.5662C32.9886 52.8239 32.3065 52.8239 32.3065 52.8239ZM28.0412 46.556C26.9314 45.6966 25.3962 45.8686 24.373 46.1263C24.629 47.5002 25.3119 49.5607 26.5911 50.4193C27.7009 51.2787 29.2361 51.1067 30.2593 50.849C29.9182 49.4751 29.2353 47.4146 28.0412 46.556ZM30.3444 56.172C29.2346 55.3126 27.6994 55.4846 26.6762 55.7423C27.0173 57.1162 27.7001 59.1767 28.8943 60.0353C30.0041 60.8947 31.5393 60.7227 32.5625 60.465C32.3065 59.0911 31.6236 57.0306 30.3444 56.172ZM27.6994 65.2734C28.0412 66.905 28.8943 69.5665 30.4295 70.6827C31.8796 71.799 33.9275 71.4557 35.1216 71.1124C34.7806 69.4808 34.0126 66.8193 32.3916 65.7031C30.9415 64.5861 28.8935 64.9301 27.6994 65.2734ZM37.8983 88.6942C37.5839 88.365 37.3368 87.9711 37.1585 87.5116C36.9802 87.0529 36.8906 86.5436 36.8906 85.9851C36.8906 85.4266 36.9794 84.9179 37.1585 84.4585C37.3368 83.999 37.5839 83.6051 37.8983 83.2759C38.2135 82.9475 38.5923 82.6966 39.0362 82.5223C39.4801 82.3488 39.9669 82.2617 40.4974 82.2617C41.1012 82.2617 41.656 82.392 42.1621 82.6526C42.6674 82.9133 43.1298 83.2923 43.5493 83.7883L45.8799 81.6659C45.251 80.8595 44.4645 80.2488 43.5212 79.8326C42.5772 79.4163 41.5073 79.2085 40.3117 79.2085C39.2878 79.2085 38.3444 79.3731 37.4818 79.7015C36.6184 80.0306 35.8659 80.4961 35.2252 81.0978C34.5838 81.7002 34.0844 82.4173 33.727 83.2484C33.3689 84.0802 33.1906 84.9917 33.1906 85.9851C33.1906 86.9785 33.3689 87.8907 33.727 88.7217C34.0844 89.5535 34.5838 90.2707 35.2252 90.8724C35.8659 91.4748 36.6184 91.9402 37.4818 92.2686C38.3444 92.597 39.2878 92.7616 40.3117 92.7616C41.5081 92.7616 42.5772 92.5501 43.5212 92.1286C44.4653 91.7071 45.251 91.0928 45.8799 90.2856L43.5493 88.1632C43.1298 88.6726 42.6674 89.0568 42.1621 89.3175C41.656 89.5781 41.1012 89.7084 40.4974 89.7084C39.9669 89.7084 39.4801 89.6221 39.0362 89.4478C38.5923 89.2743 38.2128 89.0233 37.8983 88.6942ZM44.4194 68.967C43.5826 70.7706 42.0393 71.8072 40.6143 72.3999H49.6265C49.682 70.4735 49.7234 68.4502 49.7523 66.3338H45.1237C45.0416 67.2393 44.83 68.1411 44.4194 68.967ZM53.4996 79.4691H47.5993V92.501V92.5017H51.2616V89.039H53.2422L55.5897 92.5017H59.511L56.7173 88.4038C57.5089 88.0292 58.123 87.5087 58.5588 86.8422C59.0219 86.1347 59.2528 85.2538 59.2528 84.273C59.2528 83.2923 59.0219 82.4397 58.5588 81.7129C58.0956 80.9861 57.4327 80.4313 56.57 80.0463C55.7066 79.662 54.6834 79.4691 53.4996 79.4691ZM79.2503 104.308C81.009 104.308 82.4391 102.868 82.4391 101.098H82.4384V100.062C82.4384 100.052 82.438 100.042 82.4376 100.032C82.4374 100.026 82.4372 100.021 82.4371 100.015C82.437 100.01 82.4369 100.006 82.4369 100.001H50.009C50.009 100.012 50.0086 100.022 50.0082 100.033C50.0079 100.042 50.0075 100.052 50.0075 100.062V101.098C50.0075 102.868 51.4384 104.308 53.1963 104.308H79.2503ZM79.635 82.3362H86.1088V79.4691H75.9728V92.501H79.635V88.0329H85.3319V85.1845H79.635V82.3362ZM94.4137 82.392H98.3719V79.4691H86.7746V82.392H90.7514V92.501H94.4137V82.392ZM100.057 66.3971C98.4355 67.5134 97.6675 70.1749 97.3265 71.8064C98.5206 72.1497 100.569 72.493 102.019 71.3768C103.554 70.2605 104.407 67.599 104.749 65.9674C103.555 65.6241 101.507 65.2808 100.057 66.3971ZM28.9794 43.9794C28.8085 43.8937 24.8843 41.9188 23.9462 38.2267L23.9476 38.2275C23.2648 35.3933 24.5447 32.5598 25.2269 31.3579C25.2269 31.3151 25.2057 31.2937 25.1845 31.2723C25.1631 31.2507 25.1418 31.2291 25.1418 31.1858L24.544 28.8677C24.3731 28.1811 24.7992 27.4937 25.4821 27.3225C26.1643 27.1504 26.8471 27.5794 27.0173 28.2667L27.6151 30.5849C28.6383 31.1858 31.4535 33.0743 32.2215 36.1655C33.1596 39.8568 30.6004 43.5497 30.5153 43.6353C30.3452 43.893 30.0041 44.1514 29.5772 44.1514C29.4063 44.1514 29.1503 44.0657 28.9794 43.9794ZM29.8325 36.6808C29.4063 35.1356 28.1264 33.9329 27.1882 33.2463C26.6762 34.2762 26.0792 35.9942 26.5053 37.5394C26.9315 39.0846 28.2114 40.2873 29.1496 40.9739C29.6616 39.944 30.2594 38.2267 29.8325 36.6808ZM102.871 44.8455C103.042 44.8454 103.298 44.7598 103.469 44.6734C103.64 44.5878 107.563 42.6129 108.502 38.9208C109.185 36.0873 107.904 33.2538 107.223 32.0519C107.223 32.0092 107.244 31.9878 107.265 31.9663C107.287 31.9448 107.308 31.9232 107.308 31.8799L107.905 29.5617C108.076 28.8744 107.649 28.1878 106.967 28.0165C106.284 27.8445 105.602 28.2742 105.432 28.9608L104.834 31.279C103.811 31.8807 100.995 33.7684 100.228 36.8596C99.2894 40.5517 101.849 44.2438 101.934 44.3294C102.104 44.587 102.445 44.8453 102.871 44.8455ZM102.615 37.3749C103.042 35.8297 104.321 34.627 105.259 33.9404C105.771 34.9703 106.368 36.6883 105.942 38.2335C105.515 39.7787 104.236 40.9813 103.298 41.6679C102.786 40.638 102.189 38.9208 102.615 37.3749ZM94.7119 34.799H94.541C93.7737 34.7134 93.3468 34.0268 93.5177 33.3402L93.8588 30.9364C93.9439 30.1634 94.626 29.7345 95.3089 29.8201C95.9911 29.9914 96.418 30.5924 96.3322 31.2789L95.9911 33.6828C95.906 34.3694 95.3097 34.799 94.7119 34.799ZM72.5362 40.504C73.0622 40.504 73.5786 40.2895 73.9508 39.9142C74.3237 39.5396 74.5368 39.0206 74.5368 38.4904C74.5368 37.9609 74.3237 37.4411 73.9508 37.0666C73.5786 36.6912 73.063 36.4768 72.5362 36.4768C72.0094 36.4768 71.4937 36.6912 71.1216 37.0666C70.7494 37.4411 70.5356 37.9602 70.5356 38.4904C70.5356 39.0206 70.7502 39.5396 71.1216 39.9142C71.4937 40.2895 72.0094 40.504 72.5362 40.504ZM61.209 48.7587C60.8369 49.1333 60.3204 49.3485 59.7944 49.3485C59.2676 49.3485 58.752 49.1333 58.3798 48.7587C58.0069 48.3842 57.7938 47.8651 57.7938 47.3349C57.7938 46.8047 58.0069 46.2857 58.3798 45.9111C58.752 45.5358 59.2676 45.3213 59.7944 45.3213C60.3212 45.3213 60.8376 45.535 61.209 45.9111C61.5812 46.2857 61.795 46.8047 61.795 47.3349C61.795 47.8651 61.5812 48.3842 61.209 48.7587ZM60.3796 58.9623C60.0075 59.3376 59.7944 59.8559 59.7944 60.3868C59.7944 60.9178 60.0075 61.4361 60.3796 61.8106C60.7525 62.1852 61.2674 62.4004 61.795 62.4004C62.3225 62.4004 62.8374 62.1852 63.2096 61.8106C63.5817 61.4361 63.7955 60.917 63.7955 60.3868C63.7955 59.8566 63.5817 59.3376 63.2096 58.9623C62.8382 58.5884 62.3217 58.3732 61.795 58.3732C61.2682 58.3732 60.7525 58.5877 60.3796 58.9623ZM13.1109 84.0891C13.438 83.964 13.7228 83.7875 13.9647 83.5604C14.2067 83.3333 14.3946 83.0652 14.5278 82.7569C14.6617 82.4486 14.7283 82.109 14.7283 81.7382C14.7283 81.3673 14.6602 81.0352 14.5241 80.7291C14.3879 80.4231 14.2 80.1565 13.961 79.9294C13.7213 79.7022 13.438 79.5257 13.1109 79.4006C12.7839 79.2755 12.4266 79.213 12.0396 79.213C11.6527 79.213 11.2953 79.2755 10.9683 79.4006C10.6413 79.5257 10.3579 79.703 10.1182 79.9331C9.87851 80.1624 9.69059 80.4305 9.55519 80.7366C9.41906 81.0426 9.351 81.3763 9.351 81.7382C9.351 82.1001 9.41906 82.4419 9.55519 82.7502C9.69133 83.0585 9.87925 83.3273 10.1182 83.5574C10.3579 83.7868 10.642 83.9648 10.972 84.0899C11.3013 84.215 11.6571 84.2775 12.0396 84.2775C12.4221 84.2775 12.7839 84.215 13.1109 84.0899V84.0891ZM11.1067 82.7569C10.9868 82.634 10.8943 82.4881 10.83 82.319C10.7656 82.15 10.733 81.9586 10.733 81.7449C10.733 81.5312 10.7649 81.3405 10.83 81.1707C10.8943 81.0017 10.9868 80.8557 11.1067 80.7321C11.2265 80.6093 11.3656 80.5154 11.5247 80.4506C11.6838 80.3858 11.8554 80.3531 12.0396 80.3531C12.2239 80.3531 12.3955 80.3858 12.5546 80.4506C12.7136 80.5154 12.852 80.6093 12.9689 80.7321C13.0865 80.855 13.1783 81.001 13.2456 81.1707C13.3122 81.3398 13.3455 81.5312 13.3455 81.7449C13.3455 81.9586 13.3122 82.1492 13.2456 82.319C13.179 82.4881 13.0865 82.634 12.9689 82.7569C12.8513 82.8798 12.7129 82.9736 12.5546 83.0384C12.3962 83.1032 12.2239 83.1359 12.0396 83.1359C11.8554 83.1359 11.6838 83.1032 11.5247 83.0384C11.3656 82.9736 11.2265 82.8798 11.1067 82.7569ZM0 84.1792H1.36873V82.5097H3.4973V81.4455H1.36873V80.3814H3.78732V79.3098H0V84.1792ZM20.7973 120.491C20.3593 120.212 19.8814 119.988 19.3635 119.821C18.8456 119.653 18.3247 119.514 17.8009 119.402C17.2763 119.291 16.7991 119.182 16.3671 119.076C15.935 118.971 15.5836 118.834 15.3128 118.667C15.0412 118.499 14.9058 118.266 14.9058 117.968C14.9058 117.77 14.9732 117.584 15.1093 117.41C15.2447 117.236 15.4667 117.093 15.7752 116.981C16.083 116.87 16.4899 116.814 16.9959 116.814C17.5627 116.814 18.1486 116.895 18.7531 117.056C19.3568 117.218 19.9672 117.472 20.5842 117.819L21.694 115.101C21.0651 114.717 20.3408 114.428 19.5203 114.236C18.6998 114.044 17.8645 113.947 17.0137 113.947C15.7434 113.947 14.6832 114.14 13.8323 114.524C12.9815 114.909 12.3459 115.418 11.9272 116.051C11.5077 116.684 11.2983 117.385 11.2983 118.154C11.2983 118.85 11.4307 119.427 11.6964 119.886C11.9612 120.345 12.3097 120.717 12.741 121.003C13.1724 121.289 13.6533 121.518 14.1837 121.692C14.7135 121.866 15.2351 122.005 15.7463 122.11C16.2576 122.216 16.7325 122.327 17.1705 122.445C17.6078 122.564 17.9629 122.706 18.2345 122.873C18.5052 123.041 18.6414 123.267 18.6414 123.552C18.6414 123.776 18.5704 123.969 18.4283 124.13C18.2862 124.291 18.0643 124.416 17.7624 124.502C17.4598 124.589 17.0507 124.632 16.5328 124.632C15.7804 124.632 15.025 124.512 14.2674 124.269C13.5097 124.026 12.8402 123.719 12.2609 123.347L11.0586 126.084C11.6623 126.493 12.4554 126.831 13.435 127.098C14.4146 127.364 15.4415 127.499 16.5143 127.499C17.7965 127.499 18.8633 127.306 19.7142 126.921C20.565 126.537 21.2028 126.025 21.6289 125.386C22.0543 124.747 22.2667 124.048 22.2667 123.292C22.2667 122.61 22.1305 122.042 21.8597 121.588C21.5882 121.135 21.2338 120.769 20.7958 120.49L20.7973 120.491ZM27.1504 117.13H31.1272V127.239H34.7894V117.13H38.7477V114.208H27.1504V117.13ZM53.9517 114.45C54.8269 114.785 55.5853 115.257 56.2268 115.864C56.8682 116.473 57.3706 117.186 57.7346 118.005C58.0986 118.825 58.2806 119.712 58.2806 120.705C58.2806 121.697 58.1015 122.607 57.7442 123.432C57.3861 124.258 56.8837 124.975 56.2364 125.582C55.5883 126.191 54.8269 126.662 53.9517 126.997C53.0757 127.332 52.108 127.5 51.0848 127.5C50.0615 127.5 49.1086 127.332 48.2274 126.997C47.3455 126.662 46.5835 126.188 45.9428 125.574C45.3013 124.959 44.7982 124.24 44.4349 123.414C44.0709 122.588 43.8889 121.673 43.8889 120.705C43.8889 119.737 44.0709 118.843 44.4349 118.024C44.799 117.205 45.3013 116.488 45.9428 115.873C46.5835 115.26 47.3418 114.785 48.2178 114.45C49.0931 114.114 50.049 113.947 51.0848 113.947C52.1206 113.947 53.0757 114.114 53.9517 114.45ZM53.5722 123.433C53.8866 123.104 54.133 122.713 54.312 122.26C54.4903 121.807 54.5798 121.295 54.5798 120.724C54.5798 120.154 54.4903 119.642 54.312 119.189C54.133 118.736 53.8866 118.345 53.5722 118.016C53.2577 117.687 52.8878 117.436 52.4624 117.262C52.0377 117.089 51.5775 117.002 51.0848 117.002C50.592 117.002 50.1326 117.089 49.7071 117.262C49.2825 117.436 48.9088 117.687 48.5885 118.016C48.2674 118.345 48.021 118.736 47.8486 119.189C47.6755 119.641 47.5897 120.154 47.5897 120.724C47.5897 121.295 47.6755 121.807 47.8486 122.26C48.021 122.713 48.2674 123.104 48.5885 123.433C48.9088 123.761 49.2817 124.013 49.7071 124.186C50.1318 124.36 50.592 124.447 51.0848 124.447C51.5775 124.447 52.037 124.36 52.4624 124.186C52.8878 124.013 53.2577 123.762 53.5722 123.433ZM75.8056 121.58C76.268 120.872 76.4996 120.016 76.4996 119.011C76.4996 118.005 76.2687 117.177 75.8056 116.451C75.3424 115.724 74.6803 115.169 73.8169 114.784C72.9534 114.4 71.9302 114.207 70.7465 114.207H64.8461V127.239H68.5084V123.776H70.489L72.8365 127.239H76.7578L73.9641 123.141C74.7557 122.766 75.3698 122.246 75.8056 121.579V121.58ZM72.2454 117.624C72.6272 117.966 72.8188 118.428 72.8188 119.011C72.8188 119.594 72.6272 120.09 72.2454 120.426C71.8629 120.761 71.2895 120.928 70.5252 120.928H68.5091V117.112H70.5252C71.2895 117.112 71.8629 117.282 72.2454 117.624ZM83.1575 114.208H86.8198V127.239H83.1575V114.208ZM97.658 121.989H103.41V119.253H97.658V117.075H104.187V114.208H94.0512V127.239H104.428V124.372H97.658V121.989ZM118.485 119.821C119.003 119.988 119.481 120.212 119.919 120.491L119.917 120.49C120.355 120.769 120.71 121.135 120.981 121.588C121.252 122.042 121.388 122.61 121.388 123.292C121.388 124.048 121.176 124.747 120.75 125.386C120.324 126.025 119.686 126.537 118.836 126.921C117.985 127.306 116.918 127.499 115.636 127.499C114.563 127.499 113.536 127.364 112.556 127.098C111.577 126.831 110.784 126.493 110.18 126.084L111.382 123.347C111.962 123.719 112.631 124.026 113.389 124.269C114.146 124.512 114.902 124.632 115.654 124.632C116.172 124.632 116.581 124.589 116.884 124.502C117.186 124.416 117.408 124.291 117.55 124.13C117.692 123.969 117.763 123.776 117.763 123.552C117.763 123.267 117.627 123.041 117.356 122.873C117.084 122.706 116.729 122.564 116.292 122.445C115.854 122.327 115.379 122.216 114.868 122.11C114.357 122.005 113.835 121.866 113.305 121.692C112.775 121.518 112.294 121.289 111.863 121.003C111.431 120.717 111.083 120.345 110.818 119.886C110.552 119.427 110.42 118.85 110.42 118.154C110.42 117.385 110.629 116.684 111.049 116.051C111.467 115.418 112.103 114.909 112.954 114.524C113.805 114.14 114.865 113.947 116.135 113.947C116.986 113.947 117.821 114.044 118.642 114.236C119.462 114.428 120.187 114.717 120.815 115.101L119.706 117.819C119.089 117.472 118.478 117.218 117.875 117.056C117.27 116.895 116.684 116.814 116.117 116.814C115.611 116.814 115.204 116.87 114.897 116.981C114.588 117.093 114.366 117.236 114.231 117.41C114.095 117.584 114.027 117.77 114.027 117.968C114.027 118.266 114.163 118.499 114.434 118.667C114.705 118.834 115.056 118.971 115.489 119.076C115.921 119.182 116.398 119.291 116.922 119.402C117.446 119.514 117.967 119.653 118.485 119.821ZM8.81829 81.1045C8.81829 81.4798 8.73247 81.8 8.55934 82.0644C8.39657 82.3138 8.16648 82.5074 7.87053 82.6474L8.91521 84.1792H7.4503L6.57283 82.885H5.83297V84.1792H4.46424V79.3098H6.66901C7.11144 79.3098 7.49395 79.382 7.81652 79.5257C8.1391 79.6695 8.38621 79.8772 8.55934 80.1483C8.73173 80.4194 8.81829 80.7291 8.81829 81.1045ZM7.44364 81.1045C7.44364 80.8863 7.37187 80.7135 7.22908 80.5862C7.08629 80.4588 6.87173 80.3948 6.58614 80.3948H5.83297V81.8208H6.58614C6.87173 81.8208 7.08629 81.7583 7.22908 81.6332C7.37187 81.5081 7.44364 81.3227 7.44364 81.1045ZM17.9763 83.6997L16.7392 81.6682V84.1792H15.4815V79.3098H16.6083L18.3048 82.1232L19.9672 79.3098H21.0933L21.1007 84.1792H19.8422L19.8304 81.5959L18.5844 83.6997H17.9763ZM11.2451 87.6576V90.3638C11.2451 91.0824 11.4441 91.6394 11.8429 92.0333C12.2417 92.4273 12.798 92.6246 13.512 92.6246C14.2259 92.6246 14.7779 92.4273 15.1811 92.0333C15.5843 91.6394 15.7856 91.0824 15.7856 90.3638V87.6576H14.4309V90.3221C14.4309 90.7346 14.3517 91.0318 14.1927 91.2127C14.0336 91.3937 13.8116 91.4838 13.5253 91.4838C13.239 91.4838 13.0163 91.3937 12.855 91.2127C12.6937 91.0318 12.6131 90.7354 12.6131 90.3221V87.6576H11.2451ZM19.877 91.5739H17.8313H17.8305L17.4502 92.5271H16.0541L18.1901 87.6576H19.5381L21.6807 92.5271H20.2573L19.877 91.5739ZM18.8545 89.0085L18.2338 90.5656H19.4752L18.8545 89.0085ZM116.316 84.1792L117.884 79.3098H116.578L115.565 82.4471L114.588 79.3098H113.33L112.306 82.4181L111.333 79.3098H109.923L111.492 84.1792H112.963L113.921 81.2065L114.851 84.1792H116.316ZM118.409 79.3098H119.778V84.1792H118.409V79.3098ZM123.172 84.1792V80.4022H124.651V79.3098H120.318V80.4022H121.803V84.1792H123.172ZM128.424 82.2803H126.565V84.1792H125.197V79.3098H126.565V81.1395H128.424V79.3098H129.793V84.1792H128.424V82.2803ZM111.028 87.6576V92.5271H114.698V91.4354H112.397V87.6576H111.028ZM116.561 92.4369C116.231 92.3118 115.947 92.1338 115.708 91.9045V91.9052C115.469 91.6751 115.281 91.4063 115.144 91.098C115.008 90.7897 114.94 90.4479 114.94 90.086C114.94 89.7241 115.008 89.3904 115.144 89.0844C115.28 88.7783 115.468 88.5102 115.708 88.2809C115.947 88.0508 116.231 87.8736 116.558 87.7484C116.885 87.6233 117.242 87.5608 117.629 87.5608C118.016 87.5608 118.373 87.6233 118.7 87.7484C119.027 87.8736 119.311 88.05 119.55 88.2772C119.789 88.5043 119.977 88.7709 120.113 89.0769C120.249 89.383 120.318 89.7151 120.318 90.086C120.318 90.4568 120.251 90.7964 120.117 91.1047C119.984 91.413 119.796 91.6811 119.554 91.9082C119.312 92.1353 119.027 92.3118 118.7 92.4369C118.373 92.562 118.011 92.6246 117.629 92.6246C117.246 92.6246 116.891 92.562 116.561 92.4369ZM116.696 89.0807C116.576 89.2035 116.484 89.3495 116.419 89.5185C116.354 89.6883 116.322 89.879 116.322 90.0927C116.322 90.3064 116.355 90.4978 116.419 90.6668C116.484 90.8359 116.576 90.9818 116.696 91.1047C116.816 91.2276 116.955 91.3214 117.114 91.3862C117.273 91.451 117.445 91.4837 117.629 91.4837C117.813 91.4837 117.985 91.451 118.144 91.3862C118.302 91.3214 118.441 91.2276 118.558 91.1047C118.676 90.9826 118.768 90.8359 118.835 90.6668C118.901 90.497 118.935 90.3064 118.935 90.0927C118.935 89.879 118.901 89.6876 118.835 89.5185C118.768 89.3495 118.676 89.2035 118.558 89.0807C118.441 88.9578 118.303 88.864 118.144 88.7992C117.985 88.7344 117.813 88.7016 117.629 88.7016C117.445 88.7016 117.273 88.7344 117.114 88.7992C116.955 88.864 116.816 88.9578 116.696 89.0807ZM123.107 90.8337L121.789 87.6576H120.318L122.384 92.5271H123.731L125.805 87.6576H124.45L123.107 90.8337ZM127.47 90.5656V91.4562H130V92.5271H126.122V87.6576H129.91V88.7292H127.47V89.5431H129.62V90.5656H127.47ZM73.9508 54.2477C73.5786 54.6223 73.0622 54.8375 72.5362 54.8375C72.0094 54.8375 71.493 54.6223 71.1216 54.2477C70.7494 53.8732 70.5356 53.3549 70.5356 52.8239C70.5356 52.293 70.7494 51.7747 71.1216 51.3993C71.4937 51.0248 72.0094 50.8103 72.5362 50.8103C73.063 50.8103 73.5786 51.0248 73.9508 51.3993C74.3237 51.7747 74.5368 52.2937 74.5368 52.8239C74.5368 53.3541 74.3237 53.8724 73.9508 54.2477ZM71.9458 68.1031C72.4718 68.1031 72.9882 67.8879 73.3604 67.5134C73.7325 67.1388 73.9464 66.6198 73.9464 66.0895C73.9464 65.5593 73.7325 65.0403 73.3604 64.665C72.989 64.2912 72.4726 64.0759 71.9458 64.0759C71.419 64.0759 70.9033 64.2904 70.5304 64.665C70.1583 65.0403 69.9452 65.5586 69.9452 66.0895C69.9452 66.6205 70.1583 67.1388 70.5304 67.5134C70.9033 67.8879 71.4183 68.1031 71.9458 68.1031ZM110.062 59.4917C110.587 58.3951 112.228 54.9698 115.062 53.8598L115.061 53.8605C117.53 52.8738 120.073 54.1174 121.259 54.8442L122.919 53.824C123.499 53.4941 124.327 53.7175 124.655 54.3014C125.063 54.9157 124.841 55.749 124.211 55.9679L122.19 57.2183C121.628 58.473 120.04 61.7243 117.271 62.781C115.602 63.3387 114.046 63.1131 112.769 62.6268C111.606 62.1838 110.752 61.5578 110.426 61.3191C110.349 61.2629 110.302 61.2282 110.287 61.2224C109.868 60.8791 109.73 60.2759 109.911 59.7941C109.942 59.7413 109.992 59.6369 110.062 59.4917ZM116.341 60.4062C117.74 59.8373 118.864 58.062 119.587 56.8683C118.659 56.4229 117.253 55.7959 115.963 56.315C114.484 56.8534 113.361 58.6287 112.718 59.8529C113.645 60.2982 115.051 60.9252 116.341 60.4062ZM114.814 40.8101C115.156 40.8101 115.497 40.7244 115.668 40.4668L117.374 38.7495C117.886 38.2342 117.886 37.462 117.374 36.9459C116.862 36.4306 116.094 36.4306 115.582 36.9459L113.876 38.6632C113.364 39.1785 113.364 39.9507 113.876 40.4668C114.132 40.638 114.473 40.8101 114.814 40.8101H114.814ZM114.644 46.5627C114.388 45.8753 114.644 45.1031 115.326 44.8454L117.545 43.9012C118.227 43.6443 118.995 43.9012 119.251 44.5885C119.506 45.2759 119.251 46.0481 118.568 46.3057L116.35 47.25C116.179 47.3356 116.009 47.3356 115.838 47.3356C115.326 47.3356 114.814 47.078 114.644 46.5627ZM36.4571 32.9887C36.5422 33.676 37.1393 34.105 37.7363 34.105H37.9072C38.6752 34.0193 39.1014 33.332 38.9305 32.6461L38.5894 30.2416C38.5043 29.4686 37.8214 29.0397 37.1393 29.1253C36.4564 29.2966 36.0302 29.8983 36.1161 30.5841L36.4571 32.9887ZM16.7806 39.7727C16.9515 40.0304 17.2934 40.116 17.6337 40.116C17.9755 40.116 18.3166 39.944 18.5718 39.7727C19.0838 39.2567 19.0838 38.4844 18.5718 37.9691L16.8657 36.2519C16.353 35.7366 15.5858 35.7366 15.0738 36.2519C14.5618 36.7679 14.5618 37.5402 15.0738 38.0555L16.7799 39.7727H16.7806ZM16.0985 46.5552L13.8804 45.611C13.1976 45.3533 12.9416 44.5803 13.1976 43.8938C13.4535 43.2064 14.2215 42.9488 14.9037 43.2064L17.1217 44.1507C17.8046 44.4083 18.0606 45.1813 17.8046 45.8679C17.6337 46.3832 17.1225 46.6409 16.6105 46.6409C16.4396 46.6409 16.2694 46.6409 16.0985 46.5552ZM8.12364 55.2977L10.1442 56.548C10.7065 57.8028 12.2942 61.0541 15.0627 62.1108C16.7319 62.6685 18.2885 62.4429 19.5655 61.9566C20.7278 61.5136 21.5823 60.8877 21.9083 60.649L21.9083 60.6489L21.9084 60.6488C21.9851 60.5927 22.0325 60.558 22.0477 60.5522C22.4665 60.2089 22.6041 59.6057 22.4228 59.1239C22.3925 59.0714 22.3429 58.9679 22.274 58.8239L22.274 58.8238L22.2739 58.8238C21.7502 57.7296 20.1089 54.3003 17.2734 53.1895C14.8045 52.2021 12.2624 53.4457 11.0757 54.1733L9.41543 53.1531C8.83539 52.8232 8.00675 53.0466 7.67899 53.6304C7.27133 54.2448 7.49329 55.078 8.12364 55.297V55.2977ZM16.3708 55.6455C17.8505 56.1839 18.9736 57.9592 19.6166 59.1834C18.6895 59.6288 17.2831 60.2558 15.9935 59.7367C14.5944 59.1678 13.4706 57.3925 12.7477 56.1988C13.6748 55.7535 15.0812 55.1265 16.3708 55.6455ZM67.2795 83.0845L65.6185 87.251H68.9412L67.2795 83.0845ZM55.572 84.2723C55.572 84.8807 55.3804 85.3521 54.9986 85.6872C54.6161 86.0223 54.0427 86.1898 53.2784 86.1898H51.2623V82.3734H53.2784C54.0427 82.3734 54.6161 82.5447 54.9986 82.8857C55.3804 83.2268 55.572 83.6639 55.572 84.2723Z" fill="#908D8D"/>
</svg>
