<svg width="71" height="71" viewBox="0 0 71 71" fill="none" xmlns="http://www.w3.org/2000/svg">
<g clip-path="url(#clip0_101_305)">
<path fill-rule="evenodd" clip-rule="evenodd" d="M51.5055 25.4184C51.6622 25.3714 51.8666 25.4655 52.071 25.7343L61.3845 34.692C61.9295 35.2296 61.9295 36.036 61.3845 36.4325L52.071 45.5247C51.8666 45.7935 51.6554 45.8539 51.5055 45.7733C51.3556 45.6927 51.2466 45.4575 51.2466 45.1147V26.0031C51.2466 25.6738 51.3488 25.4655 51.5055 25.4184Z" fill="white"/>
<path fill-rule="evenodd" clip-rule="evenodd" d="M35.5695 10.5H36.2303L36.864 10.7621L46.45 20.1231C46.8656 20.6607 46.7225 21.0639 46.0344 21.0639H42.0624C41.3811 21.0639 40.836 21.6015 40.836 22.2735V29.2219C40.836 29.8939 40.2841 30.4315 39.4598 30.4315H32.4763C31.795 30.4315 31.2363 29.8939 31.2363 29.2219V22.2735C31.2363 21.6015 30.6913 21.0639 29.9964 21.0639H25.7518C25.0705 21.0639 24.9274 20.6607 25.3362 20.1231L34.9427 10.7621L35.5695 10.5Z" fill="white"/>
<path fill-rule="evenodd" clip-rule="evenodd" d="M20.5467 25.2168C20.717 25.2975 20.826 25.5327 20.826 25.8754V45.3903C20.826 45.733 20.717 45.9346 20.5467 45.9951C20.3832 46.0623 20.1447 45.9951 19.8654 45.7935L10.4088 36.4325C9.86374 36.036 9.86374 35.2229 10.4088 34.692L19.8654 25.4722C20.1447 25.2034 20.3832 25.1429 20.5467 25.2235V25.2168Z" fill="white"/>
<path fill-rule="evenodd" clip-rule="evenodd" d="M32.4762 40.5787H39.4596C40.284 40.5787 40.8359 41.1163 40.8359 41.7883V49.14C40.8359 49.9397 41.3809 50.4773 42.0622 50.4773H45.7617C46.4431 50.4773 46.7156 50.8738 46.1773 51.277L36.8638 60.4968C36.5845 60.7656 36.2438 60.9 35.8964 60.9C35.5489 60.9 35.2151 60.7656 34.9425 60.4968L25.629 51.277C25.0772 50.8738 25.3497 50.4773 26.031 50.4773H30.003C30.698 50.4773 31.243 49.9397 31.243 49.14V41.7883C31.243 41.1163 31.7949 40.5787 32.483 40.5787H32.4762Z" fill="white"/>
</g>
<defs>
<clipPath id="clip0_101_305">
<rect width="51.8" height="50.4" fill="white" transform="translate(10 10.5)"/>
</clipPath>
</defs>
</svg>
