<svg width="71" height="71" viewBox="0 0 71 71" fill="none" xmlns="http://www.w3.org/2000/svg">
<path d="M44.4474 61.3C44.3548 61.3 44.2622 61.2928 44.1696 61.2747C43.7917 61.2025 43.4583 60.9931 43.2435 60.679C43.0249 60.3649 42.9471 59.9894 43.0212 59.6175L44.7623 50.7753C44.8919 50.111 45.4921 49.6272 46.1885 49.6272C46.2811 49.6272 46.3737 49.6344 46.4626 49.6525C47.248 49.8005 47.7666 50.5443 47.6147 51.3097L47.0035 54.422C47.4777 54.5339 47.9481 54.5917 48.4075 54.5917C49.3855 54.5917 50.2968 54.3317 51.0414 53.8371C52.3194 52.9922 53.0344 51.5155 53.0084 49.7861C53.001 49.407 53.1492 49.0495 53.4196 48.7787C53.6901 48.5079 54.0531 48.3563 54.4384 48.3491C55.2497 48.3491 55.9016 48.9737 55.9127 49.7427C55.9572 52.4434 54.7755 54.7902 52.675 56.1803C51.4452 56.9926 49.9745 57.4223 48.4149 57.4223C47.7703 57.4223 47.1109 57.3501 46.4589 57.2021L45.8773 60.1518C45.7477 60.8162 45.1476 61.3 44.4511 61.3H44.4474ZM35.6271 61.3C35.2381 61.3 34.8751 61.152 34.6009 60.8848C34.3268 60.6176 34.1749 60.2602 34.1749 59.8811L34.1934 53.2124C34.0564 53.2197 33.9193 53.2197 33.7822 53.2197C31.6707 53.2197 29.7407 52.4939 28.3441 51.1725C26.5252 49.4539 25.7917 46.9446 26.3326 44.2873C26.4659 43.6265 27.066 43.1463 27.7588 43.1463C27.8514 43.1463 27.9477 43.1536 28.0403 43.1716C28.8257 43.3232 29.3406 44.0706 29.185 44.8361C28.8405 46.533 29.2739 48.1 30.3704 49.1362C31.2225 49.9413 32.4375 50.3854 33.7897 50.3854C33.9267 50.3854 34.0675 50.3818 34.2046 50.371L34.212 47.1757C34.212 46.3958 34.8639 45.764 35.6641 45.764C36.0531 45.764 36.4198 45.912 36.694 46.1792C36.9681 46.4463 37.12 46.8038 37.12 47.1829L37.1126 50.3782C37.2163 50.3818 37.3163 50.3854 37.42 50.3854C38.7759 50.3854 39.9909 49.9413 40.843 49.1398C41.9395 48.1 42.3729 46.533 42.0284 44.8397C41.9543 44.4678 42.0284 44.0923 42.247 43.7782C42.4618 43.4641 42.7915 43.251 43.1731 43.1752C43.2657 43.1572 43.362 43.1463 43.4546 43.1463C44.1436 43.1463 44.7438 43.6265 44.8808 44.2873C45.4217 46.9446 44.6845 49.4539 42.8693 51.1725C41.4727 52.4939 39.5427 53.2197 37.4349 53.2197C37.3274 53.2197 37.22 53.2197 37.1089 53.2124L37.0903 59.8847C37.0903 60.6645 36.4383 61.2964 35.6382 61.2964L35.6271 61.3ZM26.7586 61.3C26.0658 61.3 25.4657 60.8162 25.3323 60.1518L24.7508 57.2021C24.0988 57.3465 23.4431 57.4187 22.7948 57.4187C21.2389 57.4187 19.7645 56.989 18.5346 56.1767C16.4342 54.7866 15.2525 52.4398 15.2969 49.7391C15.3081 48.9701 15.96 48.3455 16.7491 48.3455C17.1603 48.3527 17.5233 48.5043 17.7937 48.7751C18.0642 49.0459 18.2086 49.4034 18.2012 49.7825C18.1753 51.5119 18.8903 52.9886 20.1683 53.8334C20.9129 54.3245 21.8242 54.5844 22.8022 54.5844C23.2615 54.5844 23.732 54.5267 24.2025 54.4147L23.5912 51.3025C23.5172 50.9306 23.5987 50.5551 23.8172 50.241C24.0358 49.9269 24.3655 49.7175 24.747 49.6453C24.8359 49.6272 24.9286 49.62 25.0212 49.62C25.7176 49.62 26.3177 50.1038 26.4474 50.7681L28.1885 59.6103C28.2626 59.9821 28.1811 60.3612 27.9625 60.6718C27.744 60.9859 27.4143 61.1953 27.0327 61.2675C26.9438 61.2855 26.8512 61.2928 26.7586 61.2928V61.3ZM20.9018 49.5225V49.5117C19.5015 49.4431 18.1827 49.0206 17.0603 48.2805C14.9598 46.8904 13.7781 44.5436 13.8226 41.8429C13.8337 41.0739 14.4857 40.4493 15.2747 40.4493C15.6859 40.4565 16.0489 40.6081 16.3194 40.8789C16.5898 41.1497 16.7343 41.5072 16.7269 41.8863C16.7009 43.6157 17.4159 45.0924 18.6939 45.9373C19.4385 46.4283 20.3461 46.6882 21.3278 46.6882C21.7612 46.6882 22.2058 46.6377 22.6503 46.5366L22.0539 43.5074C21.9798 43.1355 22.0613 42.7564 22.2799 42.4459C22.4984 42.1318 22.8281 41.9224 23.206 41.8538C23.2949 41.8357 23.3875 41.8285 23.4801 41.8285C24.1765 41.8285 24.7767 42.3123 24.9063 42.9766L25.7213 47.1179C25.8362 47.7028 25.5546 48.3058 25.0323 48.6054C24.8804 48.7607 24.6952 48.8798 24.4877 48.952C23.4394 49.3311 22.3762 49.5225 21.3241 49.5225H20.9055H20.9018ZM49.8819 49.5225C48.8335 49.5225 47.7666 49.3311 46.7183 48.952C46.5108 48.8762 46.3256 48.7571 46.1737 48.6054C45.6476 48.3058 45.3661 47.7064 45.4809 47.1179L46.2959 42.9766C46.4256 42.3123 47.0257 41.8285 47.7222 41.8285C47.8148 41.8285 47.9074 41.8357 47.9963 41.8538C48.3779 41.926 48.7076 42.1354 48.9261 42.4495C49.1447 42.7636 49.2225 43.1391 49.1484 43.511L48.552 46.5402C48.9965 46.6413 49.441 46.6919 49.8745 46.6919C50.8524 46.6919 51.7637 46.4319 52.5046 45.9373C53.7827 45.0924 54.4976 43.6157 54.4717 41.8863C54.4643 41.3736 54.7384 40.9186 55.1533 40.6623C54.0235 41.2941 52.7195 41.6263 51.3488 41.6263H50.6042L50.6228 41.5938C49.8115 41.5252 48.9928 41.3447 48.1852 41.0558C47.8889 40.9511 47.6407 40.7526 47.4702 40.4998C47.1072 40.1677 46.9442 39.6766 47.0368 39.2L47.5777 36.4597C47.7073 35.7953 48.3075 35.3115 49.0039 35.3115C49.0965 35.3115 49.1891 35.3187 49.278 35.3368C49.6596 35.409 49.9893 35.6184 50.2079 35.9325C50.4264 36.2466 50.5042 36.6221 50.4301 36.994L50.1004 38.6585C50.519 38.7451 50.9339 38.7921 51.3414 38.7921C52.3194 38.7921 53.2307 38.5321 53.9753 38.0411C54.9903 37.3695 55.6534 36.3044 55.8646 35.0155C55.4793 34.9433 55.0978 34.9035 54.7236 34.9035C54.5754 34.9035 54.431 34.9108 54.2865 34.9216C54.2457 34.9216 54.205 34.9252 54.1642 34.9252C53.4159 34.9252 52.7788 34.3547 52.7158 33.629C52.7047 33.5027 52.7121 33.3763 52.7343 33.2571C52.0267 33.8926 51.1784 34.427 50.2116 34.8386C50.0263 34.918 49.8337 34.9541 49.6337 34.9541C49.2632 34.9541 48.9113 34.8169 48.6372 34.5714C46.5886 32.6903 45.6699 30.2388 46.1181 27.8378C46.5627 25.4476 48.3075 23.4438 50.8969 22.3462C51.0821 22.2668 51.2784 22.2306 51.4785 22.2306C51.8489 22.2306 52.2046 22.3678 52.475 22.617C54.5236 24.4944 55.4386 26.9496 54.994 29.347C54.8051 30.3651 54.3791 31.3147 53.753 32.1523C53.8456 32.1234 53.9457 32.1054 54.0494 32.0982C54.2717 32.0801 54.4976 32.0693 54.7273 32.0693C55.2348 32.0693 55.746 32.1126 56.261 32.2029L59.3172 16.5694C59.4468 15.9014 60.0469 15.4176 60.7434 15.4176C60.836 15.4176 60.9249 15.4248 61.0175 15.4429C61.399 15.5115 61.7288 15.7245 61.9473 16.0386C62.1659 16.3527 62.2474 16.7282 62.1733 17.1001L58.8541 34.0984C58.8541 36.7341 57.6724 39.0231 55.6127 40.3843C55.4904 40.4673 55.3645 40.5432 55.2348 40.619C55.4349 40.5143 55.6608 40.4529 55.9016 40.4493C56.7166 40.4493 57.3649 41.0739 57.376 41.8429C57.4205 44.5436 56.2387 46.8904 54.1383 48.2805C53.1825 48.9123 52.0786 49.3131 50.8969 49.4611L50.9673 49.5225H49.8745H49.8819ZM51.171 25.4007C49.9782 26.1372 49.2077 27.1698 48.9891 28.3396C48.7742 29.5022 49.115 30.7081 49.9597 31.7768C51.1525 31.0439 51.923 30.0077 52.1416 28.8379C52.3565 27.6789 52.0119 26.4694 51.171 25.4007ZM37.42 45.1971C36.8421 45.1971 36.2494 45.1429 35.6641 45.0346C35.6419 45.0346 35.6234 45.0274 35.6011 45.0238C35.5789 45.0274 35.5567 45.0346 35.5345 45.0382C34.9492 45.1429 34.3601 45.1971 33.7822 45.1971C31.6707 45.1971 29.7407 44.4714 28.3441 43.1499C26.5252 41.4313 25.7917 38.922 26.3326 36.2683C26.4659 35.6076 27.066 35.1274 27.7588 35.1274C27.8514 35.1274 27.9477 35.1346 28.0403 35.1527C28.8257 35.3043 29.3406 36.0517 29.185 36.8171C28.8405 38.5141 29.2739 40.081 30.3704 41.1172C31.2225 41.9224 32.4375 42.3629 33.7897 42.3629C33.9119 42.3629 34.0378 42.3592 34.1638 42.352L34.1342 39.2578C34.1305 38.8787 34.2786 38.5213 34.5491 38.2541C34.8195 37.9833 35.1825 37.8317 35.5715 37.8281C36.3791 37.8281 37.0311 38.4563 37.0385 39.2289L37.0681 42.352C37.1867 42.3592 37.3015 42.3629 37.4163 42.3629C38.7722 42.3629 39.9872 41.9188 40.8393 41.1136C41.9358 40.0738 42.3692 38.5068 42.0247 36.8135C41.9506 36.4416 42.0247 36.0661 42.2432 35.752C42.4581 35.4379 42.7878 35.2249 43.1694 35.1491C43.262 35.131 43.3583 35.1238 43.4509 35.1238C44.1399 35.1238 44.7401 35.604 44.8771 36.2647C45.418 38.922 44.6845 41.4313 42.8656 43.1499C41.4949 44.4461 39.6131 45.1682 37.5534 45.1971H37.4274H37.42ZM18.2346 41.6263L18.4532 41.5072C17.4159 41.3266 16.4416 40.9475 15.5859 40.3843C13.5299 39.0231 12.3482 36.7341 12.3445 34.0984L9.02527 17.1001C8.8771 16.3347 9.39572 15.5909 10.1811 15.4429C10.2737 15.4248 10.3626 15.4176 10.4552 15.4176C11.1516 15.4176 11.7518 15.9014 11.8814 16.5694L14.9376 32.2065C15.4525 32.1162 15.9637 32.0729 16.4713 32.0729C16.7009 32.0729 16.9269 32.0837 17.1492 32.1018C17.2529 32.109 17.3492 32.1271 17.4455 32.1559C16.8195 31.3183 16.3935 30.3687 16.2008 29.3506C15.7526 26.9496 16.6713 24.498 18.7162 22.617C18.9866 22.3678 19.3385 22.2306 19.7127 22.2306C19.9127 22.2306 20.109 22.2704 20.2943 22.3498C22.8874 23.4474 24.6285 25.4476 25.073 27.8414C25.5213 30.2424 24.6026 32.6939 22.554 34.575C22.2836 34.8241 21.9316 34.9577 21.5575 34.9577C21.3574 34.9577 21.1648 34.918 20.9796 34.8422C20.0127 34.4306 19.1607 33.8962 18.4532 33.2608C18.4754 33.3799 18.4828 33.5063 18.4717 33.6326C18.4087 34.362 17.7752 34.9288 17.0232 34.9288C16.9825 34.9288 16.9417 34.9288 16.901 34.9252C16.7565 34.9144 16.6083 34.9072 16.4638 34.9072C16.0897 34.9072 15.7081 34.9433 15.3266 35.0191C15.5414 36.308 16.2045 37.3731 17.2159 38.0447C17.9604 38.5357 18.868 38.7957 19.8497 38.7957C20.2572 38.7957 20.6721 38.7523 21.0907 38.6621L20.761 36.994C20.6869 36.6221 20.7684 36.243 20.987 35.9325C21.2056 35.6184 21.5353 35.409 21.9131 35.3368C22.002 35.3187 22.0946 35.3115 22.1873 35.3115C22.8837 35.3115 23.4838 35.7953 23.6135 36.4597L24.1543 39.2C24.2469 39.6802 24.0839 40.1713 23.7209 40.4998C23.5505 40.7562 23.2986 40.9511 23.0059 41.0558C21.9576 41.4313 20.8944 41.6227 19.8423 41.6227H18.2346V41.6263ZM20.0312 25.4043C19.1866 26.473 18.8421 27.6789 19.0607 28.8415C19.2792 30.0113 20.0498 31.0475 21.2426 31.7804C22.0872 30.7117 22.4318 29.5058 22.2132 28.3432C21.9946 27.1734 21.2241 26.1372 20.0312 25.4043ZM37.4237 37.1818C36.8458 37.1818 36.2531 37.1276 35.6678 37.0193C35.6456 37.0157 35.6234 37.0121 35.6048 37.0049C35.5826 37.0085 35.5641 37.0157 35.5419 37.0193C34.9529 37.124 34.3638 37.1782 33.7859 37.1782C31.6744 37.1782 29.7444 36.4524 28.3478 35.131C26.5696 33.4485 25.825 30.9934 26.3066 28.3974L26.1584 11.1139C26.151 10.334 26.7993 9.69134 27.5995 9.68773C28.4071 9.68773 29.059 10.316 29.0665 11.0922L29.1998 26.9749C29.1998 26.9749 29.2294 26.9749 29.2443 26.9749C29.9852 26.9749 30.7075 27.0615 31.3817 27.2312C31.4892 27.2601 31.5929 27.2962 31.6892 27.3467C31.2187 26.4116 30.9705 25.4007 30.9705 24.3572C30.9705 21.9238 32.3227 19.6636 34.6787 18.1508C34.9158 17.9991 35.1899 17.9161 35.4752 17.9161C35.7604 17.9161 36.0346 17.9955 36.2754 18.1508C38.6314 19.66 39.9835 21.9238 39.9835 24.3572C39.9835 26.7907 38.6314 29.0509 36.2754 30.5637C36.0383 30.7153 35.7641 30.7948 35.4789 30.7948C35.1936 30.7948 34.9195 30.7153 34.6824 30.5637C33.8008 29.9969 33.0562 29.3253 32.4746 28.5779C32.4746 28.7043 32.4634 28.8307 32.4301 28.957C32.2634 29.5816 31.6855 30.0185 31.0224 30.0185C30.9002 30.0185 30.7779 30.0041 30.6594 29.9752C30.2148 29.8633 29.7407 29.8055 29.2443 29.8055C29.1887 29.8055 29.1294 29.8055 29.0739 29.8055C29.0442 31.1125 29.4999 32.2715 30.3741 33.0983C31.2262 33.9034 32.4412 34.3475 33.7934 34.3475C33.8897 34.3475 33.986 34.3475 34.086 34.3403L34.0675 32.6325C34.0638 32.2534 34.212 31.896 34.4824 31.6288C34.7528 31.358 35.1159 31.2064 35.5048 31.2028C36.3124 31.2028 36.9644 31.831 36.9718 32.6036L36.9903 34.3331C37.1348 34.3439 37.2793 34.3475 37.4237 34.3475C38.7759 34.3475 39.9909 33.9034 40.8467 33.0983C41.7209 32.2715 42.1766 31.1125 42.1469 29.8055C42.0914 29.8055 42.0321 29.8055 41.9765 29.8055C41.4912 29.8055 41.0245 29.8597 40.5911 29.9644C40.4725 29.9932 40.354 30.0077 40.2354 30.0077C39.5723 30.0077 38.9907 29.5672 38.8277 28.939C38.6314 28.1808 39.1019 27.4117 39.8798 27.2204C40.5429 27.0579 41.2467 26.9749 41.9691 26.9749C42.0284 26.9749 42.0914 26.9749 42.1506 26.9749V11.0958C42.1506 10.316 42.8026 9.68051 43.6028 9.68051C44.403 9.68051 45.0549 10.316 45.0549 11.0958V28.5165C45.0549 28.6574 45.0327 28.7982 44.992 28.9318C45.2809 31.3219 44.5104 33.5749 42.8693 35.1238C41.5431 36.3766 39.7353 37.0951 37.7497 37.1673V37.1746H37.4311L37.4237 37.1818ZM35.4789 21.1186C34.4453 22.0357 33.8786 23.173 33.8786 24.3572C33.8786 25.5415 34.4453 26.6788 35.4789 27.5959C36.5124 26.6824 37.0792 25.5415 37.0792 24.3572C37.0792 23.173 36.5124 22.0357 35.4789 21.1186ZM15.7193 24.693C15.0191 24.693 14.419 24.2056 14.2893 23.5304L12.9335 16.2516C12.8631 15.8798 12.9483 15.5043 13.1669 15.1938C13.3891 14.8833 13.7188 14.6738 14.1041 14.6052C14.193 14.5908 14.2782 14.5836 14.3634 14.5836C15.0636 14.5836 15.6674 15.0746 15.7896 15.7462L17.1455 23.0213C17.2158 23.3932 17.1307 23.7687 16.9121 24.0792C16.6898 24.3897 16.3601 24.5991 15.9749 24.6677C15.8971 24.6822 15.8082 24.6894 15.7155 24.6894L15.7193 24.693ZM55.4941 24.693C55.4089 24.693 55.3237 24.6858 55.2422 24.6714C54.4458 24.5305 53.9197 23.7904 54.0642 23.025L55.42 15.7462C55.546 15.071 56.1461 14.5836 56.85 14.5836C56.9352 14.5836 57.0204 14.5908 57.1093 14.6052C57.8983 14.7461 58.4244 15.4826 58.2799 16.2516L56.9203 23.5304C56.7981 24.2056 56.1943 24.693 55.4904 24.693H55.4941ZM47.6221 23.3824C47.5369 23.3824 47.4517 23.3752 47.3665 23.3607C46.5738 23.2199 46.0477 22.4798 46.1885 21.7143L47.548 14.4356C47.674 13.7604 48.2741 13.273 48.978 13.273C49.0632 13.273 49.1521 13.2802 49.2373 13.2946C49.6188 13.3632 49.9523 13.569 50.1708 13.8831C50.3931 14.1936 50.4746 14.5691 50.4079 14.9446L49.0484 22.2198C48.9261 22.895 48.3223 23.3824 47.6221 23.3824ZM23.5875 23.3824C22.8874 23.3824 22.2873 22.895 22.1576 22.2198L20.7981 14.941C20.6536 14.172 21.1796 13.4354 21.9687 13.2946C22.0576 13.2802 22.1428 13.273 22.228 13.273C22.9318 13.273 23.532 13.764 23.6579 14.4356L25.0138 21.7107C25.0842 22.0826 24.9989 22.4581 24.7804 22.7686C24.5581 23.0791 24.2284 23.2885 23.8432 23.3571C23.7579 23.3716 23.669 23.3788 23.5838 23.3788L23.5875 23.3824ZM51.9971 21.6746C51.9119 21.6746 51.8267 21.6674 51.7415 21.653C51.3525 21.5844 51.0191 21.375 50.8006 21.0645C50.5783 20.7539 50.4968 20.3785 50.5672 20.0066L51.4822 15.0927C51.6081 14.4175 52.2083 13.9301 52.9121 13.9301C52.9973 13.9301 53.0825 13.9373 53.1714 13.9517C53.553 14.0203 53.8864 14.2298 54.105 14.5403C54.3272 14.8508 54.4087 15.2263 54.3383 15.5981L53.4233 20.512C53.2974 21.1872 52.6973 21.6746 51.9934 21.6746H51.9971ZM19.2089 21.6746C18.5087 21.6746 17.9086 21.1836 17.7826 20.512L16.8676 15.5981C16.7972 15.2263 16.8824 14.8508 17.101 14.5403C17.3233 14.2298 17.653 14.0203 18.0345 13.9517C18.1235 13.9373 18.2086 13.9301 18.2939 13.9301C18.9977 13.9301 19.5978 14.4175 19.7238 15.0927L20.6388 20.0066C20.7092 20.3785 20.624 20.7539 20.4054 21.0681C20.1831 21.3786 19.8534 21.588 19.4682 21.653C19.3904 21.6674 19.3015 21.6746 19.2089 21.6746ZM39.602 19.7286C38.8018 19.7286 38.1498 19.0931 38.1498 18.3132V10.9153C38.1498 10.1354 38.8018 9.49998 39.602 9.49998C40.4021 9.49998 41.0541 10.1354 41.0541 10.9153V18.306C41.0541 19.0859 40.4021 19.7213 39.602 19.7213V19.7286ZM31.6077 19.7286C30.8076 19.7286 30.1556 19.0931 30.1556 18.3132V10.9153C30.1556 10.1354 30.8076 9.49998 31.6077 9.49998C32.4079 9.49998 33.0599 10.1354 33.0599 10.9153V18.306C33.0599 19.0859 32.4079 19.7213 31.6077 19.7213V19.7286ZM35.6048 17.3276C34.8047 17.3276 34.1527 16.6921 34.1527 15.9123V10.9153C34.1527 10.1354 34.8047 9.49998 35.6048 9.49998C36.405 9.49998 37.057 10.1354 37.057 10.9153V15.905C37.057 16.6849 36.405 17.3204 35.6048 17.3204V17.3276Z" fill="white"/>
</svg>
