<svg width="71" height="71" viewBox="0 0 71 71" fill="none" xmlns="http://www.w3.org/2000/svg">
<path fill-rule="evenodd" clip-rule="evenodd" d="M35.6 17.8696C24.783 17.8696 16 27.017 16 38.2867C16 49.5563 24.783 58.7 35.6 58.7C46.417 58.7 55.2 49.5526 55.2 38.2867C55.2 27.0208 46.4206 17.8696 35.6 17.8696ZM35.6 21.0943C44.7081 21.0943 52.1074 28.7968 52.1074 38.2867C52.1074 47.7765 44.7117 55.479 35.6 55.479C26.4883 55.479 19.0963 47.7728 19.0963 38.2867C19.0963 28.8006 26.4919 21.0943 35.6 21.0943Z" fill="white"/>
<path fill-rule="evenodd" clip-rule="evenodd" d="M35.6001 33.4514C33.0386 33.4514 30.9575 35.6188 30.9575 38.2867C30.9575 40.9545 33.0386 43.1219 35.6001 43.1219C38.1616 43.1219 40.2427 40.9545 40.2427 38.2867C40.2427 35.6188 38.1616 33.4514 35.6001 33.4514ZM35.6001 36.6762C36.4527 36.6762 37.1464 37.3987 37.1464 38.2867C37.1464 39.1747 36.4527 39.8972 35.6001 39.8972C34.7475 39.8972 34.0538 39.1747 34.0538 38.2867C34.0538 37.3987 34.7475 36.6762 35.6001 36.6762Z" fill="white"/>
<path fill-rule="evenodd" clip-rule="evenodd" d="M31.4741 15.721H39.7259C40.5786 15.721 41.2722 14.9985 41.2722 14.1105C41.2722 13.2225 40.5786 12.5 39.7259 12.5H31.4741C30.6214 12.5 29.9277 13.2225 29.9277 14.1105C29.9277 14.9985 30.6214 15.721 31.4741 15.721Z" fill="white"/>
<path fill-rule="evenodd" clip-rule="evenodd" d="M47.3131 18.8404L51.6883 23.3972C52.2917 24.0256 53.2744 24.0256 53.8778 23.3972C54.4811 22.7688 54.4811 21.7453 53.8778 21.1206L49.4989 16.5601C48.8956 15.9317 47.9129 15.9317 47.3131 16.5601C46.7098 17.1885 46.7098 18.212 47.3131 18.8404Z" fill="white"/>
<path fill-rule="evenodd" clip-rule="evenodd" d="M21.7012 16.5601L17.3224 21.1206C16.719 21.749 16.719 22.7725 17.3224 23.3972C17.9257 24.0256 18.9085 24.0256 19.5118 23.3972L23.887 18.8404C24.4904 18.212 24.4904 17.1885 23.887 16.5601C23.2837 15.9317 22.301 15.9317 21.7012 16.5601Z" fill="white"/>
<path fill-rule="evenodd" clip-rule="evenodd" d="M48.4476 24.4959L51.6884 21.1206C52.2917 20.4923 52.2917 19.4688 51.6884 18.8404C51.085 18.212 50.1023 18.212 49.499 18.8404L46.2582 22.2156C45.6548 22.844 45.6548 23.8675 46.2582 24.4921C46.8615 25.1205 47.8442 25.1205 48.444 24.4921L48.4476 24.4959Z" fill="white"/>
<path fill-rule="evenodd" clip-rule="evenodd" d="M24.942 22.2156L21.7013 18.8404C21.0979 18.212 20.1152 18.212 19.5118 18.8404C18.9085 19.4688 18.9085 20.4923 19.5118 21.1206L22.7526 24.4959C23.356 25.1243 24.3387 25.1243 24.9384 24.4959C25.5418 23.8675 25.5418 22.844 24.9384 22.2194L24.942 22.2156Z" fill="white"/>
<path fill-rule="evenodd" clip-rule="evenodd" d="M32.3241 37.1465L27.2913 31.9049C26.688 31.2765 26.688 30.253 27.2913 29.6284C27.8947 29 28.8774 29 29.4771 29.6284L34.5099 34.87C35.1132 35.4984 35.1132 36.5219 34.5099 37.1503C33.9065 37.7787 32.9238 37.7787 32.3205 37.1503L32.3241 37.1465Z" fill="white"/>
</svg>
