<svg width="24" height="24" viewBox="0 0 24 24" fill="none" xmlns="http://www.w3.org/2000/svg">
<path d="M12.6501 9.99999C12.1676 8.62978 11.2042 7.48122 9.93891 6.76763C8.67358 6.05404 7.19226 5.82392 5.77008 6.11999C3.48008 6.57999 1.62008 8.40999 1.14008 10.7C0.94656 11.5771 0.952231 12.4864 1.15667 13.361C1.36112 14.2357 1.75912 15.0533 2.32139 15.7537C2.88366 16.4542 3.59587 17.0196 4.40558 17.4083C5.21529 17.7971 6.10188 17.9993 7.00008 18C8.24002 18 9.44942 17.6153 10.4614 16.8988C11.4734 16.1824 12.2381 15.1695 12.6501 14H17.0001V16C17.0001 17.1 17.9001 18 19.0001 18C20.1001 18 21.0001 17.1 21.0001 16V14C22.1001 14 23.0001 13.1 23.0001 12C23.0001 10.9 22.1001 9.99999 21.0001 9.99999H12.6501ZM7.00008 14C5.90008 14 5.00008 13.1 5.00008 12C5.00008 10.9 5.90008 9.99999 7.00008 9.99999C8.10008 9.99999 9.00008 10.9 9.00008 12C9.00008 13.1 8.10008 14 7.00008 14Z" fill="#A5340F"/>
</svg>
