<svg width="1149" height="1148" viewBox="0 0 1149 1148" fill="none" xmlns="http://www.w3.org/2000/svg">
<g clip-path="url(#clip0_402_6282)">
<path d="M483.534 724.743C498.169 724.133 510.593 718.235 520.436 710.367C535.814 698.074 544.306 682.212 545.045 680.614L545.168 679.507L546.398 678.523C547.629 677.54 581.954 646.068 572.745 608.061C565.869 579.279 536.975 557.007 523.941 548.27L522.476 521.212C522.11 514.448 516.454 509.895 509.689 510.261C502.925 510.628 498.372 516.283 498.739 523.048L500.204 550.106C497.62 553.179 493.806 557.237 489.745 563.507C489.992 561.294 489.132 558.957 488.887 556.128C483.239 531.405 459.509 513.071 447.459 505.564L445.379 478.998C445.012 472.233 439.357 467.68 432.592 468.047C425.828 468.413 421.275 474.069 421.641 480.833L423.722 507.399C421.876 508.875 419.908 511.457 417.324 514.53C417.817 510.103 417.204 505.552 415.976 501.493C410.451 475.663 384.508 457.082 373.565 449.699L364.226 427.926C361.523 422.022 355.128 419.068 348.732 421.156C342.828 423.859 339.873 430.254 341.962 436.65L348.474 453.625C340.107 463.338 324.848 484.609 330.496 509.331C331.233 512.775 332.584 515.728 333.936 518.68C330.615 518.31 327.295 517.939 324.466 518.184C299.745 518.79 283.011 538.215 275.628 549.159L257.427 546.569C250.786 545.828 245.249 550.254 244.509 556.895C243.768 563.536 248.194 569.072 254.835 569.813L276.357 572.773C284.963 581.016 311.151 602.426 338.701 601.576C343.743 601.578 347.802 600.349 351.861 599.121C349.893 601.703 347.924 604.285 346.57 606.375L320.74 611.9C314.468 612.881 310.407 619.152 311.388 625.425C312.37 631.698 318.64 635.759 324.913 634.777L350.128 629.745C360.332 638.727 384.554 657.676 410.381 657.194C412.595 657.441 414.932 656.581 417.761 656.336C413.332 660.885 410.009 665.557 408.532 668.754L382.211 673.664C375.938 674.645 371.877 680.916 372.859 687.189C373.84 693.462 380.111 697.523 386.384 696.541L411.598 691.508C424.405 702.461 454.282 725.964 483.553 724.745L483.534 724.743ZM456.881 632.122C462.664 625.483 465.003 619.581 465.618 619.089L466.848 618.105C467.463 617.614 471.893 613.065 476.569 606.302C476.69 610.238 477.427 613.682 477.548 617.618C478.653 622.784 480.373 627.458 483.2 632.255C478.281 631.147 472.747 630.53 467.704 630.528C463.769 630.649 460.325 631.386 456.881 632.122V632.122ZM393.322 563.962C393.404 563.225 393.404 563.225 393.322 563.962L394.552 562.979C395.167 562.487 398.982 558.43 404.149 552.283C403.656 556.71 404.269 561.261 405.497 565.32C406.234 568.764 407.586 571.716 408.937 574.668C405.617 574.298 402.296 573.928 399.467 574.173C394.425 574.171 390.366 575.399 386.307 576.628C389.876 569.742 392.696 564.463 393.322 563.962V563.962ZM466.378 562.023C469.448 574.692 461.941 586.742 456.649 593.996C446.321 586.121 431.445 573.816 428.498 560.04C425.428 547.371 432.935 535.321 438.226 528.067C448.678 534.835 462.94 547.632 466.378 562.023ZM550.236 613.956C554.534 630.684 543.828 646.299 536.691 655.029C523.658 646.292 505.339 629.681 500.549 612.338C496.251 595.61 506.957 579.995 514.094 571.265C527.127 580.002 546.061 596.121 550.236 613.956ZM355.71 504.299C352.641 491.63 360.148 479.58 365.439 472.325C375.767 480.201 390.644 492.505 393.59 506.281C396.66 518.95 389.153 531 383.862 538.254C373.41 531.486 358.657 518.074 355.71 504.299V504.299ZM298.499 560.113C303.791 552.859 313.88 542.778 327.409 542.045C341.429 541.928 357.66 552.142 367.988 560.017C362.697 567.271 352.608 577.352 339.079 578.085C324.935 579.31 308.212 568.48 298.499 560.113V560.113ZM370.795 615.24C376.087 607.986 386.176 597.904 399.089 597.663C413.11 597.546 429.341 607.76 439.669 615.635C434.377 622.89 424.288 632.971 411.375 633.212C397.23 634.436 380.508 623.607 370.795 615.24ZM468.433 654.142C486.389 653.903 507.292 667.439 519.095 677.16C512.45 686.504 499.654 700.766 482.805 701.129C464.848 701.368 443.946 687.831 432.142 678.11C438.787 668.766 451.584 654.504 468.433 654.142V654.142Z" fill="#2D2D2D"/>
<path d="M250.187 505.98C278.097 527.022 317.702 518.551 319.424 518.182C321.146 517.814 322.868 517.446 324.714 515.971C327.789 513.512 329.266 510.315 329.145 506.379C328.777 504.657 326.087 463.455 298.668 443.029C275.922 425.924 244.805 428.618 233.489 429.598L215.907 416.431C210.743 412.494 203.364 413.352 199.426 418.516C195.488 423.68 196.346 431.059 201.51 434.997L219.093 448.164C219.584 448.779 220.2 448.287 220.691 448.902C222.039 461.939 229.039 489.614 250.187 505.98V505.98ZM283.78 460.979C295.706 469.593 301.235 485.338 303.444 495.669C292.744 496.157 276.018 495.413 264.707 486.307C252.78 477.694 247.252 461.949 245.042 451.617C255.742 451.129 271.853 452.365 283.78 460.979V460.979Z" fill="#2D2D2D"/>
<path d="M316.152 391.749C320.209 395.563 327.465 395.812 331.771 392.37L333.001 391.387C337.431 386.838 337.188 378.967 332.639 374.537L316.41 359.28C311.246 355.343 303.375 355.586 298.946 360.135C294.516 364.684 294.759 372.555 299.308 376.984L316.152 391.749V391.749Z" fill="#2D2D2D"/>
<path d="M444.955 301.894L446.185 300.911C450.491 297.469 452.339 290.951 449.02 285.538L437.712 266.348C434.394 260.935 427.876 259.088 421.972 261.791C416.559 265.11 414.096 272.119 417.907 278.147L429.214 297.338C431.918 303.242 438.927 305.705 444.955 301.894V301.894Z" fill="#2D2D2D"/>
<path d="M205.52 559.832C208.841 560.202 211.793 558.85 213.639 557.375C216.099 555.408 217.576 552.211 217.946 548.89C218.687 542.249 214.262 536.713 207.62 535.973L185.484 533.504C178.842 532.764 173.306 537.189 172.566 543.831C171.825 550.472 176.251 556.008 182.892 556.748L205.52 559.832V559.832Z" fill="#2D2D2D"/>
<path d="M573.226 317.317C574.456 316.334 575.81 314.243 576.548 312.645C577.287 311.046 594.273 274.279 579.896 242.42C568.59 218.187 543.136 205.263 531.331 200.585C530.84 199.97 531.455 199.478 530.963 198.863L521.993 178.813C519.289 172.908 512.28 170.446 506.375 173.149C500.471 175.853 498.008 182.862 500.712 188.767L509.682 208.817C505.743 219.024 496.261 248.783 508.427 275.353C522.804 307.213 562.402 318.912 563.509 319.035C566.214 319.897 570.15 319.776 573.226 317.317V317.317ZM528.601 265.276C522.826 251.745 525.168 235.757 528.001 225.428C537.593 229.859 551.733 238.719 557.508 252.25C563.283 265.781 560.94 281.769 558.108 292.099C548.516 287.667 534.376 278.807 528.601 265.276V265.276Z" fill="#2D2D2D"/>
<path d="M463.225 444.568C466.054 444.323 468.391 443.463 470.851 441.496C473.312 439.529 474.665 437.439 475.036 434.118C475.774 432.52 481.939 392.305 459.688 365.731C442.355 345.308 414.439 339.394 401.648 338.528L386.897 320.074C382.963 315.153 375.215 314.289 370.294 318.223C365.373 322.157 364.509 329.905 368.443 334.826L382.211 352.049C380.977 363.118 379.735 394.356 398.544 416.625C420.179 443.69 461 444.33 463.225 444.568V444.568ZM440.619 380.974C449.962 392.662 451.555 408.528 451.428 419.72C440.974 417.994 424.742 412.822 415.891 401.75C406.548 390.062 404.955 374.196 405.083 363.004C415.536 364.73 431.769 369.902 440.619 380.974Z" fill="#2D2D2D"/>
<path d="M667.551 335.679L656.473 359.657C654.136 360.517 651.799 361.377 648.231 363.221C650.323 359.532 651.924 355.228 653.524 350.924C660.422 324.238 645.183 295.084 639.161 283.767L641.014 262.121C641.754 255.48 637.329 249.944 630.688 249.204C624.047 248.463 618.51 252.889 617.77 259.53L616.287 277.854C603.986 282.646 581.352 294.69 575.316 318.671C574.946 321.991 574.084 324.697 573.714 328.017C571.132 326.048 568.55 324.08 565.353 322.603C542.481 311.648 518.372 321.847 507.054 327.869L491.931 317.778C486.767 313.84 478.772 315.19 475.326 320.969C471.388 326.133 472.738 334.128 478.517 337.574L497.698 351.479C502.49 363.779 514.9 393.178 538.879 404.257C543.183 405.857 547.487 407.458 551.299 408.443C547.732 410.286 544.78 411.638 542.934 413.113L517.479 405.232C510.961 403.385 504.933 407.195 502.594 413.098C500.747 419.615 504.557 425.643 510.46 427.982L535.915 435.863C541.199 448.779 553.241 476.456 576.112 487.411C578.203 488.765 580.416 489.011 583.122 489.873C576.726 491.962 571.313 495.28 567.746 497.124L541.675 489.734C535.157 487.887 529.129 491.697 526.79 497.6C524.943 504.118 528.753 510.146 534.656 512.485L560.726 519.874C566.378 534.512 581.124 568.093 608.3 580.648C643.345 598.003 681.604 571.452 682.834 570.469L684.065 569.486L685.171 569.609C686.278 569.732 703.621 564.943 719.615 552.158C729.457 544.29 737.947 533.471 741.765 519.329C749.525 489.937 733.057 456.724 725.56 443.562L736.023 420.075C738.362 414.172 735.782 407.161 729.879 404.822C723.977 402.483 716.966 405.063 714.627 410.965L704.04 435.559C699.981 436.787 695.307 438.507 689.894 441.826C691.248 439.736 691.495 437.522 692.357 434.817C699.007 410.345 685.367 381.929 678.853 369.997L689.316 346.51C691.655 340.607 689.075 333.596 683.172 331.257C676.893 327.185 669.881 329.765 667.542 335.668L667.551 335.679ZM653.474 482.029C652.365 486.948 651.748 492.483 651.746 497.525C648.181 494.326 643.509 491.003 638.713 488.788C635.516 487.311 631.704 486.325 627.891 485.34C636.133 481.777 641.054 477.843 641.546 478.458L642.776 477.474C643.391 476.983 649.664 476.001 657.414 471.823C655.937 475.02 654.459 478.217 653.474 482.029V482.029ZM559.531 430.092C567.773 426.529 581.18 421.86 592.862 427.645C605.65 433.553 615.483 450.899 619.783 462.584C611.541 466.148 598.134 470.816 586.452 465.031C574.155 459.738 564.323 442.393 559.531 430.092ZM611.439 411.787C608.857 409.818 606.275 407.849 603.078 406.372C598.774 404.772 594.47 403.171 590.658 402.186C598.284 399.114 603.205 395.18 603.205 395.18L604.436 394.197C605.051 393.705 610.832 392.108 618.458 389.037C616.366 392.725 614.765 397.029 613.165 401.333C612.18 405.146 611.809 408.466 611.439 411.787V411.787ZM598.066 325.69C601.146 313.146 613.202 305.526 622.058 301.47C628.081 312.788 634.961 331.484 630.651 345.011C627.571 357.555 615.516 365.176 606.659 369.231C601.252 357.422 594.372 338.725 598.066 325.69ZM555.013 344.982C567.802 350.891 577.634 368.236 581.934 379.921C573.693 383.485 560.285 388.153 548.603 382.368C535.815 376.46 525.983 359.115 521.682 347.429C529.924 343.866 543.332 339.198 555.013 344.982V344.982ZM619.131 558.884C602.654 550.883 591.101 528.864 585.449 514.226C595.536 509.187 613.618 502.799 628.497 510.061C644.482 517.446 656.527 540.081 662.178 554.719C652.091 559.757 634.01 566.146 619.131 558.884ZM719.015 512.309C714.95 528.665 698.22 538.006 687.642 542.43C680.76 528.775 671.053 505.281 676.348 487.941C680.413 471.586 697.143 462.245 707.721 457.821C714.603 471.476 723.695 495.462 719.015 512.309ZM669.115 427.182C666.035 439.726 653.979 447.347 645.123 451.402C639.101 440.085 632.22 421.388 636.53 407.861C639.61 395.317 651.666 387.696 660.522 383.641C665.929 395.45 672.809 414.147 669.115 427.182Z" fill="#2D2D2D"/>
<path d="M754.419 234.985C748.27 234.859 742.61 240.392 742.485 246.541L742.724 264.497C731.407 270.519 709.632 284.901 705.81 309.128C700.633 340.488 726.079 373.581 728.414 377.764C731.364 381.455 736.775 383.179 741.449 381.459C742.064 380.967 753.135 377.158 764.207 368.308C774.049 360.44 783.154 349.129 786.604 333.265C791.288 306.332 773.097 278.53 765.844 268.196L765.484 246.304C766.716 240.278 761.184 234.618 754.419 234.985V234.985ZM763.484 329.566C761.511 342.233 749.947 350.469 742.074 355.754C735.437 344.929 726.711 327.707 729.422 313.441C731.395 300.774 742.959 292.539 750.832 287.253C756.854 298.57 765.58 315.792 763.484 329.566Z" fill="#2D2D2D"/>
<path d="M287.522 643.495C262.433 642.379 244.224 659.959 235.857 669.672L217.779 665.975C211.753 664.743 204.618 668.43 203.878 675.071C203.137 681.712 206.333 688.232 212.974 688.972L234.249 694.146C242.239 702.881 266.459 726.873 293.147 728.728C309.258 729.964 322.42 722.467 332.262 714.6C343.335 705.749 349.488 695.789 350.103 695.297C352.81 691.117 352.321 685.459 349.37 681.768C346.42 678.078 319.252 645.352 287.522 643.495V643.495ZM294.755 704.254C280.858 703.265 265.366 691.452 256.268 682.593C262.666 675.463 273.738 666.612 286.529 667.478C300.426 668.467 315.918 680.28 325.016 689.138C318.618 696.269 307.545 705.12 294.755 704.254V704.254Z" fill="#2D2D2D"/>
<path d="M927.939 686.465C853.022 730.22 793.496 731.427 750.589 689.103C752.066 685.906 753.543 682.709 754.037 678.281C754.901 670.533 752.936 663.03 748.019 656.879C741.135 648.267 730.313 644.819 720.596 646.538C710.519 626.364 706.713 610.251 706.713 610.251C705.731 603.978 698.845 600.409 692.572 601.39C686.3 602.372 682.73 609.258 683.712 615.53C683.588 616.637 688.255 635.087 699.684 658.213L692.917 663.622C679.03 637.42 672.765 618.232 673.38 617.74C671.291 611.344 664.897 608.39 658.624 609.371C652.228 611.46 649.274 617.854 650.256 624.127C650.132 625.233 657.626 648.481 674.463 678.374L662.161 688.208C636.711 665.2 615.07 653.261 614.578 652.646C608.799 649.2 601.788 651.78 598.342 657.56C594.896 663.339 597.476 670.35 603.255 673.796C603.255 673.796 621.699 684.257 643.707 702.96L636.94 708.368C616.9 692.126 599.931 683.511 598.824 683.387C592.921 681.048 585.418 683.013 583.079 688.916C580.74 694.818 582.705 702.321 588.608 704.66C588.608 704.66 605.085 712.661 623.035 727.549C622.912 728.656 622.173 730.255 622.05 731.362C621.186 739.11 623.151 746.613 628.068 752.764C634.461 760.761 644.667 764.7 654.876 763.597C687.817 814.896 674.02 873.31 614.223 937.241C609.793 941.79 610.036 949.661 614.585 954.09C618.642 957.905 625.283 958.645 630.204 954.711L631.435 953.728C714.732 864.962 703.32 796.454 676.28 752.536L684.276 746.144C719.925 793.262 733.803 844.677 726.525 899.896C725.785 906.537 730.21 912.073 736.236 913.305C739.557 913.675 743.001 912.939 745.461 910.972C747.922 909.005 749.275 906.915 749.646 903.594C758.647 842.964 742.313 783.432 702.73 731.393L708.882 726.475C750.924 776.548 804.905 804.979 866.52 810.168C869.841 810.538 872.793 809.186 874.639 807.711C877.099 805.744 878.576 802.547 878.946 799.227C879.687 792.586 874.155 786.926 868.005 786.801C812.416 782.844 764.829 757.367 727.336 711.724L735.332 705.332C772.707 741.996 836.528 767.602 941.46 705.903L942.691 704.919C946.997 701.477 948.844 694.96 945.525 689.547C940.485 684.502 933.967 682.655 927.939 686.465V686.465ZM654.27 738.876C653.86 739.204 653.86 739.204 654.27 738.876C651.81 740.843 648.489 740.473 646.522 738.012C645.539 736.782 645.17 735.06 645.294 733.953C645.417 732.846 646.032 732.355 646.156 731.248L721.202 671.258C723.662 669.292 726.983 669.662 728.95 672.122C729.933 673.353 730.301 675.075 730.178 676.181C730.055 677.288 729.316 678.887 728.086 679.87L654.27 738.876V738.876Z" fill="#2D2D2D"/>
<path d="M218.043 618.379L239.445 612.361C241.167 611.992 242.398 611.009 243.628 610.025C247.319 607.075 248.919 602.771 247.814 597.605C245.726 591.209 239.332 588.255 233.059 589.236L211.656 595.255C205.26 597.343 201.814 603.122 203.288 610.01C205.376 616.406 211.647 620.467 218.043 618.379Z" fill="#2D2D2D"/>
<path d="M636.233 219.566C638.693 217.599 640.662 215.017 640.417 212.188L642.886 190.051C643.626 183.41 639.201 177.874 632.56 177.133C625.918 176.393 620.382 180.818 619.642 187.459L617.174 209.596C616.433 216.237 620.859 221.773 627.5 222.514C630.328 222.269 633.772 221.533 636.233 219.566V219.566Z" fill="#2D2D2D"/>
<path d="M663.034 245.526C659.589 251.306 662.169 258.317 667.948 261.763C672.128 264.47 677.294 263.365 680.985 260.415C682.215 259.431 683.445 258.448 684.184 256.849L694.769 237.298C698.214 231.519 695.634 224.508 689.855 221.062C684.076 217.616 677.065 220.196 673.619 225.975L663.034 245.526Z" fill="#2D2D2D"/>
</g>
<defs>
<clipPath id="clip0_402_6282">
<rect width="713.933" height="711.472" fill="white" transform="translate(73.335 518.859) rotate(-38.6378)"/>
</clipPath>
</defs>
</svg>
