<svg width="19" height="19" viewBox="0 0 19 19" fill="none" xmlns="http://www.w3.org/2000/svg">
<path d="M9.47408 1.70708C12.0038 1.70708 12.3034 1.71671 13.3024 1.76229C14.2261 1.80445 14.7278 1.95879 15.0617 2.0885C15.5038 2.26036 15.8195 2.4657 16.151 2.79721C16.4825 3.12872 16.6878 3.44436 16.8597 3.88655C16.9894 4.22043 17.1438 4.72207 17.1859 5.64575C17.2315 6.6448 17.2411 6.94442 17.2411 9.47412C17.2411 12.0038 17.2315 12.3034 17.1859 13.3025C17.1438 14.2262 16.9894 14.7278 16.8597 15.0617C16.6878 15.5039 16.4825 15.8195 16.151 16.151C15.8195 16.4825 15.5038 16.6879 15.0617 16.8597C14.7278 16.9895 14.2261 17.1438 13.3024 17.186C12.3036 17.2315 12.0039 17.2412 9.47408 17.2412C6.94423 17.2412 6.64461 17.2315 5.64575 17.186C4.72204 17.1438 4.22039 16.9895 3.88655 16.8597C3.44432 16.6879 3.12868 16.4825 2.79717 16.151C2.46566 15.8195 2.26032 15.5039 2.0885 15.0617C1.95875 14.7278 1.80441 14.2262 1.76225 13.3025C1.71667 12.3034 1.70704 12.0038 1.70704 9.47412C1.70704 6.94442 1.71667 6.6448 1.76225 5.64579C1.80441 4.72207 1.95875 4.22043 2.0885 3.88655C2.26032 3.44436 2.46566 3.12872 2.79717 2.79721C3.12868 2.4657 3.44432 2.26036 3.88655 2.0885C4.22039 1.95879 4.72204 1.80445 5.64572 1.76229C6.64476 1.71671 6.94438 1.70708 9.47408 1.70708ZM9.47408 0C6.90105 0 6.57846 0.0109062 5.56794 0.057013C4.5595 0.103045 3.87083 0.263177 3.26817 0.497397C2.64516 0.739514 2.11681 1.06347 1.59012 1.59016C1.06343 2.11685 0.739477 2.6452 0.497359 3.26821C0.26314 3.87087 0.103007 4.55954 0.0569754 5.56798C0.0108686 6.57846 0 6.90109 0 9.47412C0 12.0472 0.0108686 12.3698 0.0569754 13.3803C0.103007 14.3887 0.26314 15.0774 0.497359 15.68C0.739477 16.303 1.06343 16.8314 1.59012 17.3581C2.11681 17.8848 2.64516 18.2087 3.26817 18.4508C3.87083 18.6851 4.5595 18.8452 5.56794 18.8912C6.57846 18.9373 6.90105 18.9482 9.47408 18.9482C12.0471 18.9482 12.3698 18.9373 13.3802 18.8912C14.3887 18.8452 15.0773 18.6851 15.68 18.4508C16.303 18.2087 16.8314 17.8848 17.358 17.3581C17.8847 16.8314 18.2087 16.303 18.4508 15.68C18.685 15.0774 18.8452 14.3887 18.8912 13.3803C18.9373 12.3698 18.9482 12.0472 18.9482 9.47412C18.9482 6.90109 18.9373 6.57846 18.8912 5.56798C18.8452 4.55954 18.685 3.87087 18.4508 3.26821C18.2087 2.6452 17.8847 2.11685 17.358 1.59016C16.8314 1.06347 16.303 0.739514 15.68 0.497397C15.0773 0.263177 14.3887 0.103045 13.3802 0.057013C12.3698 0.0109062 12.0471 0 9.47408 0ZM9.47408 4.60903C6.78718 4.60903 4.60899 6.78722 4.60899 9.47412C4.60899 12.161 6.78718 14.3392 9.47408 14.3392C12.161 14.3392 14.3392 12.161 14.3392 9.47412C14.3392 6.78722 12.161 4.60903 9.47408 4.60903ZM9.47408 12.6322C7.72996 12.6322 6.31603 11.2182 6.31603 9.47412C6.31603 7.73 7.72996 6.31607 9.47408 6.31607C11.2182 6.31607 12.6321 7.73 12.6321 9.47412C12.6321 11.2182 11.2182 12.6322 9.47408 12.6322ZM15.6683 4.41681C15.6683 5.04471 15.1593 5.55373 14.5314 5.55373C13.9035 5.55373 13.3945 5.04471 13.3945 4.41681C13.3945 3.78892 13.9035 3.27994 14.5314 3.27994C15.1593 3.27994 15.6683 3.78892 15.6683 4.41681Z" fill="#ffffff"/>
</svg>
