<svg width="21" height="21" viewBox="0 0 21 21" fill="none" xmlns="http://www.w3.org/2000/svg">
<path d="M19.5 5.625C18.3065 5.625 17.1619 5.15089 16.318 4.30698C15.4741 3.46307 15 2.31847 15 1.125C15 0.926088 14.921 0.735322 14.7803 0.59467C14.6397 0.454018 14.4489 0.375 14.25 0.375H10.5C10.3011 0.375 10.1103 0.454018 9.96967 0.59467C9.82902 0.735322 9.75 0.926088 9.75 1.125V13.125C9.74927 13.4602 9.65867 13.7892 9.48764 14.0775C9.3166 14.3658 9.07139 14.603 8.77753 14.7644C8.48368 14.9258 8.15193 15.0054 7.81685 14.995C7.48176 14.9846 7.15559 14.8846 6.87231 14.7053C6.58903 14.526 6.35899 14.2741 6.20616 13.9757C6.05334 13.6773 5.9833 13.3434 6.00336 13.0087C6.02342 12.6741 6.13284 12.3509 6.32022 12.0729C6.50759 11.795 6.76608 11.5723 7.06875 11.4281C7.19778 11.3688 7.30704 11.2736 7.3835 11.154C7.45996 11.0343 7.5004 10.8951 7.5 10.7531V6.85312C7.50186 6.74195 7.47834 6.63181 7.43123 6.53109C7.38411 6.43036 7.31465 6.34171 7.22812 6.27188C7.14418 6.20271 7.0462 6.15264 6.94098 6.12512C6.83575 6.0976 6.7258 6.09329 6.61875 6.1125C5.28449 6.3515 4.04609 6.96614 3.0489 7.88428C2.05171 8.80242 1.33712 9.98596 0.988989 11.296C0.640863 12.606 0.67365 13.9882 1.0835 15.2802C1.49336 16.5723 2.26327 17.7206 3.30287 18.5904C4.34248 19.4602 5.60863 20.0155 6.95272 20.1909C8.29681 20.3664 9.66307 20.1548 10.8911 19.581C12.1192 19.0072 13.1581 18.095 13.8859 16.9515C14.6137 15.8079 15.0002 14.4805 15 13.125V9.77813C16.3891 10.5027 17.9333 10.8791 19.5 10.875C19.6989 10.875 19.8897 10.796 20.0303 10.6553C20.171 10.5147 20.25 10.3239 20.25 10.125V6.375C20.25 6.17609 20.171 5.98532 20.0303 5.84467C19.8897 5.70402 19.6989 5.625 19.5 5.625ZM18.75 9.3375C17.286 9.20756 15.8839 8.68622 14.6906 7.82812C14.5777 7.7502 14.4459 7.7043 14.309 7.69531C14.1721 7.68632 14.0353 7.71458 13.9132 7.77707C13.7911 7.83957 13.6882 7.93397 13.6155 8.05025C13.5427 8.16654 13.5028 8.30036 13.5 8.4375V13.125C13.4995 14.1561 13.2155 15.1672 12.6792 16.0479C12.1428 16.9286 11.3747 17.6448 10.4589 18.1185C9.54296 18.5921 8.51449 18.8049 7.48585 18.7336C6.4572 18.6622 5.46795 18.3095 4.6262 17.714C3.78445 17.1185 3.1226 16.303 2.71295 15.3568C2.30331 14.4105 2.16165 13.3698 2.30344 12.3485C2.44523 11.3272 2.86503 10.3645 3.51696 9.56564C4.16888 8.76676 5.02785 8.16246 6 7.81875V10.3219C5.51507 10.6459 5.12238 11.09 4.86022 11.611C4.59805 12.1319 4.47536 12.712 4.5041 13.2945C4.53285 13.877 4.71205 14.4421 5.02423 14.9347C5.33641 15.4273 5.77092 15.8306 6.28539 16.1053C6.79986 16.38 7.37673 16.5167 7.95975 16.5021C8.54278 16.4874 9.11206 16.3219 9.61209 16.0218C10.1121 15.7216 10.5258 15.297 10.8129 14.7893C11.0999 14.2816 11.2505 13.7082 11.25 13.125V1.875H13.5469C13.7149 3.19626 14.3172 4.42425 15.259 5.36605C16.2008 6.30784 17.4287 6.91007 18.75 7.07812V9.3375Z"/>
</svg>
