<svg width="60" height="60" viewBox="0 0 60 60" fill="none" xmlns="http://www.w3.org/2000/svg">
<path d="M30 0L35.3766 4.7051L42.2021 2.59364L45.2001 9.07882L52.2943 9.92608L52.3954 17.07L58.5317 20.7295L55.7183 27.2969L59.8357 33.1359L54.5943 37.9912L55.9808 45L49.2177 47.3037L47.6336 54.2705L40.5182 53.6243L36.2374 59.3444L30 55.86L23.7626 59.3444L19.4818 53.6243L12.3664 54.2705L10.7823 47.3037L4.01924 45L5.40568 37.9912L0.164343 33.1359L4.28166 27.2969L1.4683 20.7295L7.60458 17.07L7.70566 9.92608L14.7999 9.07882L17.7979 2.59364L24.6234 4.7051L30 0Z" fill="#B69900"/>
</svg>
