<svg width="1400" height="1032" viewBox="0 0 1400 1032" fill="none" xmlns="http://www.w3.org/2000/svg">
<g opacity="0.03">
<g clip-path="url(#clip0_432_6170)">
<path d="M1340.53 724.743C1355.17 724.133 1367.59 718.235 1377.44 710.367C1392.81 698.074 1401.31 682.212 1402.04 680.614L1402.17 679.507L1403.4 678.523C1404.63 677.54 1438.95 646.068 1429.74 608.061C1422.87 579.279 1393.97 557.007 1380.94 548.27L1379.48 521.212C1379.11 514.448 1373.45 509.895 1366.69 510.261C1359.92 510.628 1355.37 516.283 1355.74 523.048L1357.2 550.106C1354.62 553.179 1350.81 557.237 1346.74 563.507C1346.99 561.294 1346.13 558.957 1345.89 556.128C1340.24 531.405 1316.51 513.071 1304.46 505.564L1302.38 478.998C1302.01 472.233 1296.36 467.68 1289.59 468.047C1282.83 468.413 1278.27 474.069 1278.64 480.833L1280.72 507.399C1278.88 508.875 1276.91 511.457 1274.32 514.53C1274.82 510.103 1274.2 505.552 1272.98 501.493C1267.45 475.663 1241.51 457.082 1230.56 449.699L1221.23 427.926C1218.52 422.022 1212.13 419.068 1205.73 421.156C1199.83 423.859 1196.87 430.254 1198.96 436.65L1205.47 453.625C1197.11 463.338 1181.85 484.609 1187.5 509.331C1188.23 512.775 1189.58 515.728 1190.94 518.68C1187.62 518.31 1184.29 517.939 1181.47 518.184C1156.75 518.79 1140.01 538.215 1132.63 549.159L1114.43 546.569C1107.79 545.828 1102.25 550.254 1101.51 556.895C1100.77 563.536 1105.19 569.072 1111.83 569.813L1133.36 572.773C1141.96 581.016 1168.15 602.426 1195.7 601.576C1200.74 601.578 1204.8 600.349 1208.86 599.121C1206.89 601.703 1204.92 604.285 1203.57 606.375L1177.74 611.9C1171.47 612.881 1167.41 619.152 1168.39 625.425C1169.37 631.698 1175.64 635.759 1181.91 634.777L1207.13 629.745C1217.33 638.727 1241.55 657.676 1267.38 657.194C1269.6 657.441 1271.93 656.581 1274.76 656.336C1270.33 660.885 1267.01 665.557 1265.53 668.754L1239.21 673.664C1232.94 674.645 1228.88 680.916 1229.86 687.189C1230.84 693.462 1237.11 697.523 1243.38 696.541L1268.6 691.508C1281.4 702.461 1311.28 725.964 1340.55 724.745L1340.53 724.743ZM1313.88 632.122C1319.66 625.483 1322 619.581 1322.62 619.089L1323.85 618.105C1324.46 617.614 1328.89 613.065 1333.57 606.302C1333.69 610.238 1334.43 613.682 1334.55 617.618C1335.65 622.784 1337.37 627.458 1340.2 632.255C1335.28 631.147 1329.75 630.53 1324.7 630.528C1320.77 630.649 1317.32 631.386 1313.88 632.122ZM1250.32 563.962C1250.4 563.225 1250.4 563.225 1250.32 563.962L1251.55 562.979C1252.17 562.487 1255.98 558.43 1261.15 552.283C1260.66 556.71 1261.27 561.261 1262.5 565.32C1263.23 568.764 1264.59 571.716 1265.94 574.668C1262.62 574.298 1259.3 573.928 1256.47 574.173C1251.42 574.171 1247.37 575.399 1243.31 576.628C1246.88 569.742 1249.7 564.463 1250.32 563.962ZM1323.38 562.023C1326.45 574.692 1318.94 586.742 1313.65 593.996C1303.32 586.121 1288.44 573.816 1285.5 560.04C1282.43 547.371 1289.94 535.321 1295.23 528.067C1305.68 534.835 1319.94 547.632 1323.38 562.023ZM1407.24 613.956C1411.53 630.684 1400.83 646.299 1393.69 655.029C1380.66 646.292 1362.34 629.681 1357.55 612.338C1353.25 595.61 1363.96 579.995 1371.09 571.265C1384.13 580.002 1403.06 596.121 1407.24 613.956ZM1212.71 504.299C1209.64 491.63 1217.15 479.58 1222.44 472.325C1232.77 480.201 1247.64 492.505 1250.59 506.281C1253.66 518.95 1246.15 531 1240.86 538.254C1230.41 531.486 1215.66 518.074 1212.71 504.299ZM1155.5 560.113C1160.79 552.859 1170.88 542.778 1184.41 542.045C1198.43 541.928 1214.66 552.142 1224.99 560.017C1219.7 567.271 1209.61 577.352 1196.08 578.085C1181.93 579.31 1165.21 568.48 1155.5 560.113ZM1227.8 615.24C1233.09 607.986 1243.18 597.904 1256.09 597.663C1270.11 597.546 1286.34 607.76 1296.67 615.635C1291.38 622.89 1281.29 632.971 1268.37 633.212C1254.23 634.436 1237.51 623.607 1227.8 615.24ZM1325.43 654.142C1343.39 653.903 1364.29 667.439 1376.1 677.16C1369.45 686.504 1356.65 700.766 1339.8 701.129C1321.85 701.368 1300.95 687.831 1289.14 678.11C1295.79 668.766 1308.58 654.504 1325.43 654.142Z" fill="#777777"/>
<path d="M1107.19 505.98C1135.1 527.022 1174.7 518.551 1176.42 518.182C1178.15 517.814 1179.87 517.446 1181.71 515.971C1184.79 513.512 1186.27 510.315 1186.14 506.379C1185.78 504.657 1183.09 463.455 1155.67 443.029C1132.92 425.924 1101.8 428.618 1090.49 429.598L1072.91 416.431C1067.74 412.494 1060.36 413.352 1056.43 418.516C1052.49 423.68 1053.35 431.059 1058.51 434.997L1076.09 448.164C1076.58 448.779 1077.2 448.287 1077.69 448.902C1079.04 461.939 1086.04 489.614 1107.19 505.98ZM1140.78 460.979C1152.71 469.593 1158.23 485.338 1160.44 495.669C1149.74 496.157 1133.02 495.413 1121.71 486.307C1109.78 477.694 1104.25 461.949 1102.04 451.617C1112.74 451.129 1128.85 452.365 1140.78 460.979Z" fill="#777777"/>
<path d="M1173.15 391.749C1177.21 395.563 1184.47 395.812 1188.77 392.37L1190 391.387C1194.43 386.838 1194.19 378.967 1189.64 374.537L1173.41 359.28C1168.25 355.343 1160.37 355.586 1155.95 360.135C1151.52 364.684 1151.76 372.555 1156.31 376.984L1173.15 391.749Z" fill="#777777"/>
<path d="M1301.96 301.894L1303.19 300.911C1307.49 297.469 1309.34 290.951 1306.02 285.538L1294.71 266.348C1291.39 260.935 1284.88 259.088 1278.97 261.791C1273.56 265.11 1271.1 272.119 1274.91 278.147L1286.21 297.338C1288.92 303.242 1295.93 305.705 1301.96 301.894Z" fill="#777777"/>
<path d="M1062.52 559.832C1065.84 560.202 1068.79 558.85 1070.64 557.375C1073.1 555.408 1074.58 552.211 1074.95 548.89C1075.69 542.249 1071.26 536.713 1064.62 535.973L1042.48 533.504C1035.84 532.764 1030.31 537.189 1029.57 543.831C1028.83 550.472 1033.25 556.008 1039.89 556.748L1062.52 559.832Z" fill="#777777"/>
<path d="M1430.23 317.317C1431.46 316.334 1432.81 314.243 1433.55 312.645C1434.29 311.046 1451.27 274.279 1436.9 242.42C1425.59 218.187 1400.14 205.263 1388.33 200.585C1387.84 199.97 1388.45 199.478 1387.96 198.863L1378.99 178.813C1376.29 172.908 1369.28 170.446 1363.38 173.149C1357.47 175.853 1355.01 182.862 1357.71 188.767L1366.68 208.817C1362.74 219.024 1353.26 248.783 1365.43 275.353C1379.8 307.213 1419.4 318.912 1420.51 319.035C1423.21 319.897 1427.15 319.776 1430.23 317.317ZM1385.6 265.276C1379.83 251.745 1382.17 235.757 1385 225.428C1394.59 229.859 1408.73 238.719 1414.51 252.25C1420.28 265.781 1417.94 281.769 1415.11 292.099C1405.52 287.667 1391.38 278.807 1385.6 265.276Z" fill="#777777"/>
<path d="M1320.22 444.568C1323.05 444.323 1325.39 443.463 1327.85 441.496C1330.31 439.529 1331.67 437.439 1332.04 434.118C1332.77 432.52 1338.94 392.305 1316.69 365.731C1299.35 345.308 1271.44 339.394 1258.65 338.528L1243.9 320.074C1239.96 315.153 1232.22 314.289 1227.29 318.223C1222.37 322.157 1221.51 329.905 1225.44 334.826L1239.21 352.049C1237.98 363.118 1236.74 394.356 1255.54 416.625C1277.18 443.69 1318 444.33 1320.22 444.568ZM1297.62 380.974C1306.96 392.662 1308.55 408.528 1308.43 419.72C1297.97 417.994 1281.74 412.822 1272.89 401.75C1263.55 390.062 1261.96 374.196 1262.08 363.004C1272.54 364.73 1288.77 369.902 1297.62 380.974Z" fill="#777777"/>
<path d="M1524.55 335.679L1513.47 359.657C1511.14 360.517 1508.8 361.377 1505.23 363.221C1507.32 359.532 1508.92 355.228 1510.52 350.924C1517.42 324.238 1502.18 295.084 1496.16 283.767L1498.01 262.121C1498.75 255.48 1494.33 249.944 1487.69 249.204C1481.05 248.463 1475.51 252.889 1474.77 259.53L1473.29 277.854C1460.99 282.646 1438.35 294.69 1432.32 318.671C1431.95 321.991 1431.08 324.697 1430.71 328.017C1428.13 326.048 1425.55 324.08 1422.35 322.603C1399.48 311.648 1375.37 321.847 1364.05 327.869L1348.93 317.778C1343.77 313.84 1335.77 315.19 1332.33 320.969C1328.39 326.133 1329.74 334.128 1335.52 337.574L1354.7 351.479C1359.49 363.779 1371.9 393.178 1395.88 404.257C1400.18 405.857 1404.49 407.458 1408.3 408.443C1404.73 410.286 1401.78 411.638 1399.93 413.113L1374.48 405.232C1367.96 403.385 1361.93 407.195 1359.59 413.098C1357.75 419.615 1361.56 425.643 1367.46 427.982L1392.92 435.863C1398.2 448.779 1410.24 476.456 1433.11 487.411C1435.2 488.765 1437.42 489.011 1440.12 489.873C1433.73 491.962 1428.31 495.28 1424.75 497.124L1398.67 489.734C1392.16 487.887 1386.13 491.697 1383.79 497.6C1381.94 504.118 1385.75 510.146 1391.66 512.485L1417.73 519.874C1423.38 534.512 1438.12 568.093 1465.3 580.648C1500.34 598.003 1538.6 571.452 1539.83 570.469L1541.06 569.486L1542.17 569.609C1543.28 569.732 1560.62 564.943 1576.61 552.158C1586.46 544.29 1594.95 533.471 1598.77 519.328C1606.52 489.937 1590.06 456.724 1582.56 443.562L1593.02 420.075C1595.36 414.172 1592.78 407.161 1586.88 404.822C1580.98 402.483 1573.97 405.063 1571.63 410.965L1561.04 435.559C1556.98 436.787 1552.31 438.507 1546.89 441.826C1548.25 439.736 1548.49 437.522 1549.36 434.817C1556.01 410.345 1542.37 381.929 1535.85 369.997L1546.32 346.51C1548.65 340.607 1546.07 333.596 1540.17 331.257C1533.89 327.185 1526.88 329.765 1524.54 335.668L1524.55 335.679ZM1510.47 482.029C1509.37 486.948 1508.75 492.483 1508.75 497.525C1505.18 494.326 1500.51 491.003 1495.71 488.788C1492.52 487.311 1488.7 486.325 1484.89 485.34C1493.13 481.777 1498.05 477.843 1498.55 478.458L1499.78 477.474C1500.39 476.983 1506.66 476.001 1514.41 471.823C1512.94 475.02 1511.46 478.217 1510.47 482.029ZM1416.53 430.092C1424.77 426.529 1438.18 421.86 1449.86 427.645C1462.65 433.553 1472.48 450.899 1476.78 462.584C1468.54 466.148 1455.13 470.816 1443.45 465.031C1431.16 459.738 1421.32 442.393 1416.53 430.092ZM1468.44 411.787C1465.86 409.818 1463.28 407.849 1460.08 406.372C1455.77 404.772 1451.47 403.171 1447.66 402.186C1455.28 399.114 1460.21 395.18 1460.21 395.18L1461.44 394.197C1462.05 393.705 1467.83 392.108 1475.46 389.037C1473.37 392.725 1471.77 397.029 1470.16 401.333C1469.18 405.146 1468.81 408.466 1468.44 411.787ZM1455.07 325.69C1458.15 313.146 1470.2 305.526 1479.06 301.47C1485.08 312.788 1491.96 331.484 1487.65 345.011C1484.57 357.555 1472.52 365.176 1463.66 369.231C1458.25 357.422 1451.37 338.725 1455.07 325.69ZM1412.01 344.982C1424.8 350.891 1434.63 368.236 1438.93 379.921C1430.69 383.485 1417.29 388.153 1405.6 382.368C1392.81 376.46 1382.98 359.115 1378.68 347.429C1386.92 343.866 1400.33 339.198 1412.01 344.982ZM1476.13 558.884C1459.65 550.883 1448.1 528.864 1442.45 514.226C1452.54 509.187 1470.62 502.799 1485.5 510.061C1501.48 517.446 1513.53 540.081 1519.18 554.719C1509.09 559.757 1491.01 566.146 1476.13 558.884ZM1576.02 512.309C1571.95 528.665 1555.22 538.006 1544.64 542.43C1537.76 528.775 1528.05 505.281 1533.35 487.941C1537.41 471.586 1554.14 462.245 1564.72 457.821C1571.6 471.476 1580.7 495.462 1576.02 512.309ZM1526.11 427.182C1523.04 439.726 1510.98 447.347 1502.12 451.402C1496.1 440.085 1489.22 421.388 1493.53 407.861C1496.61 395.317 1508.67 387.696 1517.52 383.641C1522.93 395.45 1529.81 414.147 1526.11 427.182Z" fill="#777777"/>
<path d="M1144.52 643.495C1119.43 642.379 1101.22 659.959 1092.86 669.672L1074.78 665.975C1068.75 664.743 1061.62 668.43 1060.88 675.071C1060.14 681.712 1063.33 688.232 1069.97 688.972L1091.25 694.146C1099.24 702.881 1123.46 726.873 1150.15 728.728C1166.26 729.964 1179.42 722.467 1189.26 714.6C1200.33 705.749 1206.49 695.789 1207.1 695.297C1209.81 691.117 1209.32 685.459 1206.37 681.768C1203.42 678.078 1176.25 645.352 1144.52 643.495ZM1151.75 704.254C1137.86 703.265 1122.37 691.452 1113.27 682.593C1119.67 675.463 1130.74 666.612 1143.53 667.478C1157.43 668.467 1172.92 680.28 1182.02 689.138C1175.62 696.269 1164.55 705.12 1151.75 704.254Z" fill="#777777"/>
<path d="M1767.2 682.107C1692.28 725.862 1632.75 727.069 1589.85 684.744C1591.32 681.547 1592.8 678.35 1593.29 673.923C1594.16 666.175 1592.19 658.672 1587.28 652.52C1580.39 643.909 1569.57 640.461 1559.85 642.179C1549.78 622.005 1545.97 605.892 1545.97 605.892C1544.99 599.619 1538.1 596.05 1531.83 597.031C1525.56 598.013 1521.99 604.899 1522.97 611.172C1522.85 612.279 1527.51 630.729 1538.94 653.855L1532.17 659.264C1518.29 633.062 1512.02 613.873 1512.64 613.381C1510.55 606.985 1504.15 604.031 1497.88 605.013C1491.49 607.101 1488.53 613.495 1489.51 619.768C1489.39 620.875 1496.88 644.123 1513.72 674.015L1501.42 683.849C1475.97 660.841 1454.33 648.903 1453.83 648.288C1448.06 644.842 1441.04 647.422 1437.6 653.201C1434.15 658.98 1436.73 665.991 1442.51 669.437C1442.51 669.437 1460.96 679.898 1482.96 698.601L1476.2 704.01C1456.16 687.768 1439.19 679.152 1438.08 679.029C1432.18 676.69 1424.67 678.654 1422.34 684.557C1420 690.46 1421.96 697.963 1427.86 700.302C1427.86 700.302 1444.34 708.302 1462.29 723.191C1462.17 724.298 1461.43 725.896 1461.31 727.003C1460.44 734.751 1462.41 742.254 1467.33 748.405C1473.72 756.402 1483.92 760.341 1494.13 759.238C1527.07 810.537 1513.28 868.951 1453.48 932.882C1449.05 937.431 1449.29 945.302 1453.84 949.732C1457.9 953.546 1464.54 954.286 1469.46 950.353L1470.69 949.369C1553.99 860.604 1542.58 792.095 1515.54 748.178L1523.53 741.785C1559.18 788.904 1573.06 840.318 1565.78 895.537C1565.04 902.178 1569.47 907.714 1575.49 908.946C1578.81 909.317 1582.26 908.58 1584.72 906.613C1587.18 904.646 1588.53 902.556 1588.9 899.236C1597.9 838.606 1581.57 779.073 1541.99 727.034L1548.14 722.117C1590.18 772.189 1644.16 800.62 1705.78 805.809C1709.1 806.18 1712.05 804.828 1713.9 803.353C1716.36 801.386 1717.83 798.189 1718.2 794.868C1718.94 788.227 1713.41 782.567 1707.26 782.442C1651.67 778.485 1604.09 753.008 1566.59 707.365L1574.59 700.973C1611.96 737.638 1675.78 763.244 1780.72 701.544L1781.95 700.561C1786.25 697.119 1788.1 690.601 1784.78 685.188C1779.74 680.144 1773.22 678.296 1767.2 682.107ZM1493.53 734.518C1493.12 734.845 1493.12 734.845 1493.53 734.518C1491.07 736.484 1487.75 736.114 1485.78 733.654C1484.8 732.423 1484.43 730.701 1484.55 729.595C1484.67 728.488 1485.29 727.996 1485.41 726.889L1560.46 666.9C1562.92 664.933 1566.24 665.303 1568.21 667.764C1569.19 668.994 1569.56 670.716 1569.43 671.823C1569.31 672.93 1568.57 674.528 1567.34 675.512L1493.53 734.518Z" fill="#777777"/>
<path d="M1075.04 618.379L1096.45 612.361C1098.17 611.992 1099.4 611.009 1100.63 610.025C1104.32 607.075 1105.92 602.771 1104.81 597.605C1102.73 591.209 1096.33 588.255 1090.06 589.236L1068.66 595.255C1062.26 597.343 1058.81 603.122 1060.29 610.01C1062.38 616.406 1068.65 620.467 1075.04 618.379Z" fill="#777777"/>
</g>
</g>
<g opacity="0.03">
<g clip-path="url(#clip1_432_6170)">
<path d="M80.0358 724.743C65.4 724.133 52.9759 718.235 43.1338 710.367C27.7555 698.074 19.2632 682.212 18.5247 680.614L18.4013 679.507L17.171 678.523C15.9408 677.54 -18.3851 646.068 -9.17554 608.061C-2.29925 579.279 26.5944 557.007 39.6278 548.27L41.0933 521.212C41.4597 514.448 47.1154 509.895 53.8799 510.261C60.6444 510.628 65.1971 516.283 64.8307 523.048L63.3653 550.106C65.9492 553.179 69.7634 557.237 73.8244 563.507C73.5776 561.294 74.4376 558.957 74.6825 556.128C80.3305 531.405 104.06 513.071 116.11 505.564L118.191 478.998C118.557 472.233 124.213 467.68 130.977 468.047C137.742 468.413 142.295 474.069 141.928 480.833L139.848 507.399C141.693 508.875 143.662 511.457 146.246 514.53C145.752 510.103 146.365 505.552 147.594 501.493C153.118 475.663 179.061 457.082 190.005 449.699L199.343 427.926C202.047 422.022 208.441 419.068 214.837 421.156C220.742 423.859 223.696 430.254 221.608 436.65L215.096 453.625C223.463 463.338 238.721 484.609 233.073 509.331C232.337 512.775 230.985 515.728 229.633 518.68C232.954 518.31 236.274 517.939 239.103 518.184C263.824 518.79 280.558 538.215 287.941 549.159L306.143 546.569C312.784 545.828 318.32 550.254 319.06 556.895C319.801 563.536 315.376 569.072 308.734 569.813L287.213 572.773C278.607 581.016 252.418 602.426 224.869 601.576C219.826 601.578 215.767 600.349 211.708 599.121C213.677 601.703 215.646 604.285 216.999 606.375L242.829 611.9C249.102 612.881 253.163 619.152 252.181 625.425C251.2 631.698 244.929 635.759 238.656 634.777L213.442 629.745C203.237 638.727 179.016 657.676 153.188 657.194C150.974 657.441 148.637 656.581 145.808 656.336C150.238 660.885 153.56 665.557 155.037 668.754L181.358 673.664C187.631 674.645 191.692 680.916 190.711 687.189C189.729 693.462 183.458 697.523 177.186 696.541L151.971 691.508C139.165 702.461 109.288 725.964 80.016 724.745L80.0358 724.743ZM106.689 632.122C100.906 625.483 98.5666 619.581 97.9515 619.089L96.7212 618.105C96.1061 617.614 91.6768 613.065 87.0006 606.302C86.8792 610.238 86.1425 613.682 86.0211 617.618C84.9162 622.784 83.1961 627.458 80.3692 632.255C85.2883 631.147 90.8226 630.53 95.8651 630.528C99.8008 630.649 103.245 631.386 106.689 632.122ZM170.247 563.962C170.165 563.225 170.165 563.225 170.247 563.962L169.017 562.979C168.402 562.487 164.588 558.43 159.42 552.283C159.914 556.71 159.3 561.261 158.072 565.32C157.335 568.764 155.984 571.716 154.632 574.668C157.953 574.298 161.273 573.928 164.102 574.173C169.144 574.171 173.204 575.399 177.263 576.628C173.693 569.742 170.874 564.463 170.247 563.962ZM97.1916 562.023C94.1218 574.692 101.629 586.742 106.92 593.996C117.248 586.121 132.125 573.816 135.071 560.04C138.141 547.371 130.634 535.321 125.343 528.067C114.891 534.835 100.63 547.632 97.1916 562.023ZM13.3336 613.956C9.03541 630.684 19.7414 646.299 26.8781 655.029C39.9115 646.292 58.2303 629.681 63.0202 612.338C67.3184 595.61 56.6124 579.995 49.4757 571.265C36.4423 580.002 17.5083 596.121 13.3336 613.956ZM207.859 504.299C210.929 491.63 203.422 479.58 198.131 472.325C187.803 480.201 172.926 492.505 169.979 506.281C166.909 518.95 174.416 531 179.708 538.254C190.159 531.486 204.912 518.074 207.859 504.299ZM265.07 560.113C259.779 552.859 249.69 542.778 236.161 542.045C222.14 541.928 205.909 552.142 195.581 560.017C200.873 567.271 210.962 577.352 224.491 578.085C238.635 579.31 255.357 568.48 265.07 560.113ZM192.774 615.24C187.483 607.986 177.394 597.904 164.48 597.663C150.459 597.546 134.229 607.76 123.901 615.635C129.192 622.89 139.281 632.971 152.195 633.212C166.339 634.436 183.061 623.607 192.774 615.24ZM95.1362 654.142C77.1798 653.903 56.277 667.439 44.4739 677.16C51.1188 686.504 63.9151 700.766 80.7647 701.129C98.721 701.368 119.624 687.831 131.427 678.11C124.782 668.766 111.986 654.504 95.1362 654.142Z" fill="#777777"/>
<path d="M313.383 505.98C285.473 527.022 245.867 518.551 244.145 518.182C242.423 517.814 240.701 517.446 238.856 515.971C235.78 513.512 234.303 510.315 234.425 506.379C234.793 504.657 237.483 463.455 264.901 443.029C287.648 425.924 318.765 428.618 330.08 429.598L347.662 416.431C352.826 412.494 360.206 413.352 364.143 418.516C368.081 423.68 367.223 431.059 362.059 434.997L344.477 448.164C343.985 448.779 343.37 448.287 342.878 448.902C341.53 461.939 334.531 489.614 313.383 505.98ZM279.79 460.979C267.863 469.593 262.335 485.338 260.125 495.669C270.825 496.157 287.551 495.413 298.863 486.307C310.789 477.694 316.318 461.949 318.527 451.617C307.827 451.129 291.716 452.365 279.79 460.979Z" fill="#777777"/>
<path d="M247.418 391.749C243.36 395.563 236.104 395.812 231.798 392.37L230.568 391.387C226.139 386.838 226.382 378.967 230.931 374.537L247.159 359.28C252.323 355.343 260.195 355.586 264.624 360.135C269.053 364.684 268.81 372.555 264.261 376.984L247.418 391.749Z" fill="#777777"/>
<path d="M118.614 301.894L117.384 300.911C113.078 297.469 111.231 290.951 114.549 285.538L125.857 266.348C129.175 260.935 135.693 259.088 141.598 261.791C147.01 265.11 149.473 272.119 145.663 278.147L134.355 297.338C131.652 303.242 124.642 305.705 118.614 301.894Z" fill="#777777"/>
<path d="M358.049 559.832C354.728 560.202 351.776 558.85 349.931 557.375C347.47 555.408 345.993 552.211 345.623 548.89C344.882 542.249 349.308 536.713 355.949 535.973L378.086 533.504C384.727 532.764 390.263 537.189 391.004 543.831C391.744 550.472 387.319 556.008 380.678 556.748L358.049 559.832Z" fill="#777777"/>
<path d="M-9.65622 317.317C-10.8865 316.334 -12.2402 314.243 -12.9787 312.645C-13.7173 311.046 -30.7037 274.279 -16.3263 242.42C-5.02074 218.187 20.4329 205.263 32.2379 200.585C32.7297 199.97 32.1145 199.478 32.6062 198.863L41.5767 178.813C44.2801 172.908 51.2895 170.446 57.194 173.149C63.0985 175.853 65.5609 182.862 62.8574 188.767L53.887 208.817C57.8266 219.024 67.3081 248.783 55.1424 275.353C40.7651 307.213 1.16736 318.912 0.0605134 319.035C-2.64489 319.897 -6.58057 319.776 -9.65622 317.317ZM34.9685 265.276C40.7438 251.745 38.4009 235.757 35.5682 225.428C25.9768 229.859 11.8365 238.719 6.06128 252.25C0.286028 265.781 2.62893 281.769 5.46163 292.099C15.053 287.667 29.1933 278.807 34.9685 265.276Z" fill="#777777"/>
<path d="M100.344 444.568C97.5156 444.323 95.1786 443.463 92.718 441.496C90.2575 439.529 88.9038 437.439 88.5336 434.118C87.7951 432.52 81.6302 392.305 103.881 365.731C121.214 345.308 149.13 339.394 161.921 338.528L176.672 320.074C180.606 315.153 188.354 314.289 193.275 318.223C198.196 322.157 199.06 329.905 195.126 334.826L181.358 352.049C182.592 363.118 183.834 394.356 165.026 416.625C143.39 443.69 102.569 444.33 100.344 444.568ZM122.95 380.974C113.607 392.662 112.015 408.528 112.142 419.72C122.595 417.994 138.828 412.822 147.679 401.75C157.021 390.062 158.614 374.196 158.487 363.004C148.033 364.73 131.801 369.902 122.95 380.974Z" fill="#777777"/>
<path d="M-103.982 335.679L-92.9035 359.657C-90.5664 360.517 -88.2293 361.377 -84.6619 363.221C-86.7541 359.532 -88.3546 355.228 -89.9551 350.924C-96.8527 324.238 -81.6134 295.084 -75.5913 283.767L-77.4445 262.121C-78.1849 255.48 -73.7595 249.944 -67.1184 249.204C-60.4773 248.463 -54.9411 252.889 -54.2007 259.53L-52.7178 277.854C-40.4171 282.646 -17.7826 294.69 -11.747 318.671C-11.3768 321.991 -10.5148 324.697 -10.1446 328.017C-7.56259 326.048 -4.98057 324.08 -1.78345 322.603C21.0882 311.648 45.1978 321.847 56.515 327.869L71.6387 317.778C76.8027 313.84 84.7974 315.19 88.2433 320.969C92.1809 326.133 90.8311 334.128 85.052 337.574L65.8712 351.479C61.0794 363.779 48.6688 393.178 24.6904 404.257C20.3864 405.857 16.0824 407.458 12.2702 408.443C15.8375 410.286 18.7898 411.638 20.6352 413.113L46.0907 405.232C52.6084 403.385 58.6363 407.195 60.9753 413.098C62.8226 419.615 59.0123 425.643 53.1098 427.982L27.6542 435.863C22.3707 448.779 10.3285 476.456 -12.5431 487.411C-14.6334 488.765 -16.8471 489.011 -19.5525 489.873C-13.1563 491.962 -7.74354 495.28 -4.17616 497.124L21.8945 489.734C28.4122 487.887 34.4401 491.697 36.7791 497.6C38.6264 504.118 34.8161 510.146 28.9136 512.485L2.8429 519.874C-2.80894 534.512 -17.5546 568.093 -44.7302 580.648C-79.7752 598.003 -118.035 571.452 -119.265 570.469L-120.495 569.486L-121.602 569.609C-122.709 569.732 -140.052 564.943 -156.046 552.158C-165.888 544.29 -174.378 533.471 -178.196 519.328C-185.956 489.937 -169.488 456.724 -161.991 443.562L-172.454 420.075C-174.793 414.172 -172.213 407.161 -166.31 404.822C-160.408 402.483 -153.396 405.063 -151.057 410.965L-140.471 435.559C-136.412 436.787 -131.738 438.507 -126.325 441.826C-127.678 439.736 -127.925 437.522 -128.787 434.817C-135.438 410.345 -121.797 381.929 -115.283 369.997L-125.746 346.51C-128.085 340.607 -125.505 333.596 -119.603 331.257C-113.323 327.185 -106.312 329.765 -103.973 335.668L-103.982 335.679ZM-89.9048 482.029C-88.796 486.948 -88.1789 492.483 -88.177 497.525C-84.6116 494.326 -79.9393 491.003 -75.1436 488.788C-71.9465 487.311 -68.1342 486.325 -64.322 485.34C-72.5636 481.777 -77.4846 477.843 -77.9763 478.458L-79.2066 477.474C-79.8217 476.983 -86.0945 476.001 -93.8443 471.823C-92.3672 475.02 -90.8902 478.217 -89.9048 482.029ZM4.03828 430.092C-4.2033 426.529 -17.6108 421.86 -29.2925 427.645C-42.081 433.553 -51.9134 450.899 -56.2135 462.584C-47.9719 466.148 -34.5644 470.816 -22.8827 465.031C-10.5859 459.738 -0.753534 442.393 4.03828 430.092ZM-47.8698 411.787C-45.2878 409.818 -42.7058 407.849 -39.5087 406.372C-35.2047 404.772 -30.9007 403.171 -27.0885 402.186C-34.7149 399.114 -39.636 395.18 -39.636 395.18L-40.8662 394.197C-41.4814 393.705 -47.2624 392.108 -54.8888 389.037C-52.7966 392.725 -51.1961 397.029 -49.5956 401.333C-48.6103 405.146 -48.24 408.466 -47.8698 411.787ZM-34.4972 325.69C-37.5767 313.146 -49.6324 305.526 -58.4891 301.47C-64.5112 312.788 -71.3914 331.484 -67.0816 345.011C-64.0021 357.555 -51.9463 365.176 -43.0896 369.231C-37.6827 357.422 -30.8025 338.725 -34.4972 325.69ZM8.55615 344.982C-4.23236 350.891 -14.0647 368.236 -18.3648 379.921C-10.1233 383.485 3.28425 388.153 14.9659 382.368C27.7544 376.46 37.5868 359.115 41.8869 347.429C33.6453 343.866 20.2378 339.198 8.55615 344.982ZM-55.5616 558.884C-39.0842 550.883 -27.5318 528.864 -21.8799 514.226C-31.9669 509.187 -50.0486 502.799 -64.9274 510.061C-80.913 517.446 -92.9572 540.081 -98.609 554.719C-88.5221 559.757 -70.4403 566.146 -55.5616 558.884ZM-155.446 512.309C-151.381 528.665 -134.651 538.006 -124.072 542.43C-117.19 528.775 -107.483 505.281 -112.778 487.941C-116.843 471.586 -133.573 462.245 -144.152 457.821C-151.034 471.476 -160.126 495.462 -155.446 512.309ZM-105.545 427.182C-102.466 439.726 -90.4101 447.347 -81.5533 451.402C-75.5313 440.085 -68.6511 421.388 -72.9609 407.861C-76.0404 395.317 -88.0962 387.696 -96.9529 383.641C-102.36 395.45 -109.24 414.147 -105.545 427.182Z" fill="#777777"/>
<path d="M276.047 643.495C301.137 642.379 319.346 659.959 327.713 669.672L345.79 665.975C351.816 664.743 358.951 668.43 359.692 675.071C360.432 681.712 357.237 688.232 350.596 688.972L329.321 694.146C321.33 702.881 297.11 726.873 270.423 728.728C254.312 729.964 241.149 722.467 231.307 714.6C220.235 705.749 214.081 695.789 213.466 695.297C210.759 691.117 211.249 685.459 214.199 681.768C217.149 678.078 244.317 645.352 276.047 643.495ZM268.814 704.254C282.712 703.265 298.204 691.452 307.301 682.593C300.903 675.463 289.831 666.612 277.04 667.478C263.143 668.467 247.651 680.28 238.553 689.138C244.952 696.269 256.024 705.12 268.814 704.254Z" fill="#777777"/>
<path d="M-346.627 682.107C-271.71 725.862 -212.183 727.069 -169.277 684.744C-170.754 681.547 -172.231 678.35 -172.724 673.923C-173.588 666.175 -171.623 658.672 -166.706 652.52C-159.822 643.909 -149 640.461 -139.284 642.179C-129.206 622.005 -125.4 605.892 -125.4 605.892C-124.419 599.619 -117.533 596.05 -111.26 597.031C-104.987 598.013 -101.418 604.899 -102.399 611.172C-102.276 612.279 -106.942 630.729 -118.371 653.855L-111.605 659.264C-97.7172 633.062 -91.4522 613.873 -92.0673 613.381C-89.979 606.985 -83.5847 604.031 -77.3119 605.013C-70.9158 607.101 -67.9616 613.495 -68.9431 619.768C-68.8197 620.875 -76.313 644.123 -93.1509 674.015L-80.8483 683.849C-55.3986 660.841 -33.7572 648.903 -33.2655 648.288C-27.4864 644.842 -20.4751 647.422 -17.0292 653.201C-13.5833 658.98 -16.1633 665.991 -21.9425 669.437C-21.9425 669.437 -40.3867 679.898 -62.3944 698.601L-55.628 704.01C-35.5871 687.768 -18.6181 679.152 -17.5112 679.029C-11.6087 676.69 -4.10564 678.654 -1.7666 684.557C0.572452 690.46 -1.39247 697.963 -7.29501 700.302C-7.29501 700.302 -23.7724 708.302 -41.7229 723.191C-41.5995 724.298 -40.861 725.896 -40.7376 727.003C-39.8737 734.751 -41.8386 742.254 -46.7558 748.405C-53.1481 756.402 -63.3546 760.341 -73.563 759.238C-106.504 810.537 -92.7071 868.951 -32.9102 932.882C-28.4809 937.431 -28.7238 945.302 -33.2727 949.732C-37.3298 953.546 -43.9709 954.286 -48.892 950.353L-50.1222 949.369C-133.419 860.604 -122.008 792.095 -94.9672 748.178L-102.964 741.785C-138.612 788.904 -152.49 840.318 -145.213 895.537C-144.472 902.178 -148.898 907.714 -154.924 908.946C-158.244 909.317 -161.688 908.58 -164.149 906.613C-166.609 904.646 -167.963 902.556 -168.333 899.236C-177.335 838.606 -161 779.073 -121.418 727.034L-127.569 722.117C-169.612 772.189 -223.593 800.62 -285.208 805.809C-288.528 806.18 -291.481 804.828 -293.326 803.353C-295.787 801.386 -297.264 798.189 -297.634 794.868C-298.374 788.227 -292.842 782.567 -286.693 782.442C-231.104 778.485 -183.517 753.008 -146.023 707.365L-154.02 700.973C-191.394 737.638 -255.215 763.244 -360.148 701.544L-361.378 700.561C-365.684 697.119 -367.531 690.601 -364.213 685.188C-359.172 680.144 -352.655 678.296 -346.627 682.107ZM-72.9576 734.518C-72.5475 734.845 -72.5475 734.845 -72.9576 734.518C-70.4971 736.484 -67.1765 736.114 -65.2097 733.654C-64.2262 732.423 -63.8579 730.701 -63.9814 729.595C-64.1048 728.488 -64.7199 727.996 -64.8433 726.889L-139.889 666.9C-142.35 664.933 -145.67 665.303 -147.637 667.764C-148.621 668.994 -148.989 670.716 -148.865 671.823C-148.742 672.93 -148.003 674.528 -146.773 675.512L-72.9576 734.518Z" fill="#777777"/>
<path d="M345.526 618.379L324.124 612.361C322.402 611.992 321.172 611.009 319.942 610.025C316.251 607.075 314.65 602.771 315.755 597.605C317.844 591.209 324.238 588.255 330.511 589.236L351.913 595.255C358.309 597.343 361.755 603.122 360.282 610.01C358.193 616.406 351.923 620.467 345.526 618.379Z" fill="#777777"/>
</g>
</g>
<defs>
<clipPath id="clip0_432_6170">
<rect width="713.933" height="711.472" fill="white" transform="translate(930.335 518.859) rotate(-38.6378)"/>
</clipPath>
<clipPath id="clip1_432_6170">
<rect width="713.933" height="711.472" fill="white" transform="matrix(-0.781109 -0.624395 -0.624395 0.781109 490.234 518.859)"/>
</clipPath>
</defs>
</svg>
