<svg width="24" height="20" viewBox="0 0 24 20" fill="none" xmlns="http://www.w3.org/2000/svg">
<g clip-path="url(#clip0_40_3384)">
<path d="M23.8484 8.34106V9.00465C23.8484 9.55439 23.4035 10 22.8547 10H22.5235L21.4423 17.5811C21.3025 18.5618 20.464 19.2903 19.475 19.2903H4.37345C3.38445 19.2903 2.54594 18.5618 2.40604 17.5811L1.32491 10H0.993684C0.444881 10 0 9.55439 0 9.00465V8.34106C0 7.79132 0.444881 7.34568 0.993684 7.34568H3.78184L8.2029 1.25636C8.63329 0.663612 9.46186 0.532512 10.0537 0.963638C10.6455 1.39476 10.7763 2.22479 10.3459 2.81758L7.05834 7.34568H16.7901L13.5025 2.81754C13.0721 2.22479 13.203 1.39472 13.7948 0.963597C14.3865 0.53247 15.2152 0.663529 15.6456 1.25632L20.0666 7.34568H22.8547C23.4035 7.34568 23.8484 7.79132 23.8484 8.34106ZM12.9179 15.6406V10.9954C12.9179 10.4457 12.473 10 11.9242 10C11.3754 10 10.9305 10.4457 10.9305 10.9954V15.6406C10.9305 16.1903 11.3754 16.6359 11.9242 16.6359C12.473 16.6359 12.9179 16.1903 12.9179 15.6406ZM17.5551 15.6406V10.9954C17.5551 10.4457 17.1102 10 16.5614 10C16.0126 10 15.5677 10.4457 15.5677 10.9954V15.6406C15.5677 16.1903 16.0126 16.6359 16.5614 16.6359C17.1102 16.6359 17.5551 16.1903 17.5551 15.6406ZM8.2807 15.6406V10.9954C8.2807 10.4457 7.83582 10 7.28702 10C6.73821 10 6.29333 10.4457 6.29333 10.9954V15.6406C6.29333 16.1903 6.73821 16.6359 7.28702 16.6359C7.83582 16.6359 8.2807 16.1903 8.2807 15.6406Z" fill="#A5340F"/>
</g>
<defs>
<clipPath id="clip0_40_3384">
<rect width="24" height="18.5806" fill="white" transform="translate(0 0.709656)"/>
</clipPath>
</defs>
</svg>
