<svg width="722" height="851" viewBox="0 0 722 851" fill="none" xmlns="http://www.w3.org/2000/svg">
<g clip-path="url(#clip0_152_4266)">
<path d="M410.535 651.743C425.17 651.133 437.594 645.235 447.437 637.367C462.815 625.074 471.307 609.212 472.046 607.614L472.169 606.507L473.399 605.523C474.63 604.54 508.955 573.068 499.746 535.061C492.87 506.279 463.976 484.007 450.942 475.27L449.477 448.212C449.111 441.448 443.455 436.895 436.69 437.261C429.926 437.628 425.373 443.283 425.74 450.048L427.205 477.106C424.621 480.18 420.807 484.237 416.746 490.508C416.993 488.294 416.133 485.957 415.888 483.128C410.24 458.405 386.51 440.071 374.46 432.564L372.38 405.998C372.013 399.233 366.358 394.68 359.593 395.047C352.829 395.413 348.276 401.069 348.642 407.833L350.723 434.4C348.877 435.875 346.909 438.457 344.325 441.53C344.818 437.103 344.205 432.552 342.977 428.493C337.452 402.663 311.509 384.082 300.566 376.699L291.227 354.926C288.523 349.022 282.129 346.068 275.733 348.156C269.829 350.859 266.874 357.254 268.963 363.65L275.475 380.625C267.108 390.338 251.849 411.609 257.497 436.332C258.234 439.775 259.585 442.728 260.937 445.68C257.616 445.31 254.296 444.939 251.467 445.184C226.746 445.79 210.012 465.216 202.629 476.159L184.428 473.569C177.786 472.828 172.25 477.254 171.51 483.895C170.769 490.536 175.195 496.072 181.836 496.813L203.358 499.773C211.964 508.016 238.152 529.426 265.702 528.576C270.744 528.578 274.803 527.349 278.862 526.121C276.894 528.703 274.925 531.285 273.571 533.375L247.741 538.9C241.469 539.881 237.408 546.152 238.389 552.425C239.371 558.698 245.641 562.759 251.914 561.777L277.129 556.745C287.333 565.727 311.555 584.676 337.382 584.194C339.596 584.441 341.933 583.581 344.762 583.336C340.333 587.885 337.01 592.557 335.533 595.754L309.212 600.664C302.939 601.645 298.878 607.916 299.86 614.189C300.841 620.462 307.112 624.523 313.385 623.541L338.599 618.508C351.406 629.461 381.283 652.964 410.554 651.745L410.535 651.743ZM383.882 559.122C389.665 552.483 392.004 546.581 392.619 546.089L393.849 545.106C394.464 544.614 398.894 540.065 403.57 533.302C403.691 537.238 404.428 540.682 404.549 544.618C405.654 549.784 407.374 554.458 410.201 559.255C405.282 558.147 399.748 557.53 394.705 557.528C390.77 557.649 387.326 558.386 383.882 559.122ZM320.323 490.962C320.405 490.225 320.405 490.225 320.323 490.962L321.553 489.979C322.168 489.487 325.983 485.43 331.15 479.283C330.657 483.71 331.27 488.261 332.498 492.32C333.235 495.764 334.587 498.716 335.938 501.668C332.618 501.298 329.297 500.928 326.468 501.173C321.426 501.171 317.367 502.399 313.308 503.628C316.877 496.742 319.697 491.463 320.323 490.962ZM393.379 489.023C396.449 501.692 388.942 513.742 383.65 520.996C373.322 513.121 358.445 500.816 355.499 487.04C352.429 474.371 359.936 462.321 365.227 455.067C375.679 461.835 389.941 474.632 393.379 489.023ZM477.237 540.956C481.535 557.684 470.829 573.299 463.692 582.029C450.659 573.292 432.34 556.681 427.55 539.338C423.252 522.61 433.958 506.995 441.095 498.265C454.128 507.002 473.062 523.121 477.237 540.956ZM282.711 431.299C279.642 418.63 287.149 406.58 292.44 399.325C302.768 407.201 317.645 419.505 320.591 433.281C323.661 445.95 316.154 458 310.863 465.254C300.411 458.486 285.658 445.075 282.711 431.299ZM225.5 487.113C230.792 479.859 240.881 469.778 254.41 469.045C268.43 468.928 284.661 479.142 294.989 487.017C289.698 494.271 279.609 504.353 266.08 505.085C251.936 506.31 235.213 495.48 225.5 487.113ZM297.796 542.24C303.088 534.986 313.177 524.904 326.09 524.663C340.111 524.546 356.342 534.76 366.67 542.635C361.378 549.89 351.289 559.971 338.376 560.212C324.231 561.436 307.509 550.607 297.796 542.24ZM395.434 581.142C413.39 580.903 434.293 594.439 446.096 604.16C439.451 613.505 426.655 627.766 409.806 628.129C391.849 628.368 370.946 614.831 359.143 605.11C365.788 595.766 378.585 581.504 395.434 581.142Z" fill="#777777" fill-opacity="0.3"/>
<path d="M177.187 432.98C205.098 454.022 244.703 445.551 246.425 445.182C248.147 444.814 249.869 444.446 251.715 442.971C254.79 440.512 256.267 437.315 256.146 433.379C255.778 431.657 253.088 390.455 225.669 370.029C202.923 352.925 171.806 355.618 160.49 356.598L142.908 343.431C137.744 339.494 130.365 340.352 126.427 345.516C122.489 350.68 123.347 358.059 128.511 361.997L146.094 375.164C146.585 375.779 147.201 375.287 147.692 375.902C149.04 388.939 156.04 416.614 177.187 432.98ZM210.781 387.979C222.707 396.593 228.236 412.338 230.445 422.669C219.745 423.157 203.019 422.413 191.708 413.307C179.781 404.694 174.253 388.949 172.043 378.617C182.743 378.129 198.854 379.365 210.781 387.979Z" fill="#777777" fill-opacity="0.3"/>
<path d="M243.152 318.749C247.209 322.563 254.465 322.812 258.771 319.37L260.001 318.387C264.431 313.838 264.188 305.967 259.639 301.537L243.41 286.28C238.246 282.343 230.375 282.586 225.946 287.135C221.516 291.684 221.759 299.555 226.308 303.984L243.152 318.749Z" fill="#777777" fill-opacity="0.3"/>
<path d="M371.955 228.894L373.185 227.911C377.491 224.469 379.339 217.951 376.02 212.538L364.712 193.348C361.394 187.935 354.876 186.088 348.972 188.791C343.559 192.11 341.096 199.119 344.907 205.147L356.214 224.338C358.918 230.242 365.927 232.705 371.955 228.894Z" fill="#777777" fill-opacity="0.3"/>
<path d="M132.521 486.832C135.842 487.202 138.794 485.85 140.64 484.375C143.1 482.408 144.577 479.211 144.947 475.891C145.688 469.249 141.263 463.713 134.621 462.973L112.484 460.505C105.843 459.764 100.307 464.189 99.5667 470.831C98.8263 477.472 103.252 483.008 109.893 483.748L132.521 486.832Z" fill="#777777" fill-opacity="0.3"/>
<path d="M500.228 244.317C501.458 243.334 502.811 241.243 503.55 239.645C504.289 238.046 521.275 201.279 506.898 169.42C495.592 145.187 470.138 132.263 458.333 127.585C457.842 126.97 458.457 126.478 457.965 125.863L448.995 105.813C446.291 99.9082 439.282 97.4458 433.377 100.149C427.473 102.853 425.01 109.862 427.714 115.767L436.684 135.817C432.745 146.024 423.263 175.783 435.429 202.353C449.806 234.213 489.404 245.912 490.511 246.035C493.216 246.897 497.152 246.776 500.228 244.317ZM455.603 192.276C449.828 178.745 452.17 162.757 455.003 152.428C464.595 156.859 478.735 165.719 484.51 179.25C490.285 192.781 487.942 208.769 485.11 219.099C475.518 214.667 461.378 205.807 455.603 192.276Z" fill="#777777" fill-opacity="0.3"/>
<path d="M390.226 371.568C393.055 371.323 395.392 370.463 397.852 368.496C400.313 366.529 401.666 364.439 402.037 361.118C402.775 359.52 408.94 319.305 386.689 292.731C369.356 272.308 341.44 266.394 328.649 265.528L313.898 247.074C309.964 242.153 302.216 241.289 297.295 245.223C292.374 249.157 291.51 256.905 295.444 261.826L309.212 279.049C307.978 290.118 306.736 321.356 325.545 343.625C347.18 370.69 388.001 371.33 390.226 371.568ZM367.62 307.974C376.963 319.662 378.556 335.528 378.429 346.72C367.975 344.994 351.743 339.822 342.892 328.75C333.549 317.062 331.956 301.196 332.084 290.004C342.537 291.73 358.77 296.902 367.62 307.974Z" fill="#777777" fill-opacity="0.3"/>
<path d="M594.552 262.679L583.474 286.657C581.137 287.517 578.8 288.377 575.232 290.221C577.324 286.532 578.925 282.228 580.525 277.924C587.423 251.238 572.184 222.084 566.162 210.767L568.015 189.121C568.755 182.48 564.33 176.944 557.689 176.204C551.048 175.463 545.511 179.889 544.771 186.53L543.288 204.854C530.987 209.646 508.353 221.69 502.317 245.671C501.947 248.991 501.085 251.697 500.715 255.017C498.133 253.048 495.551 251.08 492.354 249.603C469.482 238.648 445.373 248.847 434.055 254.869L418.932 244.778C413.768 240.84 405.773 242.19 402.327 247.969C398.389 253.133 399.739 261.128 405.518 264.574L424.699 278.479C429.491 290.779 441.901 320.178 465.88 331.257C470.184 332.857 474.488 334.458 478.3 335.443C474.733 337.286 471.781 338.638 469.935 340.113L444.48 332.232C437.962 330.385 431.934 334.195 429.595 340.098C427.748 346.615 431.558 352.643 437.461 354.982L462.916 362.863C468.2 375.779 480.242 403.456 503.113 414.411C505.204 415.765 507.417 416.011 510.123 416.873C503.727 418.962 498.314 422.28 494.746 424.124L468.676 416.735C462.158 414.887 456.13 418.698 453.791 424.6C451.944 431.118 455.754 437.146 461.657 439.485L487.727 446.874C493.379 461.512 508.125 495.093 535.301 507.648C570.346 525.003 608.605 498.452 609.835 497.469L611.066 496.486L612.172 496.609C613.279 496.732 630.622 491.943 646.616 479.158C656.458 471.29 664.948 460.471 668.766 446.329C676.526 416.937 660.058 383.724 652.561 370.562L663.024 347.075C665.363 341.172 662.783 334.161 656.88 331.822C650.978 329.483 643.967 332.063 641.628 337.965L631.041 362.559C626.982 363.787 622.308 365.507 616.895 368.826C618.249 366.736 618.496 364.522 619.358 361.817C626.008 337.345 612.367 308.929 605.854 296.997L616.317 273.51C618.656 267.607 616.076 260.596 610.173 258.257C603.894 254.185 596.882 256.765 594.543 262.668L594.552 262.679ZM580.475 409.029C579.366 413.948 578.749 419.483 578.747 424.525C575.182 421.326 570.51 418.004 565.714 415.788C562.517 414.311 558.705 413.325 554.892 412.34C563.134 408.777 568.055 404.843 568.547 405.458L569.777 404.475C570.392 403.983 576.665 403.001 584.415 398.823C582.938 402.02 581.46 405.217 580.475 409.029ZM486.532 357.092C494.774 353.529 508.181 348.86 519.863 354.645C532.651 360.553 542.484 377.899 546.784 389.584C538.542 393.148 525.135 397.816 513.453 392.031C501.156 386.738 491.324 369.393 486.532 357.092ZM538.44 338.787C535.858 336.818 533.276 334.849 530.079 333.372C525.775 331.772 521.471 330.171 517.659 329.186C525.285 326.114 530.206 322.18 530.206 322.18L531.437 321.197C532.052 320.705 537.833 319.108 545.459 316.037C543.367 319.725 541.766 324.029 540.166 328.333C539.181 332.146 538.81 335.466 538.44 338.787ZM525.067 252.69C528.147 240.146 540.203 232.526 549.059 228.47C555.082 239.788 561.962 258.484 557.652 272.012C554.572 284.555 542.517 292.176 533.66 296.231C528.253 284.422 521.373 265.725 525.067 252.69ZM482.014 271.982C494.803 277.891 504.635 295.236 508.935 306.921C500.694 310.485 487.286 315.153 475.604 309.368C462.816 303.46 452.983 286.115 448.683 274.429C456.925 270.866 470.332 266.198 482.014 271.982ZM546.132 485.884C529.655 477.883 518.102 455.864 512.45 441.226C522.537 436.187 540.619 429.799 555.498 437.061C571.483 444.446 583.527 467.081 589.179 481.719C579.092 486.757 561.011 493.146 546.132 485.884ZM646.016 439.309C641.951 455.665 625.221 465.006 614.643 469.43C607.761 455.775 598.054 432.281 603.349 414.941C607.414 398.586 624.144 389.245 634.722 384.821C641.604 398.476 650.696 422.462 646.016 439.309ZM596.116 354.182C593.036 366.726 580.98 374.347 572.124 378.402C566.102 367.085 559.221 348.388 563.531 334.861C566.611 322.317 578.667 314.697 587.523 310.641C592.93 322.45 599.81 341.147 596.116 354.182Z" fill="#777777" fill-opacity="0.3"/>
<path d="M681.419 161.985C675.27 161.859 669.61 167.392 669.485 173.541L669.724 191.497C658.407 197.519 636.632 211.901 632.81 236.128C627.633 267.488 653.079 300.581 655.414 304.764C658.364 308.455 663.775 310.179 668.449 308.459C669.064 307.967 680.135 304.159 691.207 295.308C701.049 287.44 710.154 276.129 713.604 260.265C718.288 233.332 700.097 205.53 692.844 195.196L692.484 173.304C693.716 167.278 688.184 161.618 681.419 161.985ZM690.484 256.566C688.511 269.233 676.947 277.469 669.074 282.754C662.437 271.929 653.711 254.707 656.422 240.442C658.395 227.774 669.959 219.539 677.832 214.253C683.854 225.57 692.58 242.792 690.484 256.566Z" fill="#777777" fill-opacity="0.3"/>
<path d="M214.523 570.495C189.434 569.379 171.225 586.959 162.858 596.672L144.78 592.975C138.754 591.743 131.619 595.43 130.879 602.071C130.138 608.712 133.334 615.232 139.975 615.972L161.25 621.146C169.24 629.881 193.46 653.873 220.148 655.728C236.259 656.964 249.421 649.467 259.263 641.6C270.336 632.749 276.489 622.789 277.104 622.297C279.811 618.117 279.322 612.459 276.371 608.768C273.421 605.078 246.253 572.352 214.523 570.495ZM221.756 631.254C207.859 630.265 192.367 618.452 183.269 609.593C189.667 602.463 200.739 593.612 213.53 594.478C227.427 595.467 242.919 607.28 252.017 616.138C245.619 623.269 234.546 632.12 221.756 631.254Z" fill="#777777" fill-opacity="0.3"/>
<path d="M837.197 609.107C762.28 652.862 702.754 654.069 659.847 611.744C661.324 608.547 662.801 605.35 663.295 600.923C664.159 593.175 662.194 585.672 657.276 579.52C650.392 570.909 639.571 567.461 629.854 569.179C619.777 549.005 615.97 532.892 615.97 532.892C614.989 526.619 608.103 523.05 601.83 524.031C595.557 525.013 591.988 531.899 592.97 538.172C592.846 539.279 597.513 557.729 608.942 580.855L602.175 586.264C588.288 560.062 582.023 540.873 582.638 540.381C580.549 533.985 574.155 531.031 567.882 532.013C561.486 534.101 558.532 540.495 559.513 546.768C559.39 547.875 566.883 571.123 583.721 601.015L571.419 610.849C545.969 587.841 524.328 575.903 523.836 575.288C518.057 571.842 511.045 574.422 507.6 580.201C504.154 585.98 506.734 592.991 512.513 596.437C512.513 596.437 530.957 606.898 552.965 625.601L546.198 631.01C526.157 614.768 509.188 606.152 508.082 606.029C502.179 603.69 494.676 605.654 492.337 611.557C489.998 617.46 491.963 624.963 497.865 627.302C497.865 627.302 514.343 635.302 532.293 650.191C532.17 651.298 531.431 652.896 531.308 654.003C530.444 661.751 532.409 669.254 537.326 675.405C543.718 683.402 553.925 687.341 564.133 686.238C597.075 737.537 583.277 795.951 523.481 859.882C519.051 864.431 519.294 872.302 523.843 876.732C527.9 880.546 534.541 881.286 539.462 877.353L540.693 876.369C623.99 787.604 612.578 719.095 585.538 675.178L593.534 668.785C629.183 715.904 643.061 767.318 635.783 822.537C635.043 829.178 639.468 834.714 645.494 835.946C648.815 836.317 652.259 835.58 654.719 833.613C657.18 831.646 658.533 829.556 658.904 826.236C667.905 765.606 651.57 706.073 611.988 654.034L618.139 649.117C660.182 699.189 714.163 727.62 775.778 732.809C779.099 733.18 782.051 731.828 783.896 730.353C786.357 728.386 787.834 725.189 788.204 721.868C788.945 715.227 783.412 709.567 777.263 709.442C721.674 705.485 674.087 680.008 636.593 634.365L644.59 627.973C681.964 664.638 745.785 690.244 850.718 628.544L851.948 627.561C856.254 624.119 858.102 617.601 854.783 612.188C849.742 607.144 843.225 605.296 837.197 609.107ZM563.528 661.518C563.118 661.845 563.118 661.845 563.528 661.518C561.067 663.484 557.747 663.114 555.78 660.654C554.797 659.423 554.428 657.701 554.552 656.595C554.675 655.488 555.29 654.996 555.414 653.889L630.46 593.9C632.92 591.933 636.241 592.303 638.207 594.764C639.191 595.994 639.559 597.716 639.436 598.823C639.312 599.93 638.574 601.528 637.344 602.512L563.528 661.518Z" fill="#777777" fill-opacity="0.3"/>
<path d="M145.044 545.379L166.446 539.361C168.168 538.992 169.398 538.009 170.629 537.026C174.32 534.075 175.92 529.771 174.815 524.605C172.727 518.209 166.333 515.255 160.06 516.236L138.657 522.255C132.261 524.343 128.815 530.122 130.289 537.01C132.377 543.406 138.648 547.467 145.044 545.379Z" fill="#777777" fill-opacity="0.3"/>
<path d="M563.234 146.566C565.694 144.599 567.663 142.017 567.418 139.188L569.887 117.051C570.627 110.41 566.202 104.874 559.561 104.133C552.919 103.393 547.383 107.818 546.643 114.459L544.175 136.596C543.434 143.237 547.859 148.774 554.501 149.514C557.329 149.269 560.773 148.533 563.234 146.566Z" fill="#777777" fill-opacity="0.3"/>
<path d="M590.036 172.526C586.59 178.306 589.171 185.317 594.95 188.763C599.13 191.47 604.296 190.365 607.987 187.415C609.217 186.432 610.447 185.448 611.186 183.85L621.77 164.298C625.216 158.519 622.636 151.508 616.857 148.062C611.078 144.616 604.067 147.196 600.621 152.975L590.036 172.526Z" fill="#777777" fill-opacity="0.3"/>
</g>
<defs>
<clipPath id="clip0_152_4266">
<rect width="713.933" height="711.472" fill="white" transform="translate(0.335938 445.859) rotate(-38.6378)"/>
</clipPath>
</defs>
</svg>
