<svg width="30" height="31" viewBox="0 0 30 31" fill="none" xmlns="http://www.w3.org/2000/svg">
<path d="M16.7629 15.5L22.1379 10.1375C22.3733 9.90211 22.5055 9.58286 22.5055 9.24999C22.5055 8.91711 22.3733 8.59787 22.1379 8.36249C21.9025 8.12711 21.5833 7.99487 21.2504 7.99487C20.9175 7.99487 20.5983 8.12711 20.3629 8.36249L15.0004 13.7375L9.63791 8.36249C9.40253 8.12711 9.08329 7.99487 8.75041 7.99487C8.41754 7.99487 8.09829 8.12711 7.86291 8.36249C7.62753 8.59787 7.4953 8.91711 7.4953 9.24999C7.4953 9.58286 7.62753 9.90211 7.86291 10.1375L13.2379 15.5L7.86291 20.8625C7.74575 20.9787 7.65276 21.1169 7.5893 21.2693C7.52584 21.4216 7.49316 21.585 7.49316 21.75C7.49316 21.915 7.52584 22.0784 7.5893 22.2307C7.65276 22.383 7.74575 22.5213 7.86291 22.6375C7.97912 22.7546 8.11737 22.8476 8.26969 22.9111C8.42202 22.9746 8.5854 23.0072 8.75041 23.0072C8.91543 23.0072 9.07881 22.9746 9.23113 22.9111C9.38346 22.8476 9.52171 22.7546 9.63791 22.6375L15.0004 17.2625L20.3629 22.6375C20.4791 22.7546 20.6174 22.8476 20.7697 22.9111C20.922 22.9746 21.0854 23.0072 21.2504 23.0072C21.4154 23.0072 21.5788 22.9746 21.7311 22.9111C21.8835 22.8476 22.0217 22.7546 22.1379 22.6375C22.2551 22.5213 22.3481 22.383 22.4115 22.2307C22.475 22.0784 22.5077 21.915 22.5077 21.75C22.5077 21.585 22.475 21.4216 22.4115 21.2693C22.3481 21.1169 22.2551 20.9787 22.1379 20.8625L16.7629 15.5Z" fill="#999999"/>
</svg>
