<svg width="548" height="869" viewBox="0 0 548 869" fill="none" xmlns="http://www.w3.org/2000/svg">
<g clip-path="url(#clip0_155_4350)">
<path d="M256.499 535.183C242.883 540.585 229.134 540.255 216.941 537.076C197.891 532.108 183.676 521.077 182.351 519.918L181.788 518.957L180.264 518.56C178.74 518.162 134.575 503.391 127.514 464.927C122.077 435.838 139.401 403.733 147.749 390.447L138.072 365.136C135.653 358.808 138.965 352.347 145.293 349.928C151.621 347.509 158.081 350.821 160.501 357.149L170.177 382.46C173.789 384.215 178.924 386.368 185.187 390.443C184.06 388.521 183.894 386.036 182.966 383.353C178.06 358.472 192.27 332.065 200.22 320.303L191.306 295.191C188.886 288.863 192.199 282.402 198.527 279.983C204.854 277.564 211.315 280.876 213.734 287.204L222.649 312.316C224.935 312.912 227.785 314.469 231.396 316.225C229.143 312.382 227.85 307.976 227.32 303.768C221.85 277.927 237.982 250.393 244.972 239.194L244.638 215.506C244.703 209.012 249.341 203.711 256.033 203.014C262.527 203.08 267.828 207.718 268.525 214.41L269.488 232.566C281.084 238.031 303.681 251.248 308.587 276.128C309.316 279.574 309.283 282.821 309.25 286.068C312.132 284.378 315.015 282.688 317.698 281.76C340.524 272.249 363.717 283.179 374.916 290.169L390.486 280.394C396.251 277.014 403.109 278.802 406.489 284.566C409.869 290.331 408.08 297.189 402.316 300.569L383.863 312.034C379.359 323.067 364.155 353.284 338.645 363.723C334.04 365.778 329.833 366.308 325.625 366.839C328.475 368.395 331.324 369.952 333.412 371.31L359.253 365.841C365.382 364.184 371.644 368.258 373.301 374.387C374.958 380.516 370.884 386.779 364.755 388.436L339.676 394.104C334.012 406.462 319.603 433.631 295.816 443.705C293.894 444.832 291.409 444.998 288.726 445.926C294.624 448.277 299.56 451.192 302.211 453.511L328.251 447.28C334.38 445.623 340.642 449.697 342.299 455.826C343.957 461.955 339.882 468.217 333.753 469.874L308.674 475.542C301.436 490.76 283.714 524.39 256.482 535.193L256.499 535.183ZM243.137 439.735C235.153 436.025 230.613 431.586 229.851 431.387L228.327 430.99C227.565 430.791 221.668 428.44 214.643 424.167C216.135 427.811 216.864 431.256 218.355 434.901C219.449 440.069 219.781 445.038 219.152 450.571C223.194 447.556 227.997 444.739 232.602 442.685C236.246 441.193 239.692 440.464 243.137 439.735V439.735ZM273.443 351.604C273.067 350.964 273.067 350.964 273.443 351.604L271.919 351.207C271.157 351.008 266.021 348.855 258.798 345.344C261.052 349.187 262.344 353.593 262.875 357.801C263.604 361.246 263.571 364.493 263.538 367.74C266.421 366.05 269.303 364.36 271.986 363.432C276.591 361.377 280.799 360.847 285.006 360.316C278.943 355.48 274.218 351.806 273.443 351.604V351.604ZM205.925 379.573C208.279 392.395 220.041 400.345 227.827 404.817C234.055 393.419 242.634 376.124 239.717 362.342C237.363 349.521 225.601 341.57 217.815 337.099C211.024 347.536 203.207 365.029 205.925 379.573ZM150.473 461.147C153.357 478.176 169.493 488.081 179.565 493.148C187.913 479.862 197.883 457.233 195.197 439.442C192.313 422.413 176.177 412.509 166.105 407.441C157.757 420.727 147.025 443.158 150.473 461.147ZM283.507 281.796C281.154 268.975 269.391 261.025 261.605 256.553C255.378 267.951 246.799 285.246 249.716 299.028C252.069 311.849 263.831 319.799 271.618 324.271C278.408 313.834 286.424 295.579 283.507 281.796V281.796ZM358.485 309.486C350.699 305.014 337.38 299.913 324.724 304.752C311.87 310.352 301.204 326.289 294.976 337.687C302.762 342.159 316.082 347.259 328.737 342.421C342.154 337.781 353.02 321.082 358.485 309.486V309.486ZM314.893 389.269C307.107 384.797 293.788 379.697 281.895 384.734C269.04 390.334 258.374 406.271 252.147 417.669C259.933 422.141 273.252 427.242 285.145 422.204C298.563 417.565 309.428 400.866 314.893 389.269ZM241.55 464.55C225.051 471.642 211.47 492.516 204.647 506.199C214.52 512.029 232.014 519.846 247.552 513.318C264.05 506.226 277.631 485.352 284.455 471.669C274.581 465.839 257.087 458.022 241.55 464.55V464.55Z" fill="white" fill-opacity="0.12"/>
<path d="M380.576 240.373C363.649 270.954 324.026 279.34 322.303 279.705C320.58 280.07 318.858 280.434 316.571 279.838C312.761 278.845 310.111 276.526 308.619 272.881C308.255 271.159 293.938 232.43 310.666 202.611C324.479 177.728 353.997 167.521 364.731 163.809L375.431 144.625C378.544 138.926 385.634 136.706 391.333 139.82C397.032 142.933 399.252 150.023 396.138 155.722L385.439 174.906C385.241 175.668 384.479 175.469 384.28 176.231C388.356 188.688 393.229 216.815 380.576 240.373V240.373ZM331.573 212.946C324.186 225.669 325.546 242.3 327.734 252.637C337.706 248.726 352.68 241.237 359.305 228.315C366.692 215.592 365.331 198.961 363.144 188.624C353.172 192.535 338.959 200.223 331.573 212.946V212.946Z" fill="white" fill-opacity="0.12"/>
<path d="M273.82 162.891C271.667 168.027 265.141 171.208 259.807 169.817L258.283 169.42C252.385 167.068 249.403 159.779 251.754 153.882L260.366 133.34C263.48 127.641 270.768 124.659 276.666 127.01C282.563 129.362 285.546 136.65 283.194 142.548L273.82 162.891V162.891Z" fill="white" fill-opacity="0.12"/>
<path d="M119.594 133.255L118.07 132.858C112.736 131.467 108.395 126.266 109.222 119.971L111.738 97.8395C112.566 91.5446 117.767 87.2039 124.26 87.2695C130.555 88.0971 135.658 93.4969 134.632 100.554L132.116 122.685C132.05 129.179 126.651 134.282 119.594 133.255V133.255Z" fill="white" fill-opacity="0.12"/>
<path d="M443.296 271.377C440.413 273.067 437.167 273.034 434.881 272.438C431.832 271.643 429.182 269.324 427.492 266.442C424.112 260.677 425.9 253.819 431.665 250.439L450.879 239.173C456.644 235.793 463.502 237.581 466.882 243.346C470.262 249.11 468.473 255.968 462.709 259.348L443.296 271.377V271.377Z" fill="white" fill-opacity="0.12"/>
<path d="M8.71207 199.562C7.18802 199.164 5.10062 197.806 3.77527 196.647C2.44991 195.487 -28.0332 168.82 -27.8712 133.867C-27.4102 107.131 -9.42254 84.9645 -0.544457 75.8857C-0.345753 75.1237 -1.10778 74.925 -0.909075 74.163L-0.87828 52.1973C-0.812704 45.7036 4.58707 40.6009 11.0807 40.6665C17.5743 40.7321 22.677 46.1318 22.6115 52.6255L22.5807 74.5912C30.3341 82.3098 51.1095 105.632 50.8144 134.853C50.6524 169.806 19.2473 196.612 18.2866 197.175C16.1664 199.064 12.5222 200.555 8.71207 199.562V199.562ZM28.2854 133.861C28.0519 119.151 19.4034 105.502 12.6107 97.2205C5.65409 105.173 -3.6542 119.022 -3.42073 133.732C-3.18727 148.442 5.46128 162.091 12.254 170.373C19.2106 162.421 28.5189 148.572 28.2854 133.861V133.861Z" fill="white" fill-opacity="0.12"/>
<path d="M160.988 271.009C158.305 271.937 155.82 272.103 152.772 271.308C149.724 270.513 147.637 269.155 145.947 266.273C144.621 265.113 122.619 230.891 132.124 197.561C139.642 171.851 162.732 155.084 174.062 149.086L180.023 126.225C181.613 120.129 188.338 116.186 194.434 117.776C200.531 119.365 204.474 126.09 202.884 132.187L197.32 153.523C202.954 163.131 216.805 191.158 208.691 219.154C199.948 252.683 162.924 269.886 160.988 271.009V271.009ZM155.747 203.721C151.971 218.199 156.976 233.34 161.648 243.51C170.493 237.678 183.214 226.346 186.791 212.63C190.567 198.151 185.562 183.011 180.89 172.84C172.044 178.672 159.323 190.004 155.747 203.721Z" fill="white" fill-opacity="0.12"/>
<path d="M-69.9676 254.733L-50.0873 272.124C-47.6025 271.958 -45.1177 271.793 -41.1089 272.024C-44.5216 269.506 -47.7357 266.227 -50.9497 262.947C-68.1137 241.381 -66.0631 208.548 -65.1699 195.76L-75.6743 176.744C-79.0543 170.979 -77.266 164.121 -71.5016 160.741C-65.7372 157.361 -58.8789 159.149 -55.4989 164.914L-46.6845 181.048C-33.4985 180.417 -7.92138 182.203 7.35395 201.649C9.04393 204.531 10.9326 206.652 12.6225 209.534C14.1794 206.684 15.7363 203.835 18.0551 201.184C34.486 181.867 60.6592 181.368 73.4478 182.261L83.1534 166.887C86.2671 161.188 94.1189 159.166 99.619 163.042C105.318 166.156 107.34 174.008 103.464 179.508L91.6053 200.017C92.2362 213.203 92.869 245.108 75.4775 264.988C72.1979 268.202 68.9182 271.416 65.8373 273.868C69.8462 274.1 73.093 274.132 75.3791 274.728L95.4214 257.167C100.622 252.826 107.679 253.853 112.219 258.292C116.559 263.493 115.533 270.55 111.094 275.089L91.0518 292.651C91.484 306.599 91.7522 336.781 75.3214 356.098C73.9633 358.185 72.0418 359.312 69.9216 361.2C76.614 360.504 82.9089 361.331 86.9178 361.563L107.722 344.2C112.923 339.86 119.98 340.886 124.519 345.325C128.86 350.526 127.834 357.583 123.395 362.122L102.591 379.485C103.387 395.156 103.59 431.832 83.8795 454.363C58.9353 484.481 13.1808 475.806 11.6567 475.408L10.1327 475.011L9.17192 475.574C8.21119 476.137 -9.57975 478.823 -29.3925 473.657C-41.5849 470.477 -53.7446 464.051 -62.9893 452.688C-82.042 429.002 -80.5218 391.962 -79.0325 376.887L-98.1508 359.694C-102.69 355.255 -103.188 347.801 -98.7489 343.261C-94.3099 338.722 -86.8555 338.224 -82.3161 342.663L-62.6345 360.817C-58.427 360.286 -53.4574 359.954 -47.1625 360.782C-49.2499 359.424 -50.3765 357.502 -52.2652 355.382C-68.3025 335.737 -67.4113 304.23 -66.3194 290.679L-85.4377 273.486C-89.9771 269.047 -90.4748 261.593 -86.0358 257.054C-81.9578 250.778 -74.5035 250.28 -69.9641 254.719L-69.9676 254.733ZM2.46971 382.676C5.48503 386.718 8.30165 391.521 10.3562 396.126C12.3105 391.753 15.2255 386.816 18.7038 382.84C21.0226 380.189 24.1036 377.737 27.1845 375.285C18.206 375.386 12.1098 373.796 11.9111 374.558L10.387 374.161C9.625 373.962 3.49601 375.619 -5.28371 374.958C-2.633 377.276 0.0177042 379.595 2.46971 382.676V382.676ZM67.1319 296.993C58.1535 297.094 44.0068 298.288 35.692 308.327C26.4165 318.93 24.497 338.776 25.3266 351.2C34.305 351.099 48.4517 349.905 56.7665 339.865C65.8433 330.025 67.7628 310.179 67.1319 296.993ZM12.2678 301.405C13.8247 298.556 15.3815 295.707 17.7004 293.056C20.98 289.842 24.2596 286.628 27.3405 284.176C19.1241 284.475 13.0279 282.885 13.0279 282.885L11.5038 282.488C10.7418 282.289 4.8115 283.184 -3.4049 283.483C0.00783427 286.001 3.22185 289.28 6.43588 292.56C8.88788 295.641 10.5779 298.523 12.2678 301.405V301.405ZM-10.5682 217.322C-18.4875 207.119 -32.6014 205.066 -42.3418 204.968C-43.235 217.756 -41.9077 237.634 -32.4643 248.235C-24.545 258.439 -10.4311 260.491 -0.690626 260.59C-0.559474 247.602 -1.8868 227.724 -10.5682 217.322ZM36.6101 217.416C27.3346 228.019 25.4151 247.865 26.2447 260.289C35.2231 260.188 49.3698 258.994 57.6846 248.955C66.96 238.352 68.8795 218.506 68.05 206.082C59.0715 206.183 44.9248 207.377 36.6101 217.416V217.416ZM65.1259 438.892C76.9189 424.877 78.5066 400.062 77.7098 384.391C66.4453 383.895 47.329 385.421 36.6954 398.111C25.1011 411.365 23.3147 436.942 24.1115 452.613C35.376 453.109 54.4922 451.583 65.1259 438.892ZM-45.0672 437.016C-34.6958 450.3 -15.6124 452.021 -4.14916 451.754C-3.42189 436.481 -4.12034 411.07 -16.0157 397.388C-26.3871 384.104 -45.4705 382.383 -56.9337 382.649C-57.661 397.923 -56.2005 423.533 -45.0672 437.016ZM-34.1444 338.947C-26.2251 349.151 -12.1111 351.203 -2.37069 351.302C-1.47751 338.513 -2.80483 318.635 -12.2482 308.034C-20.1675 297.831 -34.2815 295.778 -44.0219 295.68C-44.1531 308.667 -42.8258 328.545 -34.1444 338.947Z" fill="white" fill-opacity="0.12"/>
<path d="M402.457 381.176C424.919 369.942 448.707 378.587 460.304 384.052L475.311 373.316C480.313 369.738 488.331 370.201 491.711 375.965C495.091 381.73 494.826 388.985 489.062 392.365L471.736 405.752C467.993 416.984 455.639 448.757 432.018 461.316C417.806 469.004 402.731 467.515 390.539 464.336C376.822 460.759 367.147 454.167 366.385 453.968C362.211 451.252 360.355 445.885 361.547 441.313C362.739 436.741 374.231 395.79 402.457 381.176V381.176ZM420.586 439.617C432.877 433.056 442.218 415.959 446.921 404.164C438.174 400.256 424.458 396.679 413.127 402.677C400.837 409.238 391.496 426.334 386.792 438.13C395.539 442.038 409.256 445.615 420.586 439.617V439.617Z" fill="white" fill-opacity="0.12"/>
<path d="M-150.564 669.936C-64.3238 679.402 -9.46176 656.271 12.498 600.145C9.8473 597.826 7.19659 595.507 4.9433 591.665C1.00003 584.939 -0.259714 577.286 1.72733 569.666C4.50918 558.998 12.9898 551.443 22.5644 549.057C23.5559 526.528 20.473 510.261 20.473 510.261C18.8159 504.132 23.6523 498.068 29.7813 496.411C35.9103 494.754 41.9738 499.59 43.631 505.719C44.1943 506.68 47.4431 525.432 46.4188 551.208L54.801 553.393C56.8189 523.807 54.7296 503.73 53.9675 503.532C53.2711 496.839 57.9088 491.538 64.0378 489.881C70.7302 489.184 76.0316 493.822 77.6888 499.951C78.2521 500.912 80.872 525.196 77.6619 559.354L92.9025 563.329C106.781 531.952 121.688 512.238 121.886 511.476C125.762 505.976 133.216 505.478 138.717 509.354C144.217 513.229 144.714 520.684 140.839 526.184C140.839 526.184 128.251 543.248 115.763 569.29L124.146 571.475C135.838 548.481 147.83 533.704 148.791 533.141C153.23 528.601 160.883 527.341 165.422 531.78C169.962 536.219 171.222 543.873 166.782 548.412C166.782 548.412 154.989 562.427 144.655 583.334C145.218 584.295 146.544 585.454 147.107 586.415C151.05 593.14 152.31 600.793 150.323 608.413C147.74 618.32 140.021 626.073 130.248 629.222C121.044 689.487 157.426 737.225 238.07 771.275C243.968 773.627 246.95 780.915 244.599 786.813C242.446 791.948 236.681 795.328 230.585 793.738L229.061 793.341C116.842 746.175 99.3752 678.954 106.195 627.833L96.2884 625.25C82.9096 682.799 91.1647 735.41 120.292 782.883C123.672 788.647 121.883 795.506 116.881 799.084C113.999 800.774 110.553 801.504 107.505 800.709C104.457 799.914 102.37 798.556 100.68 795.674C67.7753 743.96 58.4591 682.934 73.4275 619.288L65.8072 617.301C47.7907 680.152 10.0599 728.096 -44.1058 757.92C-46.988 759.61 -50.2348 759.577 -52.5209 758.981C-55.569 758.186 -58.2197 755.867 -59.9097 752.985C-63.2896 747.221 -60.5406 739.799 -54.9749 737.181C-5.8116 710.936 27.2815 668.294 42.9464 611.34L33.04 608.757C13.8293 657.461 -34.0394 706.831 -155.001 693.194L-156.525 692.797C-161.86 691.406 -166.2 686.205 -165.373 679.91C-162.822 673.25 -157.621 668.91 -150.564 669.936V669.936ZM120.737 606.396C121.245 606.528 121.245 606.528 120.737 606.396C123.785 607.19 126.667 605.5 127.462 602.452C127.859 600.928 127.495 599.205 126.931 598.245C126.368 597.284 125.606 597.085 125.043 596.125L32.0753 571.883C29.0272 571.088 26.145 572.778 25.3502 575.826C24.9528 577.35 25.3174 579.073 25.8807 580.033C26.444 580.994 27.7694 582.154 29.2935 582.551L120.737 606.396V606.396Z" fill="white" fill-opacity="0.12"/>
<path d="M455.693 329.95L433.694 333.166C431.971 333.531 430.447 333.134 428.923 332.736C424.351 331.544 421.137 328.264 420.043 323.096C419.347 316.404 423.985 311.102 430.114 309.445L452.112 306.229C458.804 305.533 464.305 309.408 465.763 316.299C466.459 322.992 462.385 329.254 455.693 329.95Z" fill="white" fill-opacity="0.12"/>
</g>
<defs>
<clipPath id="clip0_155_4350">
<rect width="713.933" height="711.472" fill="white" transform="matrix(-0.967644 -0.25232 -0.25232 0.967644 547.352 180.139)"/>
</clipPath>
</defs>
</svg>
