<svg width="32" height="32" viewBox="0 0 32 32" fill="none" xmlns="http://www.w3.org/2000/svg">
<path d="M29.0743 13.3887H28.0003V13.3333H16.0003V18.6667H23.5357C22.4363 21.7713 19.4823 24 16.0003 24C11.5823 24 8.00033 20.418 8.00033 16C8.00033 11.582 11.5823 8 16.0003 8C18.0397 8 19.895 8.76934 21.3077 10.026L25.079 6.25467C22.6977 4.03534 19.5123 2.66667 16.0003 2.66667C8.63699 2.66667 2.66699 8.63667 2.66699 16C2.66699 23.3633 8.63699 29.3333 16.0003 29.3333C23.3637 29.3333 29.3337 23.3633 29.3337 16C29.3337 15.106 29.2417 14.2333 29.0743 13.3887Z" fill="#FFC107"/>
<path d="M4.2041 9.79401L8.58477 13.0067C9.7701 10.072 12.6408 8.00001 16.0001 8.00001C18.0394 8.00001 19.8948 8.76934 21.3074 10.026L25.0788 6.25467C22.6974 4.03534 19.5121 2.66667 16.0001 2.66667C10.8788 2.66667 6.43743 5.55801 4.2041 9.79401Z" fill="#FF3D00"/>
<path d="M16.0009 29.3333C19.4449 29.3333 22.5742 28.0153 24.9402 25.872L20.8135 22.38C19.4299 23.4323 17.7392 24.0014 16.0009 24C12.5329 24 9.58819 21.7887 8.47886 18.7027L4.13086 22.0527C6.33753 26.3707 10.8189 29.3333 16.0009 29.3333Z" fill="#4CAF50"/>
<path d="M29.074 13.3887H28V13.3333H16V18.6667H23.5353C23.0095 20.1443 22.0622 21.4355 20.8107 22.3807L20.8127 22.3793L24.9393 25.8713C24.6473 26.1367 29.3333 22.6667 29.3333 16C29.3333 15.106 29.2413 14.2333 29.074 13.3887Z" fill="#1976D2"/>
</svg>
