<svg width="20" height="26" viewBox="0 0 20 26" fill="none" xmlns="http://www.w3.org/2000/svg">
<path d="M10 0.75C7.44822 0.75301 5.00182 1.76804 3.19743 3.57242C1.39305 5.37681 0.378021 7.82322 0.37501 10.375C0.371954 12.4603 1.05312 14.4891 2.31401 16.15C2.31401 16.15 2.57651 16.4956 2.61939 16.5455L10 25.25L17.3841 16.5411C17.4226 16.4948 17.686 16.15 17.686 16.15L17.6869 16.1474C18.9471 14.4872 19.628 12.4594 19.625 10.375C19.622 7.82322 18.607 5.37681 16.8026 3.57242C14.9982 1.76804 12.5518 0.75301 10 0.75ZM13.15 14.75L10 12.7454L6.85001 14.75L7.37501 11.1852L4.75001 8.77637L8.42501 8.33275L10 5.125L11.673 8.33362L15.25 8.77637L12.625 11.1852L13.15 14.75Z" fill="#A5340F"/>
</svg>
