<svg width="71" height="71" viewBox="0 0 71 71" fill="none" xmlns="http://www.w3.org/2000/svg">
<path d="M29.484 56.1C28.8623 56.1 28.2332 56.0708 27.6151 56.016C24.562 55.5741 21.7753 54.2447 19.54 52.1704C17.0679 50.359 15.0732 47.9413 13.7779 45.1803C12.8861 43.7122 12.3235 42.0724 12.1163 40.3377C11.7758 37.7046 12.1866 35.0312 13.3005 32.6136C14.4182 30.0973 16.1871 27.9353 18.4298 26.343L18.4853 26.3028C19.1219 25.8609 19.7954 25.4628 20.4912 25.1268C23.3037 23.8961 26.2681 23.0744 29.3064 22.6836L29.88 22.5923C29.991 22.5631 30.1021 22.5448 30.2168 22.5375L30.2982 22.5193C32.4002 22.1723 34.4616 21.6172 36.4415 20.8722C37.6257 20.3499 38.8026 19.74 39.9239 19.0644L40.2385 18.8745C41.7262 17.9505 43.2953 17.1179 44.8978 16.4021C46.2893 15.8177 47.8251 15.5 49.2203 15.5C51.2372 15.5 52.9285 16.1537 54.109 17.3918L54.3088 17.5926C54.4347 17.7278 54.5457 17.8629 54.6456 18.0053C56.57 20.1527 57.7617 22.8297 58.0762 25.7148C58.0873 25.7696 58.1095 25.8792 58.1243 26.0216C58.1391 26.1823 58.1502 26.343 58.1613 26.5037L58.191 26.7849L58.1761 26.7666C58.3575 30.3822 57.5026 33.932 55.6855 37.0874C52.2919 42.843 47.8177 47.7623 42.3886 51.7139C38.7212 54.5369 34.1359 56.0963 29.4766 56.0963L29.484 56.1ZM24.2659 51.6956C25.4391 52.3092 26.7159 52.7255 28.0259 52.919C28.618 52.9994 29.2324 53.0396 29.8393 53.0396C40.653 53.0396 50.1714 40.4253 52.9285 35.5644C54.5198 32.7925 55.234 29.6517 54.9935 26.4781L54.9787 26.3466C54.2163 28.2895 53.2726 30.1996 52.1846 32.0037C50.9226 34.1219 49.4756 36.1597 47.888 38.0551C46.1856 40.0638 44.3056 41.9446 42.2924 43.6428C41.0416 44.7092 39.7204 45.7245 38.3696 46.6594C37.548 47.2291 36.6931 47.7842 35.8346 48.3138L35.1536 48.7009C32.4299 50.4429 29.262 51.4984 26.009 51.7467C25.8351 51.754 25.6759 51.754 25.5168 51.754C25.0986 51.754 24.6804 51.7358 24.2622 51.6956H24.2659ZM15.9836 42.6166C16.1427 42.9781 16.3278 43.3287 16.535 43.6684L16.5868 43.7378C17.1864 44.7165 17.9339 45.5674 18.8221 46.2759C19.6659 46.9589 20.6022 47.5067 21.6162 47.8975C22.867 48.3832 24.1808 48.6279 25.5242 48.6279C25.6426 48.6279 25.7611 48.6279 25.8795 48.6206C27.4227 48.5256 28.9252 48.1823 30.35 47.598L15.9873 42.6129L15.9836 42.6166ZM34.2062 45.6332L34.2173 45.6259C35.5385 44.8224 36.8375 43.9386 38.0809 43.0037L15.6838 35.2358C15.2953 36.4628 15.125 37.7338 15.1768 39.0193L34.2062 45.6295V45.6332ZM40.9268 40.6846C41.9742 39.7607 42.9845 38.7819 43.9356 37.7703L19.6696 29.3413C18.6075 30.2032 17.7082 31.2221 16.9902 32.3798L40.9268 40.6846ZM46.1486 35.2284C46.9628 34.2059 47.74 33.1395 48.4579 32.0512L30.2057 25.7112L29.843 25.7696C27.6447 26.0654 25.4724 26.5877 23.3815 27.3217L46.1486 35.2284ZM50.1085 29.3194C50.7191 28.2201 51.2742 27.077 51.7627 25.9193L40.8972 22.1358C39.8573 22.742 38.7693 23.2862 37.6701 23.7646L37.4777 23.8486L37.4666 23.8377C36.9633 24.0385 36.4526 24.2211 35.9382 24.3855L50.1085 29.3194ZM52.6731 22.91C52.7693 22.2015 52.7249 21.4748 52.5362 20.7845L52.5066 20.6823C52.3955 20.339 52.2253 20.0249 51.9922 19.7437C51.9292 19.6889 51.87 19.6305 51.8145 19.5684L51.7923 19.5392L51.6813 19.3821C51.0374 18.7394 50.027 18.6043 49.2906 18.6043C48.2951 18.6043 47.1811 18.8416 46.1486 19.2726C45.5898 19.5136 45.031 19.7766 44.487 20.0614L52.6768 22.9064L52.6731 22.91Z" fill="white"/>
</svg>
