<svg width="71" height="71" viewBox="0 0 71 71" fill="none" xmlns="http://www.w3.org/2000/svg">
<path d="M56.2011 29.493H36.9989V26.7913C39.431 26.5223 41.6799 25.3639 43.3162 23.5403C46.544 20.3117 47.519 16.4217 45.5876 14.4898C43.6562 12.5579 39.7634 13.5294 36.5245 16.7468C36.1247 17.1541 35.7512 17.5839 35.4037 18.036C35.0563 17.5801 34.6827 17.1504 34.283 16.7431C31.0366 13.5294 27.1401 12.5616 25.2124 14.4898C23.281 16.418 24.2523 20.3117 27.4838 23.5403C29.1163 25.3639 31.3653 26.5185 33.8011 26.7913V29.493H14.5989C14.1731 29.493 13.7658 29.6612 13.467 29.9601C13.1681 30.2591 13 30.6664 13 31.0924V56.7006C13 57.1266 13.1681 57.534 13.467 57.8329C13.7658 58.1318 14.1731 58.3 14.5989 58.3H56.2011C56.6269 58.3 57.0342 58.1318 57.333 57.8329C57.6319 57.534 57.8 57.1266 57.8 56.7006V31.0924C57.8 30.6664 57.6319 30.2591 57.333 29.9601C57.0342 29.6612 56.6269 29.493 56.2011 29.493ZM43.3237 16.7543C43.5478 16.9785 43.3573 18.9702 41.0523 21.2758C39.9951 22.4791 38.5717 23.3012 36.9989 23.6113V21.444C37.4622 20.5434 38.0636 19.725 38.7847 19.0113C40.9851 16.8253 43.0398 16.4703 43.3274 16.7506L43.3237 16.7543ZM29.7477 21.2758C27.4427 18.9702 27.2522 16.9748 27.4763 16.7543C27.764 16.474 29.8187 16.829 32.0153 19.0113C32.7364 19.725 33.3378 20.5434 33.8011 21.444V23.6113C32.2283 23.3012 30.8049 22.4791 29.7477 21.2758V21.2758ZM54.6021 32.6917V42.2953H43.3386C43.6076 40.6063 43.1182 38.8873 41.9975 37.5981C41.3885 36.9031 40.5965 36.3949 39.7149 36.1333C38.8295 35.8717 37.8881 35.8643 37.0027 36.1146V32.6917H54.6021V32.6917ZM35.4 47.8743L31.2084 43.1099C30.8087 42.6316 30.592 42.0262 30.5957 41.4022C30.5957 40.7782 30.8199 40.1765 31.2196 39.6982C31.5185 39.3245 31.9668 39.1041 32.4412 39.0966C32.9231 39.1078 33.3752 39.3283 33.6741 39.7057L34.1971 40.2998C34.5071 40.6287 34.9442 40.8155 35.3963 40.8155C35.8483 40.8155 36.2854 40.6287 36.5955 40.2998L37.1259 39.6982C37.4248 39.3208 37.8806 39.1003 38.3588 39.1041C38.8407 39.1041 39.2927 39.332 39.5841 39.7094C39.9839 40.1877 40.2005 40.7894 40.2005 41.4097C40.2005 42.03 39.9839 42.6316 39.5841 43.1099L35.3925 47.8706L35.4 47.8743ZM33.8011 32.6917V36.1184C32.9157 35.868 31.978 35.8717 31.0963 36.1296C30.2147 36.3874 29.4227 36.8919 28.8175 37.5832C27.693 38.8761 27.1961 40.6025 27.4651 42.2953H16.2016V32.6917H33.8011V32.6917ZM16.2016 45.494H29.0491L33.8011 50.8974V55.0938H16.2016V45.4903V45.494ZM37.0027 55.0976V50.9011L41.7546 45.4977H54.6021V55.1013H37.0027V55.0976Z" fill="white"/>
</svg>
