<svg width="20" height="20" viewBox="0 0 20 20" fill="none" xmlns="http://www.w3.org/2000/svg">
<path d="M9.97408 2.20708C12.5038 2.20708 12.8034 2.21671 13.8024 2.26229C14.7261 2.30445 15.2278 2.45879 15.5617 2.5885C16.0038 2.76036 16.3195 2.9657 16.651 3.29721C16.9825 3.62872 17.1878 3.94436 17.3597 4.38655C17.4894 4.72043 17.6438 5.22207 17.6859 6.14575C17.7315 7.1448 17.7411 7.44442 17.7411 9.97412C17.7411 12.5038 17.7315 12.8034 17.6859 13.8025C17.6438 14.7262 17.4894 15.2278 17.3597 15.5617C17.1878 16.0039 16.9825 16.3195 16.651 16.651C16.3195 16.9825 16.0038 17.1879 15.5617 17.3597C15.2278 17.4895 14.7261 17.6438 13.8024 17.686C12.8036 17.7315 12.5039 17.7412 9.97408 17.7412C7.44423 17.7412 7.14461 17.7315 6.14575 17.686C5.22204 17.6438 4.72039 17.4895 4.38655 17.3597C3.94432 17.1879 3.62868 16.9825 3.29717 16.651C2.96566 16.3195 2.76032 16.0039 2.5885 15.5617C2.45875 15.2278 2.30441 14.7262 2.26225 13.8025C2.21667 12.8034 2.20704 12.5038 2.20704 9.97412C2.20704 7.44442 2.21667 7.1448 2.26225 6.14579C2.30441 5.22207 2.45875 4.72043 2.5885 4.38655C2.76032 3.94436 2.96566 3.62872 3.29717 3.29721C3.62868 2.9657 3.94432 2.76036 4.38655 2.5885C4.72039 2.45879 5.22204 2.30445 6.14572 2.26229C7.14476 2.21671 7.44438 2.20708 9.97408 2.20708ZM9.97408 0.5C7.40105 0.5 7.07846 0.510906 6.06794 0.557013C5.0595 0.603045 4.37083 0.763177 3.76817 0.997397C3.14516 1.23951 2.61681 1.56347 2.09012 2.09016C1.56343 2.61685 1.23948 3.1452 0.997359 3.76821C0.76314 4.37087 0.603007 5.05954 0.556975 6.06798C0.510869 7.07846 0.5 7.40109 0.5 9.97412C0.5 12.5472 0.510869 12.8698 0.556975 13.8803C0.603007 14.8887 0.76314 15.5774 0.997359 16.18C1.23948 16.803 1.56343 17.3314 2.09012 17.8581C2.61681 18.3848 3.14516 18.7087 3.76817 18.9508C4.37083 19.1851 5.0595 19.3452 6.06794 19.3912C7.07846 19.4373 7.40105 19.4482 9.97408 19.4482C12.5471 19.4482 12.8698 19.4373 13.8802 19.3912C14.8887 19.3452 15.5773 19.1851 16.18 18.9508C16.803 18.7087 17.3314 18.3848 17.858 17.8581C18.3847 17.3314 18.7087 16.803 18.9508 16.18C19.185 15.5774 19.3452 14.8887 19.3912 13.8803C19.4373 12.8698 19.4482 12.5472 19.4482 9.97412C19.4482 7.40109 19.4373 7.07846 19.3912 6.06798C19.3452 5.05954 19.185 4.37087 18.9508 3.76821C18.7087 3.1452 18.3847 2.61685 17.858 2.09016C17.3314 1.56347 16.803 1.23951 16.18 0.997397C15.5773 0.763177 14.8887 0.603045 13.8802 0.557013C12.8698 0.510906 12.5471 0.5 9.97408 0.5ZM9.97408 5.10903C7.28718 5.10903 5.10899 7.28722 5.10899 9.97412C5.10899 12.661 7.28718 14.8392 9.97408 14.8392C12.661 14.8392 14.8392 12.661 14.8392 9.97412C14.8392 7.28722 12.661 5.10903 9.97408 5.10903ZM9.97408 13.1322C8.22996 13.1322 6.81603 11.7182 6.81603 9.97412C6.81603 8.23 8.22996 6.81607 9.97408 6.81607C11.7182 6.81607 13.1321 8.23 13.1321 9.97412C13.1321 11.7182 11.7182 13.1322 9.97408 13.1322ZM16.1683 4.91681C16.1683 5.54471 15.6593 6.05373 15.0314 6.05373C14.4035 6.05373 13.8945 5.54471 13.8945 4.91681C13.8945 4.28892 14.4035 3.77994 15.0314 3.77994C15.6593 3.77994 16.1683 4.28892 16.1683 4.91681Z"/>
</svg>
