<svg width="130" height="127" viewBox="0 0 130 127" fill="none" xmlns="http://www.w3.org/2000/svg">
<g clip-path="url(#clip0_44_4516)">
<path fill-rule="evenodd" clip-rule="evenodd" d="M109.663 101.84C110.431 101.925 110.857 102.526 110.942 103.298L110.944 103.297C110.858 103.984 110.262 104.413 109.664 104.413H109.493C103.578 103.558 99.5904 101.749 96.9343 99.4999H92.9007C94.0378 102.045 95.6751 104.323 97.8059 106.302C98.3179 106.732 98.403 107.591 97.891 108.106C97.6357 108.364 97.2939 108.536 96.9528 108.536C96.6969 108.536 96.3558 108.45 96.0998 108.192C93.4822 105.696 91.5082 102.776 90.2165 99.5006H85.2513L85.2514 99.5125L85.252 99.5308C85.2524 99.5408 85.2528 99.5509 85.2528 99.5609V100.598C85.2528 103.928 82.5612 106.637 79.2525 106.637H53.1985C49.8899 106.637 47.1983 103.928 47.1983 100.598V99.5609C47.1983 99.5509 47.1987 99.5408 47.199 99.5308C47.1994 99.5207 47.1998 99.5107 47.1998 99.5006H41.9505C40.6602 102.496 38.7832 105.18 36.3513 107.499C36.096 107.757 35.7542 107.842 35.4982 107.842C35.1572 107.842 34.8161 107.67 34.5601 107.413C34.0481 106.897 34.1332 106.039 34.6452 105.609C36.5806 103.812 38.1099 101.767 39.2264 99.5006H34.6348C32.0017 101.425 28.2521 102.954 22.9584 103.72H22.7875C22.1904 103.72 21.5934 103.291 21.5083 102.604C21.5934 101.832 22.0195 101.23 22.7875 101.145C25.9386 100.679 28.6087 99.9176 30.7935 98.8602C27.874 97.5704 25.9119 94.8188 25.9119 91.7344V68.5564H26.2633C25.6507 67.0715 25.3592 65.6149 25.2276 64.7741L22.7542 63.4866C22.1564 63.1433 21.9004 62.3703 22.2422 61.7694C22.5833 61.1677 23.3513 60.91 23.9483 61.2541L26.5075 62.628C26.9344 62.456 27.4456 62.2847 28.1285 62.1983C27.9487 62.1381 27.8108 62.0353 27.656 61.9199C27.5904 61.871 27.5218 61.8198 27.4456 61.7686C25.2276 60.137 24.4596 56.7882 24.2036 55.3287L21.7303 54.0411C21.1325 53.6978 20.8765 52.9249 21.2183 52.3239C21.4743 51.5494 22.2415 51.2918 22.8386 51.6351L25.3977 52.9226L25.4043 52.9204L25.4044 52.9204C25.6575 52.8355 25.9127 52.7498 26.3359 52.665C25.9097 52.4929 25.4828 52.2353 25.0566 51.9776C22.6677 50.174 21.9855 46.6539 21.7295 45.28L20.1085 43.5628C19.5965 43.0475 19.5965 42.2752 20.1085 41.7592C20.6205 41.2439 21.3877 41.2439 21.9004 41.7592L23.2647 43.2195C24.6297 42.7906 27.3591 42.2752 29.4921 43.9068C29.6201 44.0357 29.7481 44.1431 29.8761 44.2505C30.0041 44.3579 30.1321 44.4653 30.26 44.5942C30.3451 44.2516 30.431 43.9076 30.6011 43.5643C31.796 41.0741 34.5261 40.3011 35.8903 40.0435L36.4882 38.1542C36.6591 37.4676 37.4263 37.0379 38.1092 37.2956C38.7913 37.4676 39.2182 38.2398 38.9622 38.9272L38.2793 41.4166C38.7062 42.7906 39.6444 46.1394 38.3644 48.7152L38.3579 48.7261C38.1041 49.1514 37.8503 49.5767 37.5965 49.9171C37.6875 49.8988 37.7747 49.8805 37.858 49.863L37.8583 49.8629C38.1647 49.7985 38.4185 49.7451 38.6197 49.7451L40.2407 47.3413C40.6676 46.7396 41.4348 46.6539 42.0326 46.998C42.6304 47.4277 42.7155 48.1999 42.3737 48.8016L40.7527 51.2061C41.1796 52.6657 42.0319 55.8425 40.8378 58.3327C40.778 58.5137 40.6759 58.6524 40.5611 58.8083C40.5126 58.8743 40.4617 58.9434 40.4109 59.02C40.9483 58.8172 41.4854 58.721 41.8978 58.6471L41.898 58.6471C42.0095 58.6271 42.1119 58.6087 42.2028 58.5903L43.9089 56.1865C44.3358 55.5848 45.103 55.4992 45.7008 55.8432C46.2986 56.2729 46.3837 57.0451 46.0419 57.6468L44.3358 60.0514C44.5385 60.7 44.8226 61.7009 45.0002 62.8544H49.7841C49.7937 61.511 49.7982 60.1341 49.7982 58.7222V58.3528C49.7982 54.5143 48.2691 51.197 46.4988 47.3563L46.4988 47.3563L46.4987 47.3562L46.4984 47.3554C43.1158 40.0181 38.9067 30.8862 43.6322 13.6402C43.6514 13.568 43.6773 13.4987 43.7069 13.4317V13.1398C43.7069 12.9536 43.7432 12.769 43.8142 12.5969L44.7161 10.4106C45.9916 7.31793 48.1283 4.70114 50.8954 2.84168C53.6624 0.982972 56.883 0 60.2101 0H72.0589C75.4475 0 78.7176 1.01648 81.518 2.937C84.3161 4.85975 86.4484 7.55474 87.6832 10.7308L88.6953 13.3342C88.7456 13.4295 88.7878 13.5308 88.8174 13.6387C93.5426 30.883 89.3335 40.0149 85.9518 47.352L85.9512 47.3532C84.18 51.195 82.6507 54.5125 82.6507 58.3513L82.6492 58.7192C82.6485 60.1311 82.6537 61.5087 82.6633 62.8529H87.5707C87.7402 61.9943 87.9525 61.2585 88.1138 60.744L86.4077 58.3394C86.0659 57.7377 86.1509 56.9655 86.7487 56.5358C87.3466 56.1917 88.1138 56.2781 88.5407 56.8791L90.2468 59.2836C90.3376 59.302 90.44 59.3204 90.5515 59.3404L90.5516 59.3404L90.5517 59.3404L90.5518 59.3404C90.9643 59.4143 91.5013 59.5105 92.0387 59.7133C91.9879 59.6367 91.9371 59.5677 91.8886 59.5018L91.8884 59.5016C91.7737 59.3457 91.6716 59.207 91.6118 59.026C90.4177 56.5358 91.27 53.359 91.6969 51.8994L90.0759 49.4956C89.7341 48.8939 89.8191 48.1217 90.417 47.692C91.0148 47.348 91.782 47.4336 92.2089 48.0353L93.8299 50.4399C94.0302 50.4399 94.2832 50.493 94.5892 50.5573C94.6732 50.575 94.7612 50.5934 94.8531 50.6119C94.5971 50.2686 94.3411 49.8397 94.0852 49.41C92.8052 46.8342 93.7433 43.4853 94.1702 42.1114L93.4874 39.622C93.2314 38.9346 93.6575 38.1624 94.3404 37.9904C95.0233 37.7327 95.7905 38.1617 95.9614 38.849L96.5592 40.7382C97.9243 40.9959 100.654 41.7696 101.848 44.2591C102.019 44.6016 102.104 44.9457 102.19 45.2889C102.318 45.1601 102.446 45.0527 102.574 44.9453C102.702 44.8379 102.83 44.7304 102.958 44.6016C105.091 42.97 107.82 43.4846 109.185 43.9143L110.549 42.454C111.062 41.9387 111.829 41.9387 112.341 42.454C112.853 42.97 112.853 43.7423 112.341 44.2576L110.72 45.9748C110.464 47.3487 109.781 50.8688 107.393 52.6724C106.967 52.9301 106.541 53.1877 106.114 53.3597C106.534 53.4443 106.789 53.5296 107.042 53.6141L107.052 53.6174L109.611 52.3299C110.208 51.9866 110.975 52.2442 111.231 53.0187C111.572 53.6196 111.316 54.3926 110.719 54.7359L108.246 56.0235C107.99 57.483 107.222 60.8318 105.004 62.4634C104.928 62.5146 104.859 62.5658 104.794 62.6147C104.639 62.7301 104.501 62.8329 104.321 62.8931C105.004 62.9795 105.515 63.1507 105.942 63.3228L108.501 61.9488C109.098 61.6055 109.866 61.8625 110.207 62.4642C110.548 63.0651 110.293 63.8381 109.695 64.1814L107.222 65.4689C107.111 66.1778 106.887 67.3247 106.452 68.5571H106.538V91.7351C106.538 95.0177 104.317 97.9226 101.083 99.091C102.761 100.075 104.654 100.553 107.025 101.151C107.844 101.357 108.719 101.578 109.663 101.84ZM108.075 46.3196C107.051 46.0619 105.516 45.8907 104.407 46.7493C103.212 47.6071 102.53 49.6684 102.189 51.0423C103.213 51.3 104.748 51.4712 105.857 50.6126C107.137 49.754 107.819 47.6935 108.075 46.3196ZM105.772 55.9356C104.748 55.6779 103.213 55.5066 102.104 56.3653C100.824 57.2239 100.142 59.2844 99.8856 60.6583C100.91 60.916 102.445 61.0872 103.554 60.2286C104.749 59.3708 105.431 57.3095 105.772 55.9356ZM100.312 53.0165H100.227V53.0172H100.142C100.142 53.0172 99.4595 53.0172 98.6064 52.7595C98.8624 53.1028 99.1184 53.5318 99.3744 53.9614C99.5446 54.304 99.6304 54.648 99.7155 54.9913C99.9707 54.7344 100.227 54.4768 100.568 54.2191L100.568 54.219C100.994 53.9614 101.42 53.7038 101.847 53.5318C101.365 53.3861 100.965 53.2405 100.692 53.1414L100.692 53.1413L100.692 53.1412C100.483 53.0651 100.349 53.0165 100.312 53.0165ZM99.5435 63.234C98.8739 63.1111 98.3779 62.901 98.118 62.7909L98.118 62.7909C98.014 62.7468 97.9478 62.7188 97.9235 62.7188H97.7534C97.7534 62.6795 97.6095 62.6583 97.3631 62.6218C97.0727 62.5789 96.6399 62.5149 96.1323 62.3755C96.3883 62.7181 96.6443 63.0621 96.8152 63.4054C97.0712 63.9207 97.2421 64.5217 97.3272 65.037C97.6683 64.6081 98.0944 64.1784 98.5213 63.8351C98.8602 63.5785 99.2006 63.4069 99.5402 63.2356L99.5435 63.234ZM99.4595 45.4595C98.8617 44.1719 97.4115 43.6574 96.4734 43.399C96.0473 44.6865 95.7055 46.8334 96.3883 48.2073C96.9861 49.4949 98.4363 50.0102 99.3744 50.2679C99.8005 48.9803 100.142 46.8334 99.4595 45.4595ZM97.0712 55.0762C96.4734 53.7887 95.0233 53.2734 94.0852 53.0157C93.6583 54.3896 93.3172 56.5365 94.0001 57.8241C94.5971 59.1116 96.048 59.6269 96.9861 59.8846C97.4123 58.597 97.7541 56.4501 97.0712 55.0762ZM94.512 64.521C93.7441 62.8894 91.782 62.2028 90.5879 61.9451C90.0759 63.5767 89.5639 66.2382 90.417 68.0418C91.1842 69.6734 93.1463 70.36 94.3411 70.6176C94.8531 68.986 95.3651 66.2382 94.512 64.521ZM87.2866 65.8331H82.6951C82.7232 67.9494 82.7654 69.972 82.8209 71.8992H90.4917C89.5151 71.2789 88.6043 70.4009 88.0287 69.1595C87.5131 68.1224 87.3111 66.9662 87.2866 65.8331ZM52.4565 5.1956C50.1525 6.74304 48.3739 8.92196 47.3122 11.4963V11.4956L46.8484 12.62H50.8473C51.2497 12.62 51.6337 12.7935 51.9001 13.0974C52.1664 13.4012 52.2915 13.8048 52.2426 14.2069C52.2315 14.3015 52.2256 14.3879 52.2256 14.4713V21.428C52.2256 22.6076 53.1786 23.5668 54.3505 23.5668C55.5224 23.5668 56.4753 22.6076 56.4753 21.428V14.4713C56.4753 14.3879 56.4694 14.3015 56.4583 14.2077C56.4095 13.8055 56.5338 13.4019 56.8009 13.0981C57.068 12.7943 57.4512 12.6208 57.8537 12.6208H59.0034C59.1455 12.5753 59.2964 12.55 59.4533 12.55H85.3697L85.0641 11.7636C84.0364 9.12004 82.2615 6.87634 79.9317 5.27603C77.6019 3.67572 74.8792 2.82977 72.0589 2.82977H60.2101C57.4409 2.82977 54.7596 3.64817 52.4565 5.1956ZM46.2069 15.4513C45.2214 19.2663 44.6643 22.7573 44.5097 26.0905H44.5082L44.4963 26.3489L44.6917 26.5164C46.6123 28.1666 49.3742 28.9686 53.1371 28.9686C58.1006 28.9686 63.8992 27.5952 69.507 26.2669L69.5101 26.2662C74.7143 25.033 79.6291 23.8691 83.5311 23.8691C84.9035 23.8691 86.0718 24.0083 87.1024 24.295L87.8415 24.5006L87.7638 23.7328C87.5152 21.2724 87.0432 18.6444 86.3611 15.9212L86.2612 15.522H59.4533C59.397 15.522 59.3415 15.5176 59.2868 15.5116V21.4288C59.2868 24.1685 57.0724 26.3973 54.3505 26.3973C51.6286 26.3973 49.4142 24.1685 49.4142 21.4288V15.4513H46.2069ZM44.5903 30.9592C45.1171 37.2986 47.2738 41.9774 49.1767 46.1051V46.1059L49.1773 46.1073C51.0149 50.0937 52.7509 53.86 52.7509 58.3535V58.7222C52.7524 63.6236 52.7176 68.0455 52.6496 71.9014H79.8511C79.7519 68.1095 79.6964 63.7457 79.6979 58.7236V58.3543C79.6979 53.8615 81.4339 50.0953 83.2715 46.1088L83.2722 46.1073L82.3111 45.6859L83.2722 46.1066C85.4496 41.3831 87.9162 36.0304 87.9814 28.2575L87.9836 27.9775L87.755 27.8189C86.8294 27.1747 85.397 26.8485 83.4978 26.8485C82.9215 26.8485 82.2911 26.8783 81.6245 26.9372C78.3388 27.2268 74.3831 28.164 70.1943 29.1564L70.1915 29.157L70.1819 29.1593L70.1758 29.1607C65.0461 30.3756 59.7421 31.6317 54.9017 31.8952C54.3009 31.9272 53.7157 31.9436 53.1608 31.9436C50.0245 31.9436 47.4654 31.4514 45.3368 30.4379L44.5141 30.0462L44.5903 30.9592ZM71.035 92.0017H74.8445L69.1106 78.9699H65.5038L59.7884 92.0017H63.5247L64.542 89.4512H70.0177L71.035 92.0017ZM42.0319 67.35C42.8849 65.5464 42.373 62.8849 41.861 61.2533C40.6669 61.511 38.7048 62.1976 37.9368 63.8291C37.0837 65.5464 37.5957 68.2942 38.1077 69.9258C39.3026 69.6682 41.2639 68.9816 42.0319 67.35ZM38.4488 57.1323C39.1317 55.8447 38.7906 53.6978 38.3637 52.3239C37.4255 52.5808 35.9754 53.0961 35.3776 54.3844C34.6947 55.7583 35.0366 57.9053 35.4627 59.1928C36.4008 58.9359 37.851 58.4206 38.4488 57.1323ZM35.6329 62.7129C35.8038 62.3703 36.0598 62.0263 36.3158 61.683V61.6822C35.8082 61.8216 35.3754 61.8856 35.085 61.9286L35.0849 61.9286C34.8386 61.965 34.6947 61.9862 34.6947 62.0255H34.5246C34.5003 62.0255 34.4341 62.0536 34.3301 62.0976C34.0702 62.2077 33.5737 62.418 32.9036 62.5409L32.9124 62.5453C33.2498 62.7159 33.5887 62.8871 33.9268 63.1426C34.3529 63.4858 34.7798 63.9148 35.1209 64.3445C35.206 63.8291 35.3769 63.2282 35.6329 62.7129ZM35.9747 42.7072C35.0366 42.9648 33.5864 43.4801 32.9886 44.7677C32.3057 46.1416 32.6476 48.2885 33.0737 49.576C34.0119 49.3191 35.462 48.8038 36.0598 47.5155C36.7427 46.1416 36.4008 43.9947 35.9747 42.7072ZM32.3065 52.3239H32.1363V52.3224C32.0994 52.3224 31.9662 52.3709 31.7574 52.4468C31.485 52.546 31.0841 52.6918 30.6011 52.8377C31.0273 53.0097 31.4542 53.2674 31.8803 53.5251C32.2207 53.7827 32.4767 54.0404 32.7326 54.298C32.8177 53.9555 32.9036 53.6115 33.0737 53.2682L33.0802 53.2572C33.3341 52.8319 33.5879 52.4066 33.8417 52.0662C32.9886 52.3239 32.3065 52.3239 32.3065 52.3239ZM28.0412 46.056C26.9314 45.1966 25.3962 45.3686 24.373 45.6263C24.629 47.0002 25.3119 49.0607 26.5911 49.9193C27.7009 50.7787 29.2361 50.6067 30.2593 50.349C29.9182 48.9751 29.2353 46.9146 28.0412 46.056ZM30.3444 55.672C29.2346 54.8126 27.6994 54.9846 26.6762 55.2423C27.0173 56.6162 27.7001 58.6767 28.8943 59.5353C30.0041 60.3947 31.5393 60.2227 32.5625 59.965C32.3065 58.5911 31.6236 56.5306 30.3444 55.672ZM27.6994 64.7734C28.0412 66.405 28.8943 69.0665 30.4295 70.1827C31.8796 71.299 33.9275 70.9557 35.1216 70.6124C34.7806 68.9808 34.0126 66.3193 32.3916 65.2031C30.9415 64.0861 28.8935 64.4301 27.6994 64.7734ZM37.8983 88.1942C37.5839 87.865 37.3368 87.4711 37.1585 87.0116C36.9802 86.5529 36.8906 86.0436 36.8906 85.4851C36.8906 84.9266 36.9794 84.4179 37.1585 83.9585C37.3368 83.499 37.5839 83.1051 37.8983 82.7759C38.2135 82.4475 38.5923 82.1966 39.0362 82.0223C39.4801 81.8488 39.9669 81.7617 40.4974 81.7617C41.1012 81.7617 41.656 81.892 42.1621 82.1526C42.6674 82.4133 43.1298 82.7923 43.5493 83.2883L45.8799 81.1659C45.251 80.3595 44.4645 79.7488 43.5212 79.3326C42.5772 78.9163 41.5073 78.7085 40.3117 78.7085C39.2878 78.7085 38.3444 78.8731 37.4818 79.2015C36.6184 79.5306 35.8659 79.9961 35.2252 80.5978C34.5838 81.2002 34.0844 81.9173 33.727 82.7484C33.3689 83.5802 33.1906 84.4917 33.1906 85.4851C33.1906 86.4785 33.3689 87.3907 33.727 88.2217C34.0844 89.0535 34.5838 89.7707 35.2252 90.3724C35.8659 90.9748 36.6184 91.4402 37.4818 91.7686C38.3444 92.097 39.2878 92.2616 40.3117 92.2616C41.5081 92.2616 42.5772 92.0501 43.5212 91.6286C44.4653 91.2071 45.251 90.5928 45.8799 89.7856L43.5493 87.6632C43.1298 88.1726 42.6674 88.5568 42.1621 88.8175C41.656 89.0781 41.1012 89.2084 40.4974 89.2084C39.9669 89.2084 39.4801 89.1221 39.0362 88.9478C38.5923 88.7743 38.2128 88.5233 37.8983 88.1942ZM44.4194 68.467C43.5826 70.2706 42.0393 71.3072 40.6143 71.8999H49.6265C49.682 69.9735 49.7234 67.9502 49.7523 65.8338H45.1237C45.0416 66.7393 44.83 67.6411 44.4194 68.467ZM53.4996 78.9691H47.5993V92.001V92.0017H51.2616V88.539H53.2422L55.5897 92.0017H59.511L56.7173 87.9038C57.5089 87.5292 58.123 87.0087 58.5588 86.3422C59.0219 85.6347 59.2528 84.7538 59.2528 83.773C59.2528 82.7923 59.0219 81.9397 58.5588 81.2129C58.0956 80.4861 57.4327 79.9313 56.57 79.5463C55.7066 79.162 54.6834 78.9691 53.4996 78.9691ZM79.2503 103.808C81.009 103.808 82.4391 102.368 82.4391 100.598H82.4384V99.5617C82.4384 99.5516 82.438 99.5416 82.4376 99.5315C82.4374 99.526 82.4372 99.5205 82.4371 99.515C82.437 99.5105 82.4369 99.5059 82.4369 99.5014H50.009C50.009 99.5118 50.0086 99.5222 50.0082 99.5327C50.0079 99.5424 50.0075 99.552 50.0075 99.5617V100.598C50.0075 102.368 51.4384 103.808 53.1963 103.808H79.2503ZM79.635 81.8362H86.1088V78.9691H75.9728V92.001H79.635V87.5329H85.3319V84.6845H79.635V81.8362ZM94.4137 81.892H98.3719V78.9691H86.7746V81.892H90.7514V92.001H94.4137V81.892ZM100.057 65.8971C98.4355 67.0134 97.6675 69.6749 97.3265 71.3064C98.5206 71.6497 100.569 71.993 102.019 70.8768C103.554 69.7605 104.407 67.099 104.749 65.4674C103.555 65.1241 101.507 64.7808 100.057 65.8971ZM28.9794 43.4794C28.8085 43.3937 24.8843 41.4188 23.9462 37.7267L23.9476 37.7275C23.2648 34.8933 24.5447 32.0598 25.2269 30.8579C25.2269 30.8151 25.2057 30.7937 25.1845 30.7723C25.1631 30.7507 25.1418 30.7291 25.1418 30.6858L24.544 28.3677C24.3731 27.6811 24.7992 26.9937 25.4821 26.8225C26.1643 26.6504 26.8471 27.0794 27.0173 27.7667L27.6151 30.0849C28.6383 30.6858 31.4535 32.5743 32.2215 35.6655C33.1596 39.3568 30.6004 43.0497 30.5153 43.1353C30.3452 43.393 30.0041 43.6514 29.5772 43.6514C29.4063 43.6514 29.1503 43.5657 28.9794 43.4794ZM29.8325 36.1808C29.4063 34.6356 28.1264 33.4329 27.1882 32.7463C26.6762 33.7762 26.0792 35.4942 26.5053 37.0394C26.9315 38.5846 28.2114 39.7873 29.1496 40.4739C29.6616 39.444 30.2594 37.7267 29.8325 36.1808ZM102.871 44.3455C103.042 44.3454 103.298 44.2598 103.469 44.1734C103.64 44.0878 107.563 42.1129 108.502 38.4208C109.185 35.5873 107.904 32.7538 107.223 31.5519C107.223 31.5092 107.244 31.4878 107.265 31.4663C107.287 31.4448 107.308 31.4232 107.308 31.3799L107.905 29.0617C108.076 28.3744 107.649 27.6878 106.967 27.5165C106.284 27.3445 105.602 27.7742 105.432 28.4608L104.834 30.779C103.811 31.3807 100.995 33.2684 100.228 36.3596C99.2894 40.0517 101.849 43.7438 101.934 43.8294C102.104 44.087 102.445 44.3453 102.871 44.3455ZM102.615 36.8749C103.042 35.3297 104.321 34.127 105.259 33.4404C105.771 34.4703 106.368 36.1883 105.942 37.7335C105.515 39.2787 104.236 40.4813 103.298 41.1679C102.786 40.138 102.189 38.4208 102.615 36.8749ZM94.7119 34.299H94.541C93.7737 34.2134 93.3468 33.5268 93.5177 32.8402L93.8588 30.4364C93.9439 29.6634 94.626 29.2345 95.3089 29.3201C95.9911 29.4914 96.418 30.0924 96.3322 30.7789L95.9911 33.1828C95.906 33.8694 95.3097 34.299 94.7119 34.299ZM72.5362 40.004C73.0622 40.004 73.5786 39.7895 73.9508 39.4142C74.3237 39.0396 74.5368 38.5206 74.5368 37.9904C74.5368 37.4609 74.3237 36.9411 73.9508 36.5666C73.5786 36.1912 73.063 35.9768 72.5362 35.9768C72.0094 35.9768 71.4937 36.1912 71.1216 36.5666C70.7494 36.9411 70.5356 37.4602 70.5356 37.9904C70.5356 38.5206 70.7502 39.0396 71.1216 39.4142C71.4937 39.7895 72.0094 40.004 72.5362 40.004ZM61.209 48.2587C60.8369 48.6333 60.3204 48.8485 59.7944 48.8485C59.2676 48.8485 58.752 48.6333 58.3798 48.2587C58.0069 47.8842 57.7938 47.3651 57.7938 46.8349C57.7938 46.3047 58.0069 45.7857 58.3798 45.4111C58.752 45.0358 59.2676 44.8213 59.7944 44.8213C60.3212 44.8213 60.8376 45.035 61.209 45.4111C61.5812 45.7857 61.795 46.3047 61.795 46.8349C61.795 47.3651 61.5812 47.8842 61.209 48.2587ZM60.3796 58.4623C60.0075 58.8376 59.7944 59.3559 59.7944 59.8868C59.7944 60.4178 60.0075 60.9361 60.3796 61.3106C60.7525 61.6852 61.2674 61.9004 61.795 61.9004C62.3225 61.9004 62.8374 61.6852 63.2096 61.3106C63.5817 60.9361 63.7955 60.417 63.7955 59.8868C63.7955 59.3566 63.5817 58.8376 63.2096 58.4623C62.8382 58.0884 62.3217 57.8732 61.795 57.8732C61.2682 57.8732 60.7525 58.0877 60.3796 58.4623ZM13.1109 83.5891C13.438 83.464 13.7228 83.2875 13.9647 83.0604C14.2067 82.8333 14.3946 82.5652 14.5278 82.2569C14.6617 81.9486 14.7283 81.609 14.7283 81.2382C14.7283 80.8673 14.6602 80.5352 14.5241 80.2291C14.3879 79.9231 14.2 79.6565 13.961 79.4294C13.7213 79.2022 13.438 79.0257 13.1109 78.9006C12.7839 78.7755 12.4266 78.713 12.0396 78.713C11.6527 78.713 11.2953 78.7755 10.9683 78.9006C10.6413 79.0257 10.3579 79.203 10.1182 79.4331C9.87851 79.6624 9.69059 79.9305 9.55519 80.2366C9.41906 80.5426 9.351 80.8763 9.351 81.2382C9.351 81.6001 9.41906 81.9419 9.55519 82.2502C9.69133 82.5585 9.87925 82.8273 10.1182 83.0574C10.3579 83.2868 10.642 83.4648 10.972 83.5899C11.3013 83.715 11.6571 83.7775 12.0396 83.7775C12.4221 83.7775 12.7839 83.715 13.1109 83.5899V83.5891ZM11.1067 82.2569C10.9868 82.134 10.8943 81.9881 10.83 81.819C10.7656 81.65 10.733 81.4586 10.733 81.2449C10.733 81.0312 10.7649 80.8405 10.83 80.6707C10.8943 80.5017 10.9868 80.3557 11.1067 80.2321C11.2265 80.1093 11.3656 80.0154 11.5247 79.9506C11.6838 79.8858 11.8554 79.8531 12.0396 79.8531C12.2239 79.8531 12.3955 79.8858 12.5546 79.9506C12.7136 80.0154 12.852 80.1093 12.9689 80.2321C13.0865 80.355 13.1783 80.501 13.2456 80.6707C13.3122 80.8398 13.3455 81.0312 13.3455 81.2449C13.3455 81.4586 13.3122 81.6492 13.2456 81.819C13.179 81.9881 13.0865 82.134 12.9689 82.2569C12.8513 82.3798 12.7129 82.4736 12.5546 82.5384C12.3962 82.6032 12.2239 82.6359 12.0396 82.6359C11.8554 82.6359 11.6838 82.6032 11.5247 82.5384C11.3656 82.4736 11.2265 82.3798 11.1067 82.2569ZM0 83.6792H1.36873V82.0097H3.4973V80.9455H1.36873V79.8814H3.78732V78.8098H0V83.6792ZM20.7973 119.991C20.3593 119.712 19.8814 119.488 19.3635 119.321C18.8456 119.153 18.3247 119.014 17.8009 118.902C17.2763 118.791 16.7991 118.682 16.3671 118.576C15.935 118.471 15.5836 118.334 15.3128 118.167C15.0412 117.999 14.9058 117.766 14.9058 117.468C14.9058 117.27 14.9732 117.084 15.1093 116.91C15.2447 116.736 15.4667 116.593 15.7752 116.481C16.083 116.37 16.4899 116.314 16.9959 116.314C17.5627 116.314 18.1486 116.395 18.7531 116.556C19.3568 116.718 19.9672 116.972 20.5842 117.319L21.694 114.601C21.0651 114.217 20.3408 113.928 19.5203 113.736C18.6998 113.544 17.8645 113.447 17.0137 113.447C15.7434 113.447 14.6832 113.64 13.8323 114.024C12.9815 114.409 12.3459 114.918 11.9272 115.551C11.5077 116.184 11.2983 116.885 11.2983 117.654C11.2983 118.35 11.4307 118.927 11.6964 119.386C11.9612 119.845 12.3097 120.217 12.741 120.503C13.1724 120.789 13.6533 121.018 14.1837 121.192C14.7135 121.366 15.2351 121.505 15.7463 121.61C16.2576 121.716 16.7325 121.827 17.1705 121.945C17.6078 122.064 17.9629 122.206 18.2345 122.373C18.5052 122.541 18.6414 122.767 18.6414 123.052C18.6414 123.276 18.5704 123.469 18.4283 123.63C18.2862 123.791 18.0643 123.916 17.7624 124.002C17.4598 124.089 17.0507 124.132 16.5328 124.132C15.7804 124.132 15.025 124.012 14.2674 123.769C13.5097 123.526 12.8402 123.219 12.2609 122.847L11.0586 125.584C11.6623 125.993 12.4554 126.331 13.435 126.598C14.4146 126.864 15.4415 126.999 16.5143 126.999C17.7965 126.999 18.8633 126.806 19.7142 126.421C20.565 126.037 21.2028 125.525 21.6289 124.886C22.0543 124.247 22.2667 123.548 22.2667 122.792C22.2667 122.11 22.1305 121.542 21.8597 121.088C21.5882 120.635 21.2338 120.269 20.7958 119.99L20.7973 119.991ZM27.1504 116.63H31.1272V126.739H34.7894V116.63H38.7477V113.708H27.1504V116.63ZM53.9517 113.95C54.8269 114.285 55.5853 114.757 56.2268 115.364C56.8682 115.973 57.3706 116.686 57.7346 117.505C58.0986 118.325 58.2806 119.212 58.2806 120.205C58.2806 121.197 58.1015 122.107 57.7442 122.932C57.3861 123.758 56.8837 124.475 56.2364 125.082C55.5883 125.691 54.8269 126.162 53.9517 126.497C53.0757 126.832 52.108 127 51.0848 127C50.0615 127 49.1086 126.832 48.2274 126.497C47.3455 126.162 46.5835 125.688 45.9428 125.074C45.3013 124.459 44.7982 123.74 44.4349 122.914C44.0709 122.088 43.8889 121.173 43.8889 120.205C43.8889 119.237 44.0709 118.343 44.4349 117.524C44.799 116.705 45.3013 115.988 45.9428 115.373C46.5835 114.76 47.3418 114.285 48.2178 113.95C49.0931 113.614 50.049 113.447 51.0848 113.447C52.1206 113.447 53.0757 113.614 53.9517 113.95ZM53.5722 122.933C53.8866 122.604 54.133 122.213 54.312 121.76C54.4903 121.307 54.5798 120.795 54.5798 120.224C54.5798 119.654 54.4903 119.142 54.312 118.689C54.133 118.236 53.8866 117.845 53.5722 117.516C53.2577 117.187 52.8878 116.936 52.4624 116.762C52.0377 116.589 51.5775 116.502 51.0848 116.502C50.592 116.502 50.1326 116.589 49.7071 116.762C49.2825 116.936 48.9088 117.187 48.5885 117.516C48.2674 117.845 48.021 118.236 47.8486 118.689C47.6755 119.141 47.5897 119.654 47.5897 120.224C47.5897 120.795 47.6755 121.307 47.8486 121.76C48.021 122.213 48.2674 122.604 48.5885 122.933C48.9088 123.261 49.2817 123.513 49.7071 123.686C50.1318 123.86 50.592 123.947 51.0848 123.947C51.5775 123.947 52.037 123.86 52.4624 123.686C52.8878 123.513 53.2577 123.262 53.5722 122.933ZM75.8056 121.08C76.268 120.372 76.4996 119.516 76.4996 118.511C76.4996 117.505 76.2687 116.677 75.8056 115.951C75.3424 115.224 74.6803 114.669 73.8169 114.284C72.9534 113.9 71.9302 113.707 70.7465 113.707H64.8461V126.739H68.5084V123.276H70.489L72.8365 126.739H76.7578L73.9641 122.641C74.7557 122.266 75.3698 121.746 75.8056 121.079V121.08ZM72.2454 117.124C72.6272 117.466 72.8188 117.928 72.8188 118.511C72.8188 119.094 72.6272 119.59 72.2454 119.926C71.8629 120.261 71.2895 120.428 70.5252 120.428H68.5091V116.612H70.5252C71.2895 116.612 71.8629 116.782 72.2454 117.124ZM83.1575 113.708H86.8198V126.739H83.1575V113.708ZM97.658 121.489H103.41V118.753H97.658V116.575H104.187V113.708H94.0512V126.739H104.428V123.872H97.658V121.489ZM118.485 119.321C119.003 119.488 119.481 119.712 119.919 119.991L119.917 119.99C120.355 120.269 120.71 120.635 120.981 121.088C121.252 121.542 121.388 122.11 121.388 122.792C121.388 123.548 121.176 124.247 120.75 124.886C120.324 125.525 119.686 126.037 118.836 126.421C117.985 126.806 116.918 126.999 115.636 126.999C114.563 126.999 113.536 126.864 112.556 126.598C111.577 126.331 110.784 125.993 110.18 125.584L111.382 122.847C111.962 123.219 112.631 123.526 113.389 123.769C114.146 124.012 114.902 124.132 115.654 124.132C116.172 124.132 116.581 124.089 116.884 124.002C117.186 123.916 117.408 123.791 117.55 123.63C117.692 123.469 117.763 123.276 117.763 123.052C117.763 122.767 117.627 122.541 117.356 122.373C117.084 122.206 116.729 122.064 116.292 121.945C115.854 121.827 115.379 121.716 114.868 121.61C114.357 121.505 113.835 121.366 113.305 121.192C112.775 121.018 112.294 120.789 111.863 120.503C111.431 120.217 111.083 119.845 110.818 119.386C110.552 118.927 110.42 118.35 110.42 117.654C110.42 116.885 110.629 116.184 111.049 115.551C111.467 114.918 112.103 114.409 112.954 114.024C113.805 113.64 114.865 113.447 116.135 113.447C116.986 113.447 117.821 113.544 118.642 113.736C119.462 113.928 120.187 114.217 120.815 114.601L119.706 117.319C119.089 116.972 118.478 116.718 117.875 116.556C117.27 116.395 116.684 116.314 116.117 116.314C115.611 116.314 115.204 116.37 114.897 116.481C114.588 116.593 114.366 116.736 114.231 116.91C114.095 117.084 114.027 117.27 114.027 117.468C114.027 117.766 114.163 117.999 114.434 118.167C114.705 118.334 115.056 118.471 115.489 118.576C115.921 118.682 116.398 118.791 116.922 118.902C117.446 119.014 117.967 119.153 118.485 119.321ZM8.81829 80.6045C8.81829 80.9798 8.73247 81.3 8.55934 81.5644C8.39657 81.8138 8.16648 82.0074 7.87053 82.1474L8.91521 83.6792H7.4503L6.57283 82.385H5.83297V83.6792H4.46424V78.8098H6.66901C7.11144 78.8098 7.49395 78.882 7.81652 79.0257C8.1391 79.1695 8.38621 79.3772 8.55934 79.6483C8.73173 79.9194 8.81829 80.2291 8.81829 80.6045ZM7.44364 80.6045C7.44364 80.3863 7.37187 80.2135 7.22908 80.0862C7.08629 79.9588 6.87173 79.8948 6.58614 79.8948H5.83297V81.3208H6.58614C6.87173 81.3208 7.08629 81.2583 7.22908 81.1332C7.37187 81.0081 7.44364 80.8227 7.44364 80.6045ZM17.9763 83.1997L16.7392 81.1682V83.6792H15.4815V78.8098H16.6083L18.3048 81.6232L19.9672 78.8098H21.0933L21.1007 83.6792H19.8422L19.8304 81.0959L18.5844 83.1997H17.9763ZM11.2451 87.1576V89.8638C11.2451 90.5824 11.4441 91.1394 11.8429 91.5333C12.2417 91.9273 12.798 92.1246 13.512 92.1246C14.2259 92.1246 14.7779 91.9273 15.1811 91.5333C15.5843 91.1394 15.7856 90.5824 15.7856 89.8638V87.1576H14.4309V89.8221C14.4309 90.2346 14.3517 90.5318 14.1927 90.7127C14.0336 90.8937 13.8116 90.9838 13.5253 90.9838C13.239 90.9838 13.0163 90.8937 12.855 90.7127C12.6937 90.5318 12.6131 90.2354 12.6131 89.8221V87.1576H11.2451ZM19.877 91.0739H17.8313H17.8305L17.4502 92.0271H16.0541L18.1901 87.1576H19.5381L21.6807 92.0271H20.2573L19.877 91.0739ZM18.8545 88.5085L18.2338 90.0656H19.4752L18.8545 88.5085ZM116.316 83.6792L117.884 78.8098H116.578L115.565 81.9471L114.588 78.8098H113.33L112.306 81.9181L111.333 78.8098H109.923L111.492 83.6792H112.963L113.921 80.7065L114.851 83.6792H116.316ZM118.409 78.8098H119.778V83.6792H118.409V78.8098ZM123.172 83.6792V79.9022H124.651V78.8098H120.318V79.9022H121.803V83.6792H123.172ZM128.424 81.7803H126.565V83.6792H125.197V78.8098H126.565V80.6395H128.424V78.8098H129.793V83.6792H128.424V81.7803ZM111.028 87.1576V92.0271H114.698V90.9354H112.397V87.1576H111.028ZM116.561 91.9369C116.231 91.8118 115.947 91.6338 115.708 91.4045V91.4052C115.469 91.1751 115.281 90.9063 115.144 90.598C115.008 90.2897 114.94 89.9479 114.94 89.586C114.94 89.2241 115.008 88.8904 115.144 88.5844C115.28 88.2783 115.468 88.0102 115.708 87.7809C115.947 87.5508 116.231 87.3736 116.558 87.2484C116.885 87.1233 117.242 87.0608 117.629 87.0608C118.016 87.0608 118.373 87.1233 118.7 87.2484C119.027 87.3736 119.311 87.55 119.55 87.7772C119.789 88.0043 119.977 88.2709 120.113 88.5769C120.249 88.883 120.318 89.2151 120.318 89.586C120.318 89.9568 120.251 90.2964 120.117 90.6047C119.984 90.913 119.796 91.1811 119.554 91.4082C119.312 91.6353 119.027 91.8118 118.7 91.9369C118.373 92.062 118.011 92.1246 117.629 92.1246C117.246 92.1246 116.891 92.062 116.561 91.9369ZM116.696 88.5807C116.576 88.7035 116.484 88.8495 116.419 89.0185C116.354 89.1883 116.322 89.379 116.322 89.5927C116.322 89.8064 116.355 89.9978 116.419 90.1668C116.484 90.3359 116.576 90.4818 116.696 90.6047C116.816 90.7276 116.955 90.8214 117.114 90.8862C117.273 90.951 117.445 90.9837 117.629 90.9837C117.813 90.9837 117.985 90.951 118.144 90.8862C118.302 90.8214 118.441 90.7276 118.558 90.6047C118.676 90.4826 118.768 90.3359 118.835 90.1668C118.901 89.997 118.935 89.8064 118.935 89.5927C118.935 89.379 118.901 89.1876 118.835 89.0185C118.768 88.8495 118.676 88.7035 118.558 88.5807C118.441 88.4578 118.303 88.364 118.144 88.2992C117.985 88.2344 117.813 88.2016 117.629 88.2016C117.445 88.2016 117.273 88.2344 117.114 88.2992C116.955 88.364 116.816 88.4578 116.696 88.5807ZM123.107 90.3337L121.789 87.1576H120.318L122.384 92.0271H123.731L125.805 87.1576H124.45L123.107 90.3337ZM127.47 90.0656V90.9562H130V92.0271H126.122V87.1576H129.91V88.2292H127.47V89.0431H129.62V90.0656H127.47ZM73.9508 53.7477C73.5786 54.1223 73.0622 54.3375 72.5362 54.3375C72.0094 54.3375 71.493 54.1223 71.1216 53.7477C70.7494 53.3732 70.5356 52.8549 70.5356 52.3239C70.5356 51.793 70.7494 51.2747 71.1216 50.8993C71.4937 50.5248 72.0094 50.3103 72.5362 50.3103C73.063 50.3103 73.5786 50.5248 73.9508 50.8993C74.3237 51.2747 74.5368 51.7937 74.5368 52.3239C74.5368 52.8541 74.3237 53.3724 73.9508 53.7477ZM71.9458 67.6031C72.4718 67.6031 72.9882 67.3879 73.3604 67.0134C73.7325 66.6388 73.9464 66.1198 73.9464 65.5895C73.9464 65.0593 73.7325 64.5403 73.3604 64.165C72.989 63.7912 72.4726 63.5759 71.9458 63.5759C71.419 63.5759 70.9033 63.7904 70.5304 64.165C70.1583 64.5403 69.9452 65.0586 69.9452 65.5895C69.9452 66.1205 70.1583 66.6388 70.5304 67.0134C70.9033 67.3879 71.4183 67.6031 71.9458 67.6031ZM110.062 58.9917C110.587 57.8951 112.228 54.4698 115.062 53.3598L115.061 53.3605C117.53 52.3738 120.073 53.6174 121.259 54.3442L122.919 53.324C123.499 52.9941 124.327 53.2175 124.655 53.8014C125.063 54.4157 124.841 55.249 124.211 55.4679L122.19 56.7183C121.628 57.973 120.04 61.2243 117.271 62.281C115.602 62.8387 114.046 62.6131 112.769 62.1268C111.606 61.6838 110.752 61.0578 110.426 60.8191C110.349 60.7629 110.302 60.7282 110.287 60.7224C109.868 60.3791 109.73 59.7759 109.911 59.2941C109.942 59.2413 109.992 59.1369 110.062 58.9917ZM116.341 59.9062C117.74 59.3373 118.864 57.562 119.587 56.3683C118.659 55.9229 117.253 55.2959 115.963 55.815C114.484 56.3534 113.361 58.1287 112.718 59.3529C113.645 59.7982 115.051 60.4252 116.341 59.9062ZM114.814 40.3101C115.156 40.3101 115.497 40.2244 115.668 39.9668L117.374 38.2495C117.886 37.7342 117.886 36.962 117.374 36.4459C116.862 35.9306 116.094 35.9306 115.582 36.4459L113.876 38.1632C113.364 38.6785 113.364 39.4507 113.876 39.9668C114.132 40.138 114.473 40.3101 114.814 40.3101H114.814ZM114.644 46.0627C114.388 45.3753 114.644 44.6031 115.326 44.3454L117.545 43.4012C118.227 43.1443 118.995 43.4012 119.251 44.0885C119.506 44.7759 119.251 45.5481 118.568 45.8057L116.35 46.75C116.179 46.8356 116.009 46.8356 115.838 46.8356C115.326 46.8356 114.814 46.578 114.644 46.0627ZM36.4571 32.4887C36.5422 33.176 37.1393 33.605 37.7363 33.605H37.9072C38.6752 33.5193 39.1014 32.832 38.9305 32.1461L38.5894 29.7416C38.5043 28.9686 37.8214 28.5397 37.1393 28.6253C36.4564 28.7966 36.0302 29.3983 36.1161 30.0841L36.4571 32.4887ZM16.7806 39.2727C16.9515 39.5304 17.2934 39.616 17.6337 39.616C17.9755 39.616 18.3166 39.444 18.5718 39.2727C19.0838 38.7567 19.0838 37.9844 18.5718 37.4691L16.8657 35.7519C16.353 35.2366 15.5858 35.2366 15.0738 35.7519C14.5618 36.2679 14.5618 37.0402 15.0738 37.5555L16.7799 39.2727H16.7806ZM16.0985 46.0552L13.8804 45.111C13.1976 44.8533 12.9416 44.0803 13.1976 43.3938C13.4535 42.7064 14.2215 42.4488 14.9037 42.7064L17.1217 43.6507C17.8046 43.9083 18.0606 44.6813 17.8046 45.3679C17.6337 45.8832 17.1225 46.1409 16.6105 46.1409C16.4396 46.1409 16.2694 46.1409 16.0985 46.0552ZM8.12364 54.7977L10.1442 56.048C10.7065 57.3028 12.2942 60.5541 15.0627 61.6108C16.7319 62.1685 18.2885 61.9429 19.5655 61.4566C20.7278 61.0136 21.5823 60.3877 21.9083 60.149L21.9083 60.1489L21.9084 60.1488C21.9851 60.0927 22.0325 60.058 22.0477 60.0522C22.4665 59.7089 22.6041 59.1057 22.4228 58.6239C22.3925 58.5714 22.3429 58.4679 22.274 58.3239L22.274 58.3238L22.2739 58.3238C21.7502 57.2296 20.1089 53.8003 17.2734 52.6895C14.8045 51.7021 12.2624 52.9457 11.0757 53.6733L9.41543 52.6531C8.83539 52.3232 8.00675 52.5466 7.67899 53.1304C7.27133 53.7448 7.49329 54.578 8.12364 54.797V54.7977ZM16.3708 55.1455C17.8505 55.6839 18.9736 57.4592 19.6166 58.6834C18.6895 59.1288 17.2831 59.7558 15.9935 59.2367C14.5944 58.6678 13.4706 56.8925 12.7477 55.6988C13.6748 55.2535 15.0812 54.6265 16.3708 55.1455ZM67.2795 82.5845L65.6185 86.751H68.9412L67.2795 82.5845ZM55.572 83.7723C55.572 84.3807 55.3804 84.8521 54.9986 85.1872C54.6161 85.5223 54.0427 85.6898 53.2784 85.6898H51.2623V81.8734H53.2784C54.0427 81.8734 54.6161 82.0447 54.9986 82.3857C55.3804 82.7268 55.572 83.1639 55.572 83.7723Z" fill="white"/>
</g>
<defs>
<clipPath id="clip0_44_4516">
<rect width="130" height="127" fill="white"/>
</clipPath>
</defs>
</svg>
