<svg width="25" height="19" viewBox="0 0 25 19" fill="none" xmlns="http://www.w3.org/2000/svg">
<path d="M23.6123 0H1.08377C0.604495 0 0.217285 0.385937 0.217285 0.863636V18.1364C0.217285 18.6141 0.604495 19 1.08377 19H23.6123C24.0916 19 24.4788 18.6141 24.4788 18.1364V0.863636C24.4788 0.385937 24.0916 0 23.6123 0ZM21.4245 2.93906L12.8815 9.56477C12.6703 9.7294 12.3751 9.7294 12.1639 9.56477L3.61823 2.93906C3.58602 2.91428 3.56239 2.88008 3.55066 2.84124C3.53893 2.80241 3.53969 2.76088 3.55282 2.7225C3.56596 2.68411 3.59082 2.65078 3.62391 2.62719C3.65701 2.60359 3.69668 2.5909 3.73737 2.59091H21.3053C21.346 2.5909 21.3857 2.60359 21.4188 2.62719C21.4519 2.65078 21.4767 2.68411 21.4899 2.7225C21.503 2.76088 21.5038 2.80241 21.492 2.84124C21.4803 2.88008 21.4567 2.91428 21.4245 2.93906Z" fill="#A5340F"/>
</svg>
