<svg width="23" height="23" viewBox="0 0 23 23" fill="none" xmlns="http://www.w3.org/2000/svg">
<path d="M11.5 0C5.14872 0 0 5.14872 0 11.5C0 17.8513 5.14872 23 11.5 23C17.8513 23 23 17.8513 23 11.5C23 5.14872 17.8513 0 11.5 0ZM7.36719 4.56799C7.60413 4.55402 7.81829 4.69564 7.98065 4.94701L9.55292 7.92869C9.71846 8.28201 9.62439 8.66032 9.37745 8.91277L8.6573 9.63292C8.61285 9.69383 8.5836 9.76243 8.58289 9.83787C8.85906 10.9069 9.6968 11.893 10.4359 12.5711C11.175 13.2492 11.9694 14.1673 13.0007 14.3848C13.1281 14.4204 13.2843 14.4331 13.3755 14.3483L14.2122 13.4962C14.501 13.2773 14.9188 13.1712 15.2271 13.3502H15.2411L18.0782 15.025C18.4947 15.286 18.5378 15.7906 18.2397 16.0975L16.2856 18.0361C15.997 18.3321 15.6136 18.4316 15.2412 18.432C13.5938 18.3827 12.0373 17.5741 10.7588 16.7432C8.66027 15.2166 6.7353 13.323 5.5268 11.0353C5.06332 10.0761 4.51885 8.85207 4.57081 7.78134C4.57545 7.37853 4.68443 6.98391 4.9681 6.72428L6.92219 4.77018C7.07442 4.64065 7.22501 4.57639 7.36719 4.56799Z" fill="#A5340F"/>
</svg>
