<svg width="21" height="22" viewBox="0 0 21 22" fill="none" xmlns="http://www.w3.org/2000/svg">
<path d="M20.5916 20.4358L14.6723 14.1796C15.8189 12.6827 16.5093 10.7806 16.5093 8.70899C16.5093 3.90754 12.8129 0.000732422 8.27 0.000732422C3.72713 0.000732422 0.0307617 3.9075 0.0307617 8.70895C0.0307617 13.5104 3.72717 17.4172 8.27004 17.4172C10.2301 17.4172 12.0297 16.6876 13.446 15.4757L19.3653 21.7319C19.5344 21.9107 19.7564 22.0005 19.9785 22.0005C20.2005 22.0005 20.4225 21.9107 20.5916 21.7319C20.9307 21.3735 20.9307 20.7942 20.5916 20.4358ZM8.27004 15.5839C4.68291 15.5839 1.76536 12.5003 1.76536 8.70895C1.76536 4.91764 4.68291 1.83402 8.27004 1.83402C11.8572 1.83402 14.7747 4.91764 14.7747 8.70895C14.7747 12.5003 11.8571 15.5839 8.27004 15.5839Z"/>
</svg>
