<svg width="28" height="28" viewBox="0 0 28 28" fill="none" xmlns="http://www.w3.org/2000/svg">
<path fill-rule="evenodd" clip-rule="evenodd" d="M20.5215 7.02854C20.6423 7.03367 20.7615 7.08234 20.8537 7.17454C20.9983 7.3191 21.0358 7.53016 20.9663 7.70925L15.7416 22.6371C15.6739 22.8306 15.4949 22.9632 15.29 22.9715C15.0852 22.9799 14.896 22.8623 14.8127 22.675L11.9021 16.126L5.35309 13.2153C5.16575 13.1321 5.04821 12.9429 5.05657 12.7381C5.06493 12.5332 5.19748 12.3542 5.39098 12.2865L20.3275 7.05873C20.3544 7.04885 20.382 7.04136 20.4099 7.03626C20.447 7.02946 20.4844 7.02694 20.5215 7.02854ZM18.5974 8.72373L6.91169 12.8137L12.1703 15.1509L18.5974 8.72373ZM12.8773 15.8581L19.3042 9.4312L15.2143 21.1164L12.8773 15.8581Z"/>
</svg>
