<svg width="24" height="24" viewBox="0 0 24 24" fill="none" xmlns="http://www.w3.org/2000/svg">
<path d="M11.3986 0.00373641C9.4726 0.0269864 5.33185 0.343486 3.01585 2.46824C1.2931 4.17524 0.691604 6.69899 0.621104 9.81974C0.562604 12.9292 0.492104 18.7687 6.12085 20.3587V22.7805C6.12085 22.7805 6.08561 23.7495 6.7261 23.9482C7.51511 24.198 7.96435 23.4525 8.71436 22.6515L10.1131 21.0697C13.9644 21.39 16.9141 20.652 17.2539 20.5425C18.0354 20.2927 22.4371 19.7302 23.1564 13.89C23.8944 7.85849 22.7971 4.05824 20.8164 2.33924H20.8044C20.2066 1.78874 17.8044 0.0382364 12.4374 0.0187364C12.4374 0.0187364 12.0391 -0.00826359 11.3986 0.00298641V0.00373641ZM11.4646 1.69949C12.0114 1.69574 12.3436 1.71899 12.3436 1.71899C16.8864 1.73099 19.0546 3.09824 19.5661 3.55874C21.2341 4.98824 22.0936 8.41424 21.4644 13.4497C20.8666 18.3322 17.2966 18.6412 16.6359 18.852C16.3546 18.942 13.7566 19.5825 10.4836 19.3717C10.4836 19.3717 8.0461 22.3132 7.2841 23.0707C7.16335 23.2035 7.02235 23.2425 6.93235 23.223C6.80335 23.1915 6.76435 23.0317 6.77185 22.8127L6.7951 18.7935C2.02136 17.4735 2.3026 12.4927 2.3536 9.89099C2.4121 7.28924 2.90035 5.16074 4.35385 3.71924C6.3106 1.94999 9.8266 1.71149 11.4631 1.69949H11.4646ZM11.8246 4.30049C11.7853 4.30009 11.7463 4.30747 11.7099 4.32221C11.6735 4.33695 11.6403 4.35876 11.6124 4.38636C11.5844 4.41397 11.5622 4.44684 11.547 4.48308C11.5318 4.51931 11.524 4.55819 11.5239 4.59749C11.5239 4.76549 11.6604 4.89824 11.8246 4.89824C12.5682 4.88409 13.3073 5.01731 13.9992 5.29021C14.6911 5.5631 15.3221 5.97027 15.8559 6.48824C16.9456 7.54649 17.4766 8.96849 17.4969 10.8277C17.4969 10.992 17.6296 11.1285 17.7976 11.1285V11.1165C17.8768 11.1167 17.9528 11.0856 18.0092 11.0299C18.0655 10.9743 18.0976 10.8987 18.0984 10.8195C18.1348 9.94435 17.9929 9.07095 17.6812 8.25236C17.3696 7.43378 16.8948 6.68711 16.2856 6.05774C15.0984 4.89749 13.5939 4.29974 11.8246 4.29974V4.30049ZM7.87135 4.98824C7.65907 4.95722 7.44255 4.99983 7.25785 5.10899H7.2421C6.8133 5.36034 6.42702 5.67803 6.0976 6.05024C5.82385 6.36674 5.67535 6.68699 5.63635 6.99524C5.6131 7.17899 5.62885 7.36274 5.6836 7.53824L5.7031 7.55024C6.01135 8.45624 6.4141 9.32774 6.90611 10.1482C7.53987 11.301 8.31982 12.367 9.2266 13.32L9.2536 13.359L9.29636 13.3905L9.32335 13.422L9.35485 13.449C10.3113 14.3584 11.3799 15.142 12.5349 15.7807C13.8549 16.4992 14.6559 16.839 15.1366 16.98V16.9875C15.2776 17.0302 15.4059 17.0497 15.5349 17.0497C15.9446 17.0197 16.3324 16.8534 16.6366 16.5772C17.0071 16.2477 17.3213 15.8599 17.5666 15.429V15.4215C17.7969 14.988 17.7189 14.5777 17.3866 14.3002C16.7212 13.7186 16.0017 13.202 15.2379 12.7575C14.7264 12.48 14.2066 12.648 13.9959 12.9292L13.5466 13.4955C13.3164 13.7767 12.8979 13.7377 12.8979 13.7377L12.8859 13.7452C9.7651 12.948 8.9326 9.78824 8.9326 9.78824C8.9326 9.78824 8.8936 9.35849 9.18235 9.13949L9.74485 8.68649C10.0141 8.46749 10.2016 7.94849 9.91286 7.43624C9.47141 6.67135 8.95593 5.95165 8.37385 5.28749C8.2466 5.13091 8.06808 5.02438 7.86985 4.98674L7.87135 4.98824ZM12.3436 5.87924C11.9454 5.87924 11.9454 6.48074 12.3474 6.48074C12.8426 6.48877 13.3313 6.59431 13.7857 6.79134C14.2401 6.98836 14.6513 7.273 14.9956 7.62899C15.3097 7.97549 15.5511 8.38152 15.7054 8.82302C15.8598 9.26451 15.9239 9.73249 15.8941 10.1992C15.8955 10.2782 15.9277 10.3535 15.9839 10.409C16.0401 10.4646 16.1159 10.4959 16.1949 10.4962L16.2069 10.512C16.2864 10.5114 16.3626 10.4795 16.4189 10.4232C16.4751 10.367 16.507 10.2908 16.5076 10.2112C16.5346 9.01949 16.1641 8.01974 15.4374 7.21874C14.7069 6.41774 13.6876 5.96849 12.3864 5.87924H12.3436ZM12.8364 7.49624C12.4261 7.48424 12.4104 8.09774 12.8169 8.10974C13.8054 8.16074 14.2854 8.66024 14.3484 9.68774C14.3497 9.76573 14.3816 9.84009 14.4371 9.8949C14.4926 9.94971 14.5673 9.98061 14.6454 9.98099H14.6574C14.6975 9.97927 14.7368 9.96958 14.7731 9.95248C14.8095 9.93538 14.842 9.91122 14.8689 9.88141C14.8958 9.8516 14.9164 9.81673 14.9297 9.77884C14.943 9.74095 14.9485 9.7008 14.9461 9.66074C14.8756 8.32124 14.1451 7.56674 12.8484 7.49699H12.8364V7.49624Z" fill="#ffffff"/>
</svg>
