<svg width="131" height="127" viewBox="0 0 131 127" fill="none" xmlns="http://www.w3.org/2000/svg">
<path fill-rule="evenodd" clip-rule="evenodd" d="M110.163 101.84C110.931 101.925 111.357 102.526 111.442 103.298L111.444 103.297C111.358 103.984 110.762 104.413 110.164 104.413H109.993C104.078 103.558 100.09 101.749 97.4343 99.4999H93.4007C94.5378 102.045 96.1751 104.323 98.3059 106.302C98.8179 106.732 98.903 107.591 98.391 108.106C98.1357 108.364 97.7939 108.536 97.4528 108.536C97.1969 108.536 96.8558 108.45 96.5998 108.192C93.9822 105.696 92.0082 102.776 90.7165 99.5006H85.7513L85.7514 99.5125L85.752 99.5308C85.7524 99.5408 85.7528 99.5509 85.7528 99.5609V100.598C85.7528 103.928 83.0612 106.637 79.7525 106.637H53.6985C50.3899 106.637 47.6983 103.928 47.6983 100.598V99.5609C47.6983 99.5509 47.6987 99.5408 47.699 99.5308C47.6994 99.5207 47.6998 99.5107 47.6998 99.5006H42.4505C41.1602 102.496 39.2832 105.18 36.8513 107.499C36.596 107.757 36.2542 107.842 35.9982 107.842C35.6572 107.842 35.3161 107.67 35.0601 107.413C34.5481 106.897 34.6332 106.039 35.1452 105.609C37.0806 103.812 38.6099 101.767 39.7264 99.5006H35.1348C32.5017 101.425 28.7521 102.954 23.4584 103.72H23.2875C22.6904 103.72 22.0934 103.291 22.0083 102.604C22.0934 101.832 22.5195 101.23 23.2875 101.145C26.4386 100.679 29.1087 99.9176 31.2935 98.8602C28.374 97.5704 26.4119 94.8188 26.4119 91.7344V68.5564H26.7633C26.1507 67.0715 25.8592 65.6149 25.7276 64.7741L23.2542 63.4866C22.6564 63.1433 22.4004 62.3703 22.7422 61.7694C23.0833 61.1677 23.8513 60.91 24.4483 61.2541L27.0075 62.628C27.4344 62.456 27.9456 62.2847 28.6285 62.1983C28.4487 62.1381 28.3108 62.0353 28.156 61.9199C28.0904 61.871 28.0218 61.8198 27.9456 61.7686C25.7276 60.137 24.9596 56.7882 24.7036 55.3287L22.2303 54.0411C21.6325 53.6978 21.3765 52.9249 21.7183 52.3239C21.9743 51.5494 22.7415 51.2918 23.3386 51.6351L25.8977 52.9226L25.9043 52.9204L25.9044 52.9204C26.1575 52.8355 26.4127 52.7498 26.8359 52.665C26.4097 52.4929 25.9828 52.2353 25.5566 51.9776C23.1677 50.174 22.4855 46.6539 22.2295 45.28L20.6085 43.5628C20.0965 43.0475 20.0965 42.2752 20.6085 41.7592C21.1205 41.2439 21.8877 41.2439 22.4004 41.7592L23.7647 43.2195C25.1297 42.7906 27.8591 42.2752 29.9921 43.9068C30.1201 44.0357 30.2481 44.1431 30.3761 44.2505C30.5041 44.3579 30.6321 44.4653 30.76 44.5942C30.8451 44.2516 30.931 43.9076 31.1011 43.5643C32.296 41.0741 35.0261 40.3011 36.3903 40.0435L36.9882 38.1542C37.1591 37.4676 37.9263 37.0379 38.6092 37.2956C39.2913 37.4676 39.7182 38.2398 39.4622 38.9272L38.7793 41.4166C39.2062 42.7906 40.1444 46.1394 38.8644 48.7152L38.8579 48.7261C38.6041 49.1514 38.3503 49.5767 38.0965 49.9171C38.1875 49.8988 38.2747 49.8805 38.358 49.863L38.3583 49.8629C38.6647 49.7985 38.9185 49.7451 39.1197 49.7451L40.7407 47.3413C41.1676 46.7396 41.9348 46.6539 42.5326 46.998C43.1304 47.4277 43.2155 48.1999 42.8737 48.8016L41.2527 51.2061C41.6796 52.6657 42.5319 55.8425 41.3378 58.3327C41.278 58.5137 41.1759 58.6524 41.0611 58.8083C41.0126 58.8743 40.9617 58.9434 40.9109 59.02C41.4483 58.8172 41.9854 58.721 42.3978 58.6471L42.398 58.6471C42.5095 58.6271 42.6119 58.6087 42.7028 58.5903L44.4089 56.1865C44.8358 55.5848 45.603 55.4992 46.2008 55.8432C46.7986 56.2729 46.8837 57.0451 46.5419 57.6468L44.8358 60.0514C45.0385 60.7 45.3226 61.7009 45.5002 62.8544H50.2841C50.2937 61.511 50.2982 60.1341 50.2982 58.7222V58.3528C50.2982 54.5143 48.7691 51.197 46.9988 47.3563L46.9988 47.3563L46.9987 47.3562L46.9984 47.3554C43.6158 40.0181 39.4067 30.8862 44.1322 13.6402C44.1514 13.568 44.1773 13.4987 44.2069 13.4317V13.1398C44.2069 12.9536 44.2432 12.769 44.3142 12.5969L45.2161 10.4106C46.4916 7.31793 48.6283 4.70114 51.3954 2.84168C54.1624 0.982972 57.383 0 60.7101 0H72.5589C75.9475 0 79.2176 1.01648 82.018 2.937C84.8161 4.85975 86.9484 7.55474 88.1832 10.7308L89.1953 13.3342C89.2456 13.4295 89.2878 13.5308 89.3174 13.6387C94.0426 30.883 89.8335 40.0149 86.4518 47.352L86.4512 47.3532C84.68 51.195 83.1507 54.5125 83.1507 58.3513L83.1492 58.7192C83.1485 60.1311 83.1537 61.5087 83.1633 62.8529H88.0707C88.2402 61.9943 88.4525 61.2585 88.6138 60.744L86.9077 58.3394C86.5659 57.7377 86.6509 56.9655 87.2487 56.5358C87.8466 56.1917 88.6138 56.2781 89.0407 56.8791L90.7468 59.2836C90.8376 59.302 90.94 59.3204 91.0515 59.3404L91.0516 59.3404L91.0517 59.3404L91.0518 59.3404C91.4643 59.4143 92.0013 59.5105 92.5387 59.7133C92.4879 59.6367 92.4371 59.5677 92.3886 59.5018L92.3884 59.5016C92.2737 59.3457 92.1716 59.207 92.1118 59.026C90.9177 56.5358 91.77 53.359 92.1969 51.8994L90.5759 49.4956C90.2341 48.8939 90.3191 48.1217 90.917 47.692C91.5148 47.348 92.282 47.4336 92.7089 48.0353L94.3299 50.4399C94.5302 50.4399 94.7832 50.493 95.0892 50.5573C95.1732 50.575 95.2612 50.5934 95.3531 50.6119C95.0971 50.2686 94.8411 49.8397 94.5852 49.41C93.3052 46.8342 94.2433 43.4853 94.6702 42.1114L93.9874 39.622C93.7314 38.9346 94.1575 38.1624 94.8404 37.9904C95.5233 37.7327 96.2905 38.1617 96.4614 38.849L97.0592 40.7382C98.4243 40.9959 101.154 41.7696 102.348 44.2591C102.519 44.6016 102.604 44.9457 102.69 45.2889C102.818 45.1601 102.946 45.0527 103.074 44.9453C103.202 44.8379 103.33 44.7304 103.458 44.6016C105.591 42.97 108.32 43.4846 109.685 43.9143L111.049 42.454C111.562 41.9387 112.329 41.9387 112.841 42.454C113.353 42.97 113.353 43.7423 112.841 44.2576L111.22 45.9748C110.964 47.3487 110.281 50.8688 107.893 52.6724C107.467 52.9301 107.041 53.1877 106.614 53.3597C107.034 53.4443 107.289 53.5296 107.542 53.6141L107.552 53.6174L110.111 52.3299C110.708 51.9866 111.475 52.2442 111.731 53.0187C112.072 53.6196 111.816 54.3926 111.219 54.7359L108.746 56.0235C108.49 57.483 107.722 60.8318 105.504 62.4634C105.428 62.5146 105.359 62.5658 105.294 62.6147C105.139 62.7301 105.001 62.8329 104.821 62.8931C105.504 62.9795 106.015 63.1507 106.442 63.3228L109.001 61.9488C109.598 61.6055 110.366 61.8625 110.707 62.4642C111.048 63.0651 110.793 63.8381 110.195 64.1814L107.722 65.4689C107.611 66.1778 107.387 67.3247 106.952 68.5571H107.038V91.7351C107.038 95.0177 104.817 97.9226 101.583 99.091C103.261 100.075 105.154 100.553 107.525 101.151C108.344 101.357 109.219 101.578 110.163 101.84ZM108.575 46.3196C107.551 46.0619 106.016 45.8907 104.907 46.7493C103.712 47.6071 103.03 49.6684 102.689 51.0423C103.713 51.3 105.248 51.4712 106.357 50.6126C107.637 49.754 108.319 47.6935 108.575 46.3196ZM106.272 55.9356C105.248 55.6779 103.713 55.5066 102.604 56.3653C101.324 57.2239 100.642 59.2844 100.386 60.6583C101.41 60.916 102.945 61.0872 104.054 60.2286C105.249 59.3708 105.931 57.3095 106.272 55.9356ZM100.812 53.0165H100.727V53.0172H100.642C100.642 53.0172 99.9595 53.0172 99.1064 52.7595C99.3624 53.1028 99.6184 53.5318 99.8744 53.9614C100.045 54.304 100.13 54.648 100.215 54.9913C100.471 54.7344 100.727 54.4768 101.068 54.2191L101.068 54.219C101.494 53.9614 101.92 53.7038 102.347 53.5318C101.865 53.3861 101.465 53.2405 101.192 53.1414L101.192 53.1413L101.192 53.1412C100.983 53.0651 100.849 53.0165 100.812 53.0165ZM100.043 63.234C99.3739 63.1111 98.8779 62.901 98.618 62.7909L98.618 62.7909C98.514 62.7468 98.4478 62.7188 98.4235 62.7188H98.2534C98.2534 62.6795 98.1095 62.6583 97.8631 62.6218C97.5727 62.5789 97.1399 62.5149 96.6323 62.3755C96.8883 62.7181 97.1443 63.0621 97.3152 63.4054C97.5712 63.9207 97.7421 64.5217 97.8272 65.037C98.1683 64.6081 98.5944 64.1784 99.0213 63.8351C99.3602 63.5785 99.7006 63.4069 100.04 63.2356L100.043 63.234ZM99.9595 45.4595C99.3617 44.1719 97.9115 43.6574 96.9734 43.399C96.5473 44.6865 96.2055 46.8334 96.8883 48.2073C97.4861 49.4949 98.9363 50.0102 99.8744 50.2679C100.301 48.9803 100.642 46.8334 99.9595 45.4595ZM97.5712 55.0762C96.9734 53.7887 95.5233 53.2734 94.5852 53.0157C94.1583 54.3896 93.8172 56.5365 94.5001 57.8241C95.0971 59.1116 96.548 59.6269 97.4861 59.8846C97.9123 58.597 98.2541 56.4501 97.5712 55.0762ZM95.012 64.521C94.2441 62.8894 92.282 62.2028 91.0879 61.9451C90.5759 63.5767 90.0639 66.2382 90.917 68.0418C91.6842 69.6734 93.6463 70.36 94.8411 70.6176C95.3531 68.986 95.8651 66.2382 95.012 64.521ZM87.7866 65.8331H83.1951C83.2232 67.9494 83.2654 69.972 83.3209 71.8992H90.9917C90.0151 71.2789 89.1043 70.4009 88.5287 69.1595C88.0131 68.1224 87.8111 66.9662 87.7866 65.8331ZM52.9565 5.1956C50.6525 6.74304 48.8739 8.92196 47.8122 11.4963V11.4956L47.3484 12.62H51.3473C51.7497 12.62 52.1337 12.7935 52.4001 13.0974C52.6664 13.4012 52.7915 13.8048 52.7426 14.2069C52.7315 14.3015 52.7256 14.3879 52.7256 14.4713V21.428C52.7256 22.6076 53.6786 23.5668 54.8505 23.5668C56.0224 23.5668 56.9753 22.6076 56.9753 21.428V14.4713C56.9753 14.3879 56.9694 14.3015 56.9583 14.2077C56.9095 13.8055 57.0338 13.4019 57.3009 13.0981C57.568 12.7943 57.9512 12.6208 58.3537 12.6208H59.5034C59.6455 12.5753 59.7964 12.55 59.9533 12.55H85.8697L85.5641 11.7636C84.5364 9.12004 82.7615 6.87634 80.4317 5.27603C78.1019 3.67572 75.3792 2.82977 72.5589 2.82977H60.7101C57.9409 2.82977 55.2596 3.64817 52.9565 5.1956ZM46.7069 15.4513C45.7214 19.2663 45.1643 22.7573 45.0097 26.0905H45.0082L44.9963 26.3489L45.1917 26.5164C47.1123 28.1666 49.8742 28.9686 53.6371 28.9686C58.6006 28.9686 64.3992 27.5952 70.007 26.2669L70.0101 26.2662C75.2143 25.033 80.1291 23.8691 84.0311 23.8691C85.4035 23.8691 86.5718 24.0083 87.6024 24.295L88.3415 24.5006L88.2638 23.7328C88.0152 21.2724 87.5432 18.6444 86.8611 15.9212L86.7612 15.522H59.9533C59.897 15.522 59.8415 15.5176 59.7868 15.5116V21.4288C59.7868 24.1685 57.5724 26.3973 54.8505 26.3973C52.1286 26.3973 49.9142 24.1685 49.9142 21.4288V15.4513H46.7069ZM45.0903 30.9592C45.6171 37.2986 47.7738 41.9774 49.6767 46.1051V46.1059L49.6773 46.1073C51.5149 50.0937 53.2509 53.86 53.2509 58.3535V58.7222C53.2524 63.6236 53.2176 68.0455 53.1496 71.9014H80.3511C80.2519 68.1095 80.1964 63.7457 80.1979 58.7236V58.3543C80.1979 53.8615 81.9339 50.0953 83.7715 46.1088L83.7722 46.1073L82.8111 45.6859L83.7722 46.1066C85.9496 41.3831 88.4162 36.0304 88.4814 28.2575L88.4836 27.9775L88.255 27.8189C87.3294 27.1747 85.897 26.8485 83.9978 26.8485C83.4215 26.8485 82.7911 26.8783 82.1245 26.9372C78.8388 27.2268 74.8831 28.164 70.6943 29.1564L70.6915 29.157L70.6819 29.1593L70.6758 29.1607C65.5461 30.3756 60.2421 31.6317 55.4017 31.8952C54.8009 31.9272 54.2157 31.9436 53.6608 31.9436C50.5245 31.9436 47.9654 31.4514 45.8368 30.4379L45.0141 30.0462L45.0903 30.9592ZM71.535 92.0017H75.3445L69.6106 78.9699H66.0038L60.2884 92.0017H64.0247L65.042 89.4512H70.5177L71.535 92.0017ZM42.5319 67.35C43.3849 65.5464 42.873 62.8849 42.361 61.2533C41.1669 61.511 39.2048 62.1976 38.4368 63.8291C37.5837 65.5464 38.0957 68.2942 38.6077 69.9258C39.8026 69.6682 41.7639 68.9816 42.5319 67.35ZM38.9488 57.1323C39.6317 55.8447 39.2906 53.6978 38.8637 52.3239C37.9255 52.5808 36.4754 53.0961 35.8776 54.3844C35.1947 55.7583 35.5366 57.9053 35.9627 59.1928C36.9008 58.9359 38.351 58.4206 38.9488 57.1323ZM36.1329 62.7129C36.3038 62.3703 36.5598 62.0263 36.8158 61.683V61.6822C36.3082 61.8216 35.8754 61.8856 35.585 61.9286L35.5849 61.9286C35.3386 61.965 35.1947 61.9862 35.1947 62.0255H35.0246C35.0003 62.0255 34.9341 62.0536 34.8301 62.0976C34.5702 62.2077 34.0737 62.418 33.4036 62.5409L33.4124 62.5453C33.7498 62.7159 34.0887 62.8871 34.4268 63.1426C34.8529 63.4858 35.2798 63.9148 35.6209 64.3445C35.706 63.8291 35.8769 63.2282 36.1329 62.7129ZM36.4747 42.7072C35.5366 42.9648 34.0864 43.4801 33.4886 44.7677C32.8057 46.1416 33.1476 48.2885 33.5737 49.576C34.5119 49.3191 35.962 48.8038 36.5598 47.5155C37.2427 46.1416 36.9008 43.9947 36.4747 42.7072ZM32.8065 52.3239H32.6363V52.3224C32.5994 52.3224 32.4662 52.3709 32.2574 52.4468C31.985 52.546 31.5841 52.6918 31.1011 52.8377C31.5273 53.0097 31.9542 53.2674 32.3803 53.5251C32.7207 53.7827 32.9767 54.0404 33.2326 54.298C33.3177 53.9555 33.4036 53.6115 33.5737 53.2682L33.5802 53.2572C33.8341 52.8319 34.0879 52.4066 34.3417 52.0662C33.4886 52.3239 32.8065 52.3239 32.8065 52.3239ZM28.5412 46.056C27.4314 45.1966 25.8962 45.3686 24.873 45.6263C25.129 47.0002 25.8119 49.0607 27.0911 49.9193C28.2009 50.7787 29.7361 50.6067 30.7593 50.349C30.4182 48.9751 29.7353 46.9146 28.5412 46.056ZM30.8444 55.672C29.7346 54.8126 28.1994 54.9846 27.1762 55.2423C27.5173 56.6162 28.2001 58.6767 29.3943 59.5353C30.5041 60.3947 32.0393 60.2227 33.0625 59.965C32.8065 58.5911 32.1236 56.5306 30.8444 55.672ZM28.1994 64.7734C28.5412 66.405 29.3943 69.0665 30.9295 70.1827C32.3796 71.299 34.4275 70.9557 35.6216 70.6124C35.2806 68.9808 34.5126 66.3193 32.8916 65.2031C31.4415 64.0861 29.3935 64.4301 28.1994 64.7734ZM38.3983 88.1942C38.0839 87.865 37.8368 87.4711 37.6585 87.0116C37.4802 86.5529 37.3906 86.0436 37.3906 85.4851C37.3906 84.9266 37.4794 84.4179 37.6585 83.9585C37.8368 83.499 38.0839 83.1051 38.3983 82.7759C38.7135 82.4475 39.0923 82.1966 39.5362 82.0223C39.9801 81.8488 40.4669 81.7617 40.9974 81.7617C41.6012 81.7617 42.156 81.892 42.6621 82.1526C43.1674 82.4133 43.6298 82.7923 44.0493 83.2883L46.3799 81.1659C45.751 80.3595 44.9645 79.7488 44.0212 79.3326C43.0772 78.9163 42.0073 78.7085 40.8117 78.7085C39.7878 78.7085 38.8444 78.8731 37.9818 79.2015C37.1184 79.5306 36.3659 79.9961 35.7252 80.5978C35.0838 81.2002 34.5844 81.9173 34.227 82.7484C33.8689 83.5802 33.6906 84.4917 33.6906 85.4851C33.6906 86.4785 33.8689 87.3907 34.227 88.2217C34.5844 89.0535 35.0838 89.7707 35.7252 90.3724C36.3659 90.9748 37.1184 91.4402 37.9818 91.7686C38.8444 92.097 39.7878 92.2616 40.8117 92.2616C42.0081 92.2616 43.0772 92.0501 44.0212 91.6286C44.9653 91.2071 45.751 90.5928 46.3799 89.7856L44.0493 87.6632C43.6298 88.1726 43.1674 88.5568 42.6621 88.8175C42.156 89.0781 41.6012 89.2084 40.9974 89.2084C40.4669 89.2084 39.9801 89.1221 39.5362 88.9478C39.0923 88.7743 38.7128 88.5233 38.3983 88.1942ZM44.9194 68.467C44.0826 70.2706 42.5393 71.3072 41.1143 71.8999H50.1265C50.182 69.9735 50.2234 67.9502 50.2523 65.8338H45.6237C45.5416 66.7393 45.33 67.6411 44.9194 68.467ZM53.9996 78.9691H48.0993V92.001V92.0017H51.7616V88.539H53.7422L56.0897 92.0017H60.011L57.2173 87.9038C58.0089 87.5292 58.623 87.0087 59.0588 86.3422C59.5219 85.6347 59.7528 84.7538 59.7528 83.773C59.7528 82.7923 59.5219 81.9397 59.0588 81.2129C58.5956 80.4861 57.9327 79.9313 57.07 79.5463C56.2066 79.162 55.1834 78.9691 53.9996 78.9691ZM79.7503 103.808C81.509 103.808 82.9391 102.368 82.9391 100.598H82.9384V99.5617C82.9384 99.5516 82.938 99.5416 82.9376 99.5315C82.9374 99.526 82.9372 99.5205 82.9371 99.515C82.937 99.5105 82.9369 99.5059 82.9369 99.5014H50.509C50.509 99.5118 50.5086 99.5222 50.5082 99.5327C50.5079 99.5424 50.5075 99.552 50.5075 99.5617V100.598C50.5075 102.368 51.9384 103.808 53.6963 103.808H79.7503ZM80.135 81.8362H86.6088V78.9691H76.4728V92.001H80.135V87.5329H85.8319V84.6845H80.135V81.8362ZM94.9137 81.892H98.8719V78.9691H87.2746V81.892H91.2514V92.001H94.9137V81.892ZM100.557 65.8971C98.9355 67.0134 98.1675 69.6749 97.8265 71.3064C99.0206 71.6497 101.069 71.993 102.519 70.8768C104.054 69.7605 104.907 67.099 105.249 65.4674C104.055 65.1241 102.007 64.7808 100.557 65.8971ZM29.4794 43.4794C29.3085 43.3937 25.3843 41.4188 24.4462 37.7267L24.4476 37.7275C23.7648 34.8933 25.0447 32.0598 25.7269 30.8579C25.7269 30.8151 25.7057 30.7937 25.6845 30.7723C25.6631 30.7507 25.6418 30.7291 25.6418 30.6858L25.044 28.3677C24.8731 27.6811 25.2992 26.9937 25.9821 26.8225C26.6643 26.6504 27.3471 27.0794 27.5173 27.7667L28.1151 30.0849C29.1383 30.6858 31.9535 32.5743 32.7215 35.6655C33.6596 39.3568 31.1004 43.0497 31.0153 43.1353C30.8452 43.393 30.5041 43.6514 30.0772 43.6514C29.9063 43.6514 29.6503 43.5657 29.4794 43.4794ZM30.3325 36.1808C29.9063 34.6356 28.6264 33.4329 27.6882 32.7463C27.1762 33.7762 26.5792 35.4942 27.0053 37.0394C27.4315 38.5846 28.7114 39.7873 29.6496 40.4739C30.1616 39.444 30.7594 37.7267 30.3325 36.1808ZM103.371 44.3455C103.542 44.3454 103.798 44.2598 103.969 44.1734C104.14 44.0878 108.063 42.1129 109.002 38.4208C109.685 35.5873 108.404 32.7538 107.723 31.5519C107.723 31.5092 107.744 31.4878 107.765 31.4663C107.787 31.4448 107.808 31.4232 107.808 31.3799L108.405 29.0617C108.576 28.3744 108.149 27.6878 107.467 27.5165C106.784 27.3445 106.102 27.7742 105.932 28.4608L105.334 30.779C104.311 31.3807 101.495 33.2684 100.728 36.3596C99.7894 40.0517 102.349 43.7438 102.434 43.8294C102.604 44.087 102.945 44.3453 103.371 44.3455ZM103.115 36.8749C103.542 35.3297 104.821 34.127 105.759 33.4404C106.271 34.4703 106.868 36.1883 106.442 37.7335C106.015 39.2787 104.736 40.4813 103.798 41.1679C103.286 40.138 102.689 38.4208 103.115 36.8749ZM95.2119 34.299H95.041C94.2737 34.2134 93.8468 33.5268 94.0177 32.8402L94.3588 30.4364C94.4439 29.6634 95.126 29.2345 95.8089 29.3201C96.4911 29.4914 96.918 30.0924 96.8322 30.7789L96.4911 33.1828C96.406 33.8694 95.8097 34.299 95.2119 34.299ZM73.0362 40.004C73.5622 40.004 74.0786 39.7895 74.4508 39.4142C74.8237 39.0396 75.0368 38.5206 75.0368 37.9904C75.0368 37.4609 74.8237 36.9411 74.4508 36.5666C74.0786 36.1912 73.563 35.9768 73.0362 35.9768C72.5094 35.9768 71.9937 36.1912 71.6216 36.5666C71.2494 36.9411 71.0356 37.4602 71.0356 37.9904C71.0356 38.5206 71.2502 39.0396 71.6216 39.4142C71.9937 39.7895 72.5094 40.004 73.0362 40.004ZM61.709 48.2587C61.3369 48.6333 60.8204 48.8485 60.2944 48.8485C59.7676 48.8485 59.252 48.6333 58.8798 48.2587C58.5069 47.8842 58.2938 47.3651 58.2938 46.8349C58.2938 46.3047 58.5069 45.7857 58.8798 45.4111C59.252 45.0358 59.7676 44.8213 60.2944 44.8213C60.8212 44.8213 61.3376 45.035 61.709 45.4111C62.0812 45.7857 62.295 46.3047 62.295 46.8349C62.295 47.3651 62.0812 47.8842 61.709 48.2587ZM60.8796 58.4623C60.5075 58.8376 60.2944 59.3559 60.2944 59.8868C60.2944 60.4178 60.5075 60.9361 60.8796 61.3106C61.2525 61.6852 61.7674 61.9004 62.295 61.9004C62.8225 61.9004 63.3374 61.6852 63.7096 61.3106C64.0817 60.9361 64.2955 60.417 64.2955 59.8868C64.2955 59.3566 64.0817 58.8376 63.7096 58.4623C63.3382 58.0884 62.8217 57.8732 62.295 57.8732C61.7682 57.8732 61.2525 58.0877 60.8796 58.4623ZM13.6109 83.5891C13.938 83.464 14.2228 83.2875 14.4647 83.0604C14.7067 82.8333 14.8946 82.5652 15.0278 82.2569C15.1617 81.9486 15.2283 81.609 15.2283 81.2382C15.2283 80.8673 15.1602 80.5352 15.0241 80.2291C14.8879 79.9231 14.7 79.6565 14.461 79.4294C14.2213 79.2022 13.938 79.0257 13.6109 78.9006C13.2839 78.7755 12.9266 78.713 12.5396 78.713C12.1527 78.713 11.7953 78.7755 11.4683 78.9006C11.1413 79.0257 10.8579 79.203 10.6182 79.4331C10.3785 79.6624 10.1906 79.9305 10.0552 80.2366C9.91906 80.5426 9.851 80.8763 9.851 81.2382C9.851 81.6001 9.91906 81.9419 10.0552 82.2502C10.1913 82.5585 10.3793 82.8273 10.6182 83.0574C10.8579 83.2868 11.142 83.4648 11.472 83.5899C11.8013 83.715 12.1571 83.7775 12.5396 83.7775C12.9221 83.7775 13.2839 83.715 13.6109 83.5899V83.5891ZM11.6067 82.2569C11.4868 82.134 11.3943 81.9881 11.33 81.819C11.2656 81.65 11.233 81.4586 11.233 81.2449C11.233 81.0312 11.2649 80.8405 11.33 80.6707C11.3943 80.5017 11.4868 80.3557 11.6067 80.2321C11.7265 80.1093 11.8656 80.0154 12.0247 79.9506C12.1838 79.8858 12.3554 79.8531 12.5396 79.8531C12.7239 79.8531 12.8955 79.8858 13.0546 79.9506C13.2136 80.0154 13.352 80.1093 13.4689 80.2321C13.5865 80.355 13.6783 80.501 13.7456 80.6707C13.8122 80.8398 13.8455 81.0312 13.8455 81.2449C13.8455 81.4586 13.8122 81.6492 13.7456 81.819C13.679 81.9881 13.5865 82.134 13.4689 82.2569C13.3513 82.3798 13.2129 82.4736 13.0546 82.5384C12.8962 82.6032 12.7239 82.6359 12.5396 82.6359C12.3554 82.6359 12.1838 82.6032 12.0247 82.5384C11.8656 82.4736 11.7265 82.3798 11.6067 82.2569ZM0.5 83.6792H1.86873V82.0097H3.9973V80.9455H1.86873V79.8814H4.28732V78.8098H0.5V83.6792ZM21.2973 119.991C20.8593 119.712 20.3814 119.488 19.8635 119.321C19.3456 119.153 18.8247 119.014 18.3009 118.902C17.7763 118.791 17.2991 118.682 16.8671 118.576C16.435 118.471 16.0836 118.334 15.8128 118.167C15.5412 117.999 15.4058 117.766 15.4058 117.468C15.4058 117.27 15.4732 117.084 15.6093 116.91C15.7447 116.736 15.9667 116.593 16.2752 116.481C16.583 116.37 16.9899 116.314 17.4959 116.314C18.0627 116.314 18.6486 116.395 19.2531 116.556C19.8568 116.718 20.4672 116.972 21.0842 117.319L22.194 114.601C21.5651 114.217 20.8408 113.928 20.0203 113.736C19.1998 113.544 18.3645 113.447 17.5137 113.447C16.2434 113.447 15.1832 113.64 14.3323 114.024C13.4815 114.409 12.8459 114.918 12.4272 115.551C12.0077 116.184 11.7983 116.885 11.7983 117.654C11.7983 118.35 11.9307 118.927 12.1964 119.386C12.4612 119.845 12.8097 120.217 13.241 120.503C13.6724 120.789 14.1533 121.018 14.6837 121.192C15.2135 121.366 15.7351 121.505 16.2463 121.61C16.7576 121.716 17.2325 121.827 17.6705 121.945C18.1078 122.064 18.4629 122.206 18.7345 122.373C19.0052 122.541 19.1414 122.767 19.1414 123.052C19.1414 123.276 19.0704 123.469 18.9283 123.63C18.7862 123.791 18.5643 123.916 18.2624 124.002C17.9598 124.089 17.5507 124.132 17.0328 124.132C16.2804 124.132 15.525 124.012 14.7674 123.769C14.0097 123.526 13.3402 123.219 12.7609 122.847L11.5586 125.584C12.1623 125.993 12.9554 126.331 13.935 126.598C14.9146 126.864 15.9415 126.999 17.0143 126.999C18.2965 126.999 19.3633 126.806 20.2142 126.421C21.065 126.037 21.7028 125.525 22.1289 124.886C22.5543 124.247 22.7667 123.548 22.7667 122.792C22.7667 122.11 22.6305 121.542 22.3597 121.088C22.0882 120.635 21.7338 120.269 21.2958 119.99L21.2973 119.991ZM27.6504 116.63H31.6272V126.739H35.2894V116.63H39.2477V113.708H27.6504V116.63ZM54.4517 113.95C55.3269 114.285 56.0853 114.757 56.7268 115.364C57.3682 115.973 57.8706 116.686 58.2346 117.505C58.5986 118.325 58.7806 119.212 58.7806 120.205C58.7806 121.197 58.6015 122.107 58.2442 122.932C57.8861 123.758 57.3837 124.475 56.7364 125.082C56.0883 125.691 55.3269 126.162 54.4517 126.497C53.5757 126.832 52.608 127 51.5848 127C50.5615 127 49.6086 126.832 48.7274 126.497C47.8455 126.162 47.0835 125.688 46.4428 125.074C45.8013 124.459 45.2982 123.74 44.9349 122.914C44.5709 122.088 44.3889 121.173 44.3889 120.205C44.3889 119.237 44.5709 118.343 44.9349 117.524C45.299 116.705 45.8013 115.988 46.4428 115.373C47.0835 114.76 47.8418 114.285 48.7178 113.95C49.5931 113.614 50.549 113.447 51.5848 113.447C52.6206 113.447 53.5757 113.614 54.4517 113.95ZM54.0722 122.933C54.3866 122.604 54.633 122.213 54.812 121.76C54.9903 121.307 55.0798 120.795 55.0798 120.224C55.0798 119.654 54.9903 119.142 54.812 118.689C54.633 118.236 54.3866 117.845 54.0722 117.516C53.7577 117.187 53.3878 116.936 52.9624 116.762C52.5377 116.589 52.0775 116.502 51.5848 116.502C51.092 116.502 50.6326 116.589 50.2071 116.762C49.7825 116.936 49.4088 117.187 49.0885 117.516C48.7674 117.845 48.521 118.236 48.3486 118.689C48.1755 119.141 48.0897 119.654 48.0897 120.224C48.0897 120.795 48.1755 121.307 48.3486 121.76C48.521 122.213 48.7674 122.604 49.0885 122.933C49.4088 123.261 49.7817 123.513 50.2071 123.686C50.6318 123.86 51.092 123.947 51.5848 123.947C52.0775 123.947 52.537 123.86 52.9624 123.686C53.3878 123.513 53.7577 123.262 54.0722 122.933ZM76.3056 121.08C76.768 120.372 76.9996 119.516 76.9996 118.511C76.9996 117.505 76.7687 116.677 76.3056 115.951C75.8424 115.224 75.1803 114.669 74.3169 114.284C73.4534 113.9 72.4302 113.707 71.2465 113.707H65.3461V126.739H69.0084V123.276H70.989L73.3365 126.739H77.2578L74.4641 122.641C75.2557 122.266 75.8698 121.746 76.3056 121.079V121.08ZM72.7454 117.124C73.1272 117.466 73.3188 117.928 73.3188 118.511C73.3188 119.094 73.1272 119.59 72.7454 119.926C72.3629 120.261 71.7895 120.428 71.0252 120.428H69.0091V116.612H71.0252C71.7895 116.612 72.3629 116.782 72.7454 117.124ZM83.6575 113.708H87.3198V126.739H83.6575V113.708ZM98.158 121.489H103.91V118.753H98.158V116.575H104.687V113.708H94.5512V126.739H104.928V123.872H98.158V121.489ZM118.985 119.321C119.503 119.488 119.981 119.712 120.419 119.991L120.417 119.99C120.855 120.269 121.21 120.635 121.481 121.088C121.752 121.542 121.888 122.11 121.888 122.792C121.888 123.548 121.676 124.247 121.25 124.886C120.824 125.525 120.186 126.037 119.336 126.421C118.485 126.806 117.418 126.999 116.136 126.999C115.063 126.999 114.036 126.864 113.056 126.598C112.077 126.331 111.284 125.993 110.68 125.584L111.882 122.847C112.462 123.219 113.131 123.526 113.889 123.769C114.646 124.012 115.402 124.132 116.154 124.132C116.672 124.132 117.081 124.089 117.384 124.002C117.686 123.916 117.908 123.791 118.05 123.63C118.192 123.469 118.263 123.276 118.263 123.052C118.263 122.767 118.127 122.541 117.856 122.373C117.584 122.206 117.229 122.064 116.792 121.945C116.354 121.827 115.879 121.716 115.368 121.61C114.857 121.505 114.335 121.366 113.805 121.192C113.275 121.018 112.794 120.789 112.363 120.503C111.931 120.217 111.583 119.845 111.318 119.386C111.052 118.927 110.92 118.35 110.92 117.654C110.92 116.885 111.129 116.184 111.549 115.551C111.967 114.918 112.603 114.409 113.454 114.024C114.305 113.64 115.365 113.447 116.635 113.447C117.486 113.447 118.321 113.544 119.142 113.736C119.962 113.928 120.687 114.217 121.315 114.601L120.206 117.319C119.589 116.972 118.978 116.718 118.375 116.556C117.77 116.395 117.184 116.314 116.617 116.314C116.111 116.314 115.704 116.37 115.397 116.481C115.088 116.593 114.866 116.736 114.731 116.91C114.595 117.084 114.527 117.27 114.527 117.468C114.527 117.766 114.663 117.999 114.934 118.167C115.205 118.334 115.556 118.471 115.989 118.576C116.421 118.682 116.898 118.791 117.422 118.902C117.946 119.014 118.467 119.153 118.985 119.321ZM9.31829 80.6045C9.31829 80.9798 9.23247 81.3 9.05934 81.5644C8.89657 81.8138 8.66648 82.0074 8.37053 82.1474L9.41521 83.6792H7.9503L7.07283 82.385H6.33297V83.6792H4.96424V78.8098H7.16901C7.61144 78.8098 7.99395 78.882 8.31652 79.0257C8.6391 79.1695 8.88621 79.3772 9.05934 79.6483C9.23173 79.9194 9.31829 80.2291 9.31829 80.6045ZM7.94364 80.6045C7.94364 80.3863 7.87187 80.2135 7.72908 80.0862C7.58629 79.9588 7.37173 79.8948 7.08614 79.8948H6.33297V81.3208H7.08614C7.37173 81.3208 7.58629 81.2583 7.72908 81.1332C7.87187 81.0081 7.94364 80.8227 7.94364 80.6045ZM18.4763 83.1997L17.2392 81.1682V83.6792H15.9815V78.8098H17.1083L18.8048 81.6232L20.4672 78.8098H21.5933L21.6007 83.6792H20.3422L20.3304 81.0959L19.0844 83.1997H18.4763ZM11.7451 87.1576V89.8638C11.7451 90.5824 11.9441 91.1394 12.3429 91.5333C12.7417 91.9273 13.298 92.1246 14.012 92.1246C14.7259 92.1246 15.2779 91.9273 15.6811 91.5333C16.0843 91.1394 16.2856 90.5824 16.2856 89.8638V87.1576H14.9309V89.8221C14.9309 90.2346 14.8517 90.5318 14.6927 90.7127C14.5336 90.8937 14.3116 90.9838 14.0253 90.9838C13.739 90.9838 13.5163 90.8937 13.355 90.7127C13.1937 90.5318 13.1131 90.2354 13.1131 89.8221V87.1576H11.7451ZM20.377 91.0739H18.3313H18.3305L17.9502 92.0271H16.5541L18.6901 87.1576H20.0381L22.1807 92.0271H20.7573L20.377 91.0739ZM19.3545 88.5085L18.7338 90.0656H19.9752L19.3545 88.5085ZM116.816 83.6792L118.384 78.8098H117.078L116.065 81.9471L115.088 78.8098H113.83L112.806 81.9181L111.833 78.8098H110.423L111.992 83.6792H113.463L114.421 80.7065L115.351 83.6792H116.816ZM118.909 78.8098H120.278V83.6792H118.909V78.8098ZM123.672 83.6792V79.9022H125.151V78.8098H120.818V79.9022H122.303V83.6792H123.672ZM128.924 81.7803H127.065V83.6792H125.697V78.8098H127.065V80.6395H128.924V78.8098H130.293V83.6792H128.924V81.7803ZM111.528 87.1576V92.0271H115.198V90.9354H112.897V87.1576H111.528ZM117.061 91.9369C116.731 91.8118 116.447 91.6338 116.208 91.4045V91.4052C115.969 91.1751 115.781 90.9063 115.644 90.598C115.508 90.2897 115.44 89.9479 115.44 89.586C115.44 89.2241 115.508 88.8904 115.644 88.5844C115.78 88.2783 115.968 88.0102 116.208 87.7809C116.447 87.5508 116.731 87.3736 117.058 87.2484C117.385 87.1233 117.742 87.0608 118.129 87.0608C118.516 87.0608 118.873 87.1233 119.2 87.2484C119.527 87.3736 119.811 87.55 120.05 87.7772C120.289 88.0043 120.477 88.2709 120.613 88.5769C120.749 88.883 120.818 89.2151 120.818 89.586C120.818 89.9568 120.751 90.2964 120.617 90.6047C120.484 90.913 120.296 91.1811 120.054 91.4082C119.812 91.6353 119.527 91.8118 119.2 91.9369C118.873 92.062 118.511 92.1246 118.129 92.1246C117.746 92.1246 117.391 92.062 117.061 91.9369ZM117.196 88.5807C117.076 88.7035 116.984 88.8495 116.919 89.0185C116.854 89.1883 116.822 89.379 116.822 89.5927C116.822 89.8064 116.855 89.9978 116.919 90.1668C116.984 90.3359 117.076 90.4818 117.196 90.6047C117.316 90.7276 117.455 90.8214 117.614 90.8862C117.773 90.951 117.945 90.9837 118.129 90.9837C118.313 90.9837 118.485 90.951 118.644 90.8862C118.802 90.8214 118.941 90.7276 119.058 90.6047C119.176 90.4826 119.268 90.3359 119.335 90.1668C119.401 89.997 119.435 89.8064 119.435 89.5927C119.435 89.379 119.401 89.1876 119.335 89.0185C119.268 88.8495 119.176 88.7035 119.058 88.5807C118.941 88.4578 118.803 88.364 118.644 88.2992C118.485 88.2344 118.313 88.2016 118.129 88.2016C117.945 88.2016 117.773 88.2344 117.614 88.2992C117.455 88.364 117.316 88.4578 117.196 88.5807ZM123.607 90.3337L122.289 87.1576H120.818L122.884 92.0271H124.231L126.305 87.1576H124.95L123.607 90.3337ZM127.97 90.0656V90.9562H130.5V92.0271H126.622V87.1576H130.41V88.2292H127.97V89.0431H130.12V90.0656H127.97ZM74.4508 53.7477C74.0786 54.1223 73.5622 54.3375 73.0362 54.3375C72.5094 54.3375 71.993 54.1223 71.6216 53.7477C71.2494 53.3732 71.0356 52.8549 71.0356 52.3239C71.0356 51.793 71.2494 51.2747 71.6216 50.8993C71.9937 50.5248 72.5094 50.3103 73.0362 50.3103C73.563 50.3103 74.0786 50.5248 74.4508 50.8993C74.8237 51.2747 75.0368 51.7937 75.0368 52.3239C75.0368 52.8541 74.8237 53.3724 74.4508 53.7477ZM72.4458 67.6031C72.9718 67.6031 73.4882 67.3879 73.8604 67.0134C74.2325 66.6388 74.4464 66.1198 74.4464 65.5895C74.4464 65.0593 74.2325 64.5403 73.8604 64.165C73.489 63.7912 72.9726 63.5759 72.4458 63.5759C71.919 63.5759 71.4033 63.7904 71.0304 64.165C70.6583 64.5403 70.4452 65.0586 70.4452 65.5895C70.4452 66.1205 70.6583 66.6388 71.0304 67.0134C71.4033 67.3879 71.9183 67.6031 72.4458 67.6031ZM110.562 58.9917C111.087 57.8951 112.728 54.4698 115.562 53.3598L115.561 53.3605C118.03 52.3738 120.573 53.6174 121.759 54.3442L123.419 53.324C123.999 52.9941 124.827 53.2175 125.155 53.8014C125.563 54.4157 125.341 55.249 124.711 55.4679L122.69 56.7183C122.128 57.973 120.54 61.2243 117.771 62.281C116.102 62.8387 114.546 62.6131 113.269 62.1268C112.106 61.6838 111.252 61.0578 110.926 60.8191C110.849 60.7629 110.802 60.7282 110.787 60.7224C110.368 60.3791 110.23 59.7759 110.411 59.2941C110.442 59.2413 110.492 59.1369 110.562 58.9917ZM116.841 59.9062C118.24 59.3373 119.364 57.562 120.087 56.3683C119.159 55.9229 117.753 55.2959 116.463 55.815C114.984 56.3534 113.861 58.1287 113.218 59.3529C114.145 59.7982 115.551 60.4252 116.841 59.9062ZM115.314 40.3101C115.656 40.3101 115.997 40.2244 116.168 39.9668L117.874 38.2495C118.386 37.7342 118.386 36.962 117.874 36.4459C117.362 35.9306 116.594 35.9306 116.082 36.4459L114.376 38.1632C113.864 38.6785 113.864 39.4507 114.376 39.9668C114.632 40.138 114.973 40.3101 115.314 40.3101H115.314ZM115.144 46.0627C114.888 45.3753 115.144 44.6031 115.826 44.3454L118.045 43.4012C118.727 43.1443 119.495 43.4012 119.751 44.0885C120.006 44.7759 119.751 45.5481 119.068 45.8057L116.85 46.75C116.679 46.8356 116.509 46.8356 116.338 46.8356C115.826 46.8356 115.314 46.578 115.144 46.0627ZM36.9571 32.4887C37.0422 33.176 37.6393 33.605 38.2363 33.605H38.4072C39.1752 33.5193 39.6014 32.832 39.4305 32.1461L39.0894 29.7416C39.0043 28.9686 38.3214 28.5397 37.6393 28.6253C36.9564 28.7966 36.5302 29.3983 36.6161 30.0841L36.9571 32.4887ZM17.2806 39.2727C17.4515 39.5304 17.7934 39.616 18.1337 39.616C18.4755 39.616 18.8166 39.444 19.0718 39.2727C19.5838 38.7567 19.5838 37.9844 19.0718 37.4691L17.3657 35.7519C16.853 35.2366 16.0858 35.2366 15.5738 35.7519C15.0618 36.2679 15.0618 37.0402 15.5738 37.5555L17.2799 39.2727H17.2806ZM16.5985 46.0552L14.3804 45.111C13.6976 44.8533 13.4416 44.0803 13.6976 43.3938C13.9535 42.7064 14.7215 42.4488 15.4037 42.7064L17.6217 43.6507C18.3046 43.9083 18.5606 44.6813 18.3046 45.3679C18.1337 45.8832 17.6225 46.1409 17.1105 46.1409C16.9396 46.1409 16.7694 46.1409 16.5985 46.0552ZM8.62364 54.7977L10.6442 56.048C11.2065 57.3028 12.7942 60.5541 15.5627 61.6108C17.2319 62.1685 18.7885 61.9429 20.0655 61.4566C21.2278 61.0136 22.0823 60.3877 22.4083 60.149L22.4083 60.1489L22.4084 60.1488C22.4851 60.0927 22.5325 60.058 22.5477 60.0522C22.9665 59.7089 23.1041 59.1057 22.9228 58.6239C22.8925 58.5714 22.8429 58.4679 22.774 58.3239L22.774 58.3238L22.7739 58.3238C22.2502 57.2296 20.6089 53.8003 17.7734 52.6895C15.3045 51.7021 12.7624 52.9457 11.5757 53.6733L9.91543 52.6531C9.33539 52.3232 8.50675 52.5466 8.17899 53.1304C7.77133 53.7448 7.99329 54.578 8.62364 54.797V54.7977ZM16.8708 55.1455C18.3505 55.6839 19.4736 57.4592 20.1166 58.6834C19.1895 59.1288 17.7831 59.7558 16.4935 59.2367C15.0944 58.6678 13.9706 56.8925 13.2477 55.6988C14.1748 55.2535 15.5812 54.6265 16.8708 55.1455ZM67.7795 82.5845L66.1185 86.751H69.4412L67.7795 82.5845ZM56.072 83.7723C56.072 84.3807 55.8804 84.8521 55.4986 85.1872C55.1161 85.5223 54.5427 85.6898 53.7784 85.6898H51.7623V81.8734H53.7784C54.5427 81.8734 55.1161 82.0447 55.4986 82.3857C55.8804 82.7268 56.072 83.1639 56.072 83.7723Z" fill="#A5340F"/>
</svg>
