<svg width="23" height="25" viewBox="0 0 23 25" fill="none" xmlns="http://www.w3.org/2000/svg">
<path d="M10.8986 0.503736C8.9726 0.526986 4.83185 0.843486 2.51585 2.96824C0.793104 4.67524 0.191604 7.19899 0.121104 10.3197C0.0626045 13.4292 -0.00789559 19.2687 5.62085 20.8587V23.2805C5.62085 23.2805 5.58561 24.2495 6.2261 24.4482C7.01511 24.698 7.46435 23.9525 8.21436 23.1515L9.6131 21.5697C13.4644 21.89 16.4141 21.152 16.7539 21.0425C17.5354 20.7927 21.9371 20.2302 22.6564 14.39C23.3944 8.35849 22.2971 4.55824 20.3164 2.83924H20.3044C19.7066 2.28874 17.3044 0.538236 11.9374 0.518736C11.9374 0.518736 11.5391 0.491736 10.8986 0.502986V0.503736ZM10.9646 2.19949C11.5114 2.19574 11.8436 2.21899 11.8436 2.21899C16.3864 2.23099 18.5546 3.59824 19.0661 4.05874C20.7341 5.48824 21.5936 8.91424 20.9644 13.9497C20.3666 18.8322 16.7966 19.1412 16.1359 19.352C15.8546 19.442 13.2566 20.0825 9.9836 19.8717C9.9836 19.8717 7.5461 22.8132 6.7841 23.5707C6.66335 23.7035 6.52235 23.7425 6.43235 23.723C6.30335 23.6915 6.26435 23.5317 6.27185 23.3127L6.2951 19.2935C1.52136 17.9735 1.8026 12.9927 1.8536 10.391C1.9121 7.78924 2.40035 5.66074 3.85385 4.21924C5.8106 2.44999 9.3266 2.21149 10.9631 2.19949H10.9646ZM11.3246 4.80049C11.2853 4.80009 11.2463 4.80747 11.2099 4.82221C11.1735 4.83695 11.1403 4.85876 11.1124 4.88636C11.0844 4.91397 11.0622 4.94684 11.047 4.98308C11.0318 5.01931 11.024 5.05819 11.0239 5.09749C11.0239 5.26549 11.1604 5.39824 11.3246 5.39824C12.0682 5.38409 12.8073 5.51731 13.4992 5.79021C14.1911 6.0631 14.8221 6.47027 15.3559 6.98824C16.4456 8.04649 16.9766 9.46849 16.9969 11.3277C16.9969 11.492 17.1296 11.6285 17.2976 11.6285V11.6165C17.3768 11.6167 17.4528 11.5856 17.5092 11.5299C17.5655 11.4743 17.5976 11.3987 17.5984 11.3195C17.6348 10.4443 17.4929 9.57095 17.1812 8.75236C16.8696 7.93378 16.3948 7.18711 15.7856 6.55774C14.5984 5.39749 13.0939 4.79974 11.3246 4.79974V4.80049ZM7.37135 5.48824C7.15907 5.45722 6.94255 5.49983 6.75785 5.60899H6.7421C6.3133 5.86034 5.92702 6.17803 5.5976 6.55024C5.32385 6.86674 5.17535 7.18699 5.13635 7.49524C5.1131 7.67899 5.12885 7.86274 5.1836 8.03824L5.2031 8.05024C5.51135 8.95624 5.9141 9.82774 6.40611 10.6482C7.03987 11.801 7.81982 12.867 8.7266 13.82L8.7536 13.859L8.79636 13.8905L8.82335 13.922L8.85485 13.949C9.81128 14.8584 10.8799 15.642 12.0349 16.2807C13.3549 16.9992 14.1559 17.339 14.6366 17.48V17.4875C14.7776 17.5302 14.9059 17.5497 15.0349 17.5497C15.4446 17.5197 15.8324 17.3534 16.1366 17.0772C16.5071 16.7477 16.8213 16.3599 17.0666 15.929V15.9215C17.2969 15.488 17.2189 15.0777 16.8866 14.8002C16.2212 14.2186 15.5017 13.702 14.7379 13.2575C14.2264 12.98 13.7066 13.148 13.4959 13.4292L13.0466 13.9955C12.8164 14.2767 12.3979 14.2377 12.3979 14.2377L12.3859 14.2452C9.2651 13.448 8.4326 10.2882 8.4326 10.2882C8.4326 10.2882 8.3936 9.85849 8.68235 9.63949L9.24485 9.18649C9.5141 8.96749 9.7016 8.44849 9.41286 7.93624C8.97141 7.17135 8.45593 6.45165 7.87385 5.78749C7.7466 5.63091 7.56808 5.52438 7.36985 5.48674L7.37135 5.48824ZM11.8436 6.37924C11.4454 6.37924 11.4454 6.98074 11.8474 6.98074C12.3426 6.98877 12.8313 7.09431 13.2857 7.29134C13.7401 7.48836 14.1513 7.773 14.4956 8.12899C14.8097 8.47549 15.0511 8.88152 15.2054 9.32302C15.3598 9.76451 15.4239 10.2325 15.3941 10.6992C15.3955 10.7782 15.4277 10.8535 15.4839 10.909C15.5401 10.9646 15.6159 10.9959 15.6949 10.9962L15.7069 11.012C15.7864 11.0114 15.8626 10.9795 15.9189 10.9232C15.9751 10.867 16.007 10.7908 16.0076 10.7112C16.0346 9.51949 15.6641 8.51974 14.9374 7.71874C14.2069 6.91774 13.1876 6.46849 11.8864 6.37924H11.8436ZM12.3364 7.99624C11.9261 7.98424 11.9104 8.59774 12.3169 8.60974C13.3054 8.66074 13.7854 9.16024 13.8484 10.1877C13.8497 10.2657 13.8816 10.3401 13.9371 10.3949C13.9926 10.4497 14.0673 10.4806 14.1454 10.481H14.1574C14.1975 10.4793 14.2368 10.4696 14.2731 10.4525C14.3095 10.4354 14.342 10.4112 14.3689 10.3814C14.3958 10.3516 14.4164 10.3167 14.4297 10.2788C14.443 10.241 14.4485 10.2008 14.4461 10.1607C14.3756 8.82124 13.6451 8.06674 12.3484 7.99699H12.3364V7.99624Z" />
</svg>
